<svg xmlns="http://www.w3.org/2000/svg" viewBox="218 30 168 168">
  <rect x="218" y="30" width="168" height="168" fill="#f7f8f8"/>
  <style>
    .g { fill: #f8b62d; }
    .d { fill: #231815; }
  </style>
  <!-- Left A: golden strokes -->
  <path class="g" d="M251.91,81.78c-6.82,17.81-13.63,35.61-20.45,53.42-.96,2.5-1.92,5.01-2.87,7.51-1.73,4.53,5.54,6.48,7.26,2,6.82-17.81,13.63-35.61,20.45-53.42.96-2.5,1.92-5.01,2.87-7.51,1.73-4.53-5.54-6.48-7.26-2h0Z"/>
  <path class="g" d="M251.91,83.78c6.82,17.81,13.63,35.61,20.45,53.42.96,2.5,1.92,5.01,2.87,7.51,1.71,4.48,8.99,2.53,7.26-2-6.82-17.81-13.63-35.61-20.45-53.42-.96-2.5-1.92-5.01-2.87-7.51-1.71-4.48-8.99-2.53-7.26,2h0Z"/>
  <!-- Left A: dark dot -->
  <circle class="d" cx="255.54" cy="123.31" r="6.8"/>
  <!-- Middle I: golden dot -->
  <circle class="g" cx="300.94" cy="87.98" r="6.8"/>
  <!-- Middle I: dark stem -->
  <path class="d" d="M311.9,98.84s-.06,0-.1,0h-.08c-.13,0-.26,0-.4,0,0,0,0,0,0,0s0,0,0,0c-.98,0-1.96,0-2.95,0h0s-7.12,0-7.12,0h-7.12c-.98,0-1.96,0-2.95,0,0,0,0,0,0,0s0,0,0,0c-.13,0-.26,0-.4,0h-.08s-.06,0-.1,0c-1.54.09-2.76,1.37-2.76,2.93s1.32,2.94,2.94,2.94c0,0,.01,0,.02,0,.13.02.25.03.38.03.16,0,.31-.02.46-.04.13,0,.37,0,.8,0,.41,0,.81.02,1.22.06.05,0,.23.04.34.06.11.03.27.08.32.1.17.07.34.15.5.24.08.06.15.12.23.19.09.08.2.21.24.25.12.17.23.34.34.53.08.13.12.18.13.2,0,.03.03.11.09.28.14.37.27.73.39,1.12.15.49.33,1.29.49,2.23.48,2.74.67,5.59.78,8.42.04.93.07,1.87.09,2.81,0,7.87.02,15.75.03,23.62,0,.04,0,.08,0,.12s0,.08,0,.12h0s0,0,0,0c.07,1.97,1.65,3.55,3.62,3.62,1.97-.07,3.55-1.65,3.62-3.62,0,0,0,0,0,0h0s0-.08,0-.13,0-.08,0-.12c0-7.87.02-15.75.03-23.62.02-.94.05-1.87.09-2.81.11-2.83.3-5.68.78-8.42.16-.94.34-1.73.49-2.23.12-.39.26-.75.39-1.12.06-.17.09-.24.09-.28.02-.02.06-.08.13-.2.11-.18.23-.36.34-.53.04-.05.15-.17.24-.25.07-.07.15-.13.23-.19.17-.09.33-.17.5-.24.04-.02.21-.07.32-.1.11-.02.29-.05.34-.06.41-.04.81-.05,1.22-.06.42,0,.66,0,.8,0,.15.02.3.04.46.04.13,0,.26-.01.38-.03,0,0,.01,0,.02,0,1.62,0,2.94-1.32,2.94-2.94s-1.22-2.84-2.76-2.93Z"/>
  <!-- Right A: dark strokes -->
  <path class="d" d="M345.41,81.78c-6.82,17.81-13.63,35.61-20.45,53.42-.96,2.5-1.92,5.01-2.87,7.51-1.73,4.53,5.54,6.48,7.26,2,6.82-17.81,13.63-35.61,20.45-53.42.96-2.5,1.92-5.01,2.87-7.51,1.73-4.53-5.54-6.48-7.26-2h0Z"/>
  <path class="d" d="M345.41,83.78c6.82,17.81,13.63,35.61,20.45,53.42.96,2.5,1.92,5.01,2.87,7.51,1.71,4.48,8.99,2.53,7.26-2-6.82-17.81-13.63-35.61-20.45-53.42-.96-2.5-1.92-5.01-2.87-7.51-1.71-4.48-8.99-2.53-7.26,2h0Z"/>
  <!-- Right A: golden dot -->
  <circle class="g" cx="349.04" cy="123.31" r="6.8"/>
</svg>
