<?xml version="1.0" encoding="UTF-8"?>
<svg id="_打孔" data-name="打孔" xmlns="http://www.w3.org/2000/svg" viewBox="0 0 450.49 454.24">
  <defs>
    <style>
      .cls-1 {
        fill: #f8b62d;
      }

      .cls-2 {
        fill: #dae1e9;
      }

      .cls-3 {
        fill: #003b5c;
      }

      .cls-4 {
        fill: #cfcfcf;
      }
    </style>
  </defs>
  <rect class="cls-3" x="0" width="450.49" height="454.24"/>
  <g>
    <g>
      <g>
        <path class="cls-1" d="M51.81,338.06c.33-1.02.85-1.52,1.57-1.48.45.05.82.38,1.1.99l5.07,13.88c.32.69.32,1.24-.02,1.64-.39.36-.81.41-1.26.15-.27-.25-.45-.56-.55-.94l-.77-2.18c-.16-.41-.4-.62-.71-.62h-6.06c-.33,0-.56.21-.71.62l-1.04,2.85c-.15.28-.32.44-.51.47-.28.03-.56-.11-.81-.42-.4-.51-.4-1.2-.02-2.06l4.74-12.89ZM53.5,339.75c-.15-.41-.31-.43-.47-.05l-2.6,7.21c-.15.42-.05.62.28.62h4.92c.33,0,.42-.21.27-.65-.82-2.38-1.62-4.76-2.4-7.14Z"/>
        <path class="cls-1" d="M60.8,337.77c.09-.73.46-1.12,1.1-1.19h7.3c.6-.07,1.15.03,1.67.3.26.12.51.38.75.79.44.88.67,1.8.71,2.78v1.26c-.02,1.19-.26,2.18-.75,2.97-.39.59-1.06.93-1.99.99h-6.67c-.34,0-.51.2-.51.59v6.22c-.15.78-.53,1.06-1.14.84-.27-.11-.42-.38-.47-.79v-14.77ZM70.04,338.81c-.33-.25-.75-.35-1.26-.3h-5.86c-.34,0-.51.2-.51.59v4.02c0,.41.17.62.51.62h6.28c.64-.03,1.12-.44,1.45-1.21.22-.68.23-1.62.02-2.83-.11-.36-.32-.66-.63-.89Z"/>
        <path class="cls-1" d="M78.16,338.06c.33-1.02.85-1.52,1.57-1.48.45.05.82.38,1.1.99l5.07,13.88c.32.69.32,1.24-.02,1.64-.39.36-.81.41-1.26.15-.27-.25-.45-.56-.55-.94l-.77-2.18c-.16-.41-.4-.62-.71-.62h-6.06c-.33,0-.56.21-.71.62l-1.04,2.85c-.15.28-.32.44-.51.47-.28.03-.56-.11-.81-.42-.4-.51-.4-1.2-.02-2.06l4.74-12.89ZM79.85,339.75c-.15-.41-.31-.43-.47-.05l-2.6,7.21c-.15.42-.05.62.28.62h4.92c.33,0,.42-.21.27-.65-.82-2.38-1.62-4.76-2.4-7.14Z"/>
        <path class="cls-1" d="M89.86,337.49c1.57-1.14,3.26-1.45,5.07-.92.56.16,1.1.44,1.63.82.92.7,1.59,1.64,2.01,2.83.15.38.21.71.18.99-.15.81-.51,1.17-1.08,1.09-.12-.02-.26-.1-.41-.25-.16-.2-.33-.52-.49-.96-.75-1.69-1.72-2.59-2.91-2.7-.73-.15-1.38-.1-1.94.12-.88.26-1.65.96-2.32,2.08-.87,1.62-1.23,3.35-1.08,5.18.07.74.16,1.4.28,1.98.26,1.19.8,2.14,1.63,2.85,1.07.73,2.18,1.03,3.32.92,1.38-.2,2.62-1.42,3.72-3.67.26-.3.56-.34.91-.12.11.02.23.15.35.4.16.33.21.66.14.99-.45,1.55-1.36,2.79-2.73,3.69-1.22.65-2.5.92-3.84.82-1.11-.1-2.2-.67-3.26-1.71-1.03-1.14-1.66-2.5-1.89-4.09-.37-2.18-.26-4.35.33-6.52.47-1.55,1.26-2.83,2.36-3.82Z"/>
        <path class="cls-1" d="M115.09,338.06c.33-1.02.85-1.52,1.57-1.48.45.05.82.38,1.1.99l5.07,13.88c.32.69.32,1.24-.02,1.64-.39.36-.81.41-1.26.15-.27-.25-.45-.56-.55-.94l-.77-2.18c-.16-.41-.4-.62-.71-.62h-6.06c-.33,0-.56.21-.71.62l-1.04,2.85c-.15.28-.32.44-.51.47-.28.03-.56-.11-.81-.42-.4-.51-.4-1.2-.02-2.06l4.74-12.89ZM116.78,339.75c-.15-.41-.31-.43-.47-.05l-2.6,7.21c-.15.42-.05.62.28.62h4.92c.33,0,.42-.21.27-.65-.82-2.38-1.62-4.76-2.4-7.14Z"/>
        <path class="cls-1" d="M124.65,341.04c.26-.12.53-.06.81.17.16.18.24.41.24.67v6.27c.05.73.18,1.39.38,1.99.41.92,1.01,1.43,1.79,1.51.84.07,1.64-.22,2.38-.84.98-.73,1.52-1.67,1.65-2.83v-6.1c.01-.22.09-.42.24-.62.31-.33.63-.37.96-.12.23.17.36.42.38.77v10.63c-.05.51-.29.81-.71.89-.49.05-.78-.26-.87-.94v-.92c0-.41-.16-.42-.47-.02-1.12,1.44-2.59,2.06-4.39,1.86-.59-.08-1.14-.26-1.62-.54-.79-.63-1.22-1.51-1.3-2.65v-8.33c.04-.42.21-.7.53-.84Z"/>
        <path class="cls-1" d="M137.53,337.47c.27-.11.54-.07.82.15.15.15.24.35.26.62v2.21c0,.41.17.62.51.62h2.36c.19.02.36.12.51.32.24.35.26.76.04,1.24-.17.21-.37.34-.57.37h-2.34c-.34,0-.51.2-.51.59v5.82c.03.33.07.66.12.99.03.38.2.68.53.92.77.51,1.58.32,2.42-.57.46-.61.86-.6,1.2.02.16.31.18.65.06.99-.11.38-.33.66-.65.84-1.3.88-2.52,1.06-3.66.55-.54-.25-.95-.62-1.22-1.12-.23-.56-.36-1.22-.39-1.99v-6.47c0-.4-.16-.59-.49-.59h-1.12c-.54-.17-.77-.56-.69-1.19.07-.31.21-.53.43-.65.17-.07.46-.1.85-.1h.53c.32,0,.49-.21.49-.62v-2.18c.04-.38.21-.64.51-.79Z"/>
        <path class="cls-1" d="M144.18,337.47c.14-.71.49-1,1.06-.87.31.07.5.37.55.89v4.81c0,.43.17.45.51.07,1-1.02,2.09-1.5,3.28-1.41.59.07,1.14.21,1.62.45,1.12.54,1.73,1.34,1.85,2.4.08.43.09.99.04,1.69v7.04c-.12.65-.44.92-.96.84-.39-.13-.61-.41-.65-.84v-7.38c-.02-.26-.1-.59-.26-.99-.41-.71-.95-1.13-1.63-1.26-.82-.21-1.64.03-2.48.75-.69.59-1.08,1.26-1.18,1.98-.05.26-.1.63-.14,1.09v5.77c-.05.55-.29.85-.69.92-.48.07-.78-.22-.92-.87v-15.07Z"/>
        <path class="cls-1" d="M157.12,341.68c1.05-.66,2.13-.94,3.26-.84.95.13,1.76.49,2.44,1.06.63.51,1.08,1.12,1.36,1.83.44,1.06.64,2.2.61,3.42-.04.42-.19.66-.47.75h-7.41c-.33,0-.48.21-.47.62.03.74.21,1.4.55,1.96.58.86,1.37,1.32,2.36,1.39,1.02,0,1.73-.1,2.12-.3.75-.33,1.41-1.06,1.99-2.2.27-.41.54-.52.79-.32.3.21.42.53.37.94-.05.45-.27.94-.65,1.49-.46.68-1,1.16-1.61,1.44-1.49.74-3.04.86-4.64.35-1.73-.69-2.72-2.11-2.97-4.24-.19-1.55-.05-3.06.43-4.51.35-1.12,1-2.07,1.93-2.83ZM160.07,342.75c-.95-.13-1.83.18-2.63.94-.5.56-.8,1.16-.89,1.79-.03.41.13.62.47.62h5.37c.33,0,.51-.02.55-.07.14-.18.14-.49,0-.92-.1-.66-.53-1.26-1.3-1.81-.5-.31-1.03-.49-1.57-.54Z"/>
        <path class="cls-1" d="M168.35,342.97c1.76-1.9,3.58-2.43,5.45-1.59.61.25,1.07.78,1.38,1.59.31.91.49,1.9.55,2.98v6.52c-.04.51-.28.84-.71.97-.44.05-.73-.24-.9-.87v-6.69c-.03-.75-.21-1.41-.55-2.01-.23-.35-.53-.59-.89-.74-.95-.33-1.83-.28-2.65.15-1.37.74-2.1,1.92-2.2,3.54v5.67c-.05.55-.29.85-.69.92-.48.07-.78-.22-.92-.87v-10.46c.03-.31.14-.56.33-.72.39-.28.77-.23,1.12.17.17.31.23.77.16,1.36,0,.43.17.45.51.07Z"/>
        <path class="cls-1" d="M179.68,337.47c.27-.11.54-.07.82.15.15.15.24.35.26.62v2.21c0,.41.17.62.51.62h2.36c.19.02.36.12.51.32.24.35.26.76.04,1.24-.17.21-.37.34-.57.37h-2.34c-.34,0-.51.2-.51.59v5.82c.03.33.07.66.12.99.03.38.2.68.53.92.77.51,1.58.32,2.42-.57.46-.61.86-.6,1.2.02.16.31.18.65.06.99-.11.38-.33.66-.65.84-1.3.88-2.52,1.06-3.66.55-.54-.25-.95-.62-1.22-1.12-.23-.56-.36-1.22-.39-1.99v-6.47c0-.4-.16-.59-.49-.59h-1.12c-.54-.17-.77-.56-.69-1.19.07-.31.21-.53.43-.65.17-.07.46-.1.85-.1h.53c.32,0,.49-.21.49-.62v-2.18c.04-.38.21-.64.51-.79Z"/>
        <path class="cls-1" d="M187.63,336.6c.42-.02.74.17.96.57.24.66.17,1.26-.22,1.81-.35.27-.77.31-1.26.12-.35-.26-.54-.64-.55-1.14-.02-.84.35-1.3,1.08-1.36ZM187.47,341.56c.49-.03.79.26.92.89v10.06c-.04.49-.28.8-.73.92-.53.07-.84-.23-.93-.89v-10.11c.09-.53.35-.82.75-.87Z"/>
        <path class="cls-1" d="M193.23,341.48c1.48-.76,2.81-.9,3.99-.42.92.33,1.76,1.03,2.52,2.08.53.71.7,1.37.51,1.98-.16.43-.39.7-.67.82-.3.16-.6.04-.91-.37-.12-.28-.26-.56-.41-.84-.64-1.22-1.4-1.85-2.3-1.88-.69-.05-1.34.12-1.95.52-.33.2-.6.43-.82.7-.73,1.06-1.06,2.21-.98,3.44.03.71.16,1.37.41,1.99.32.81.78,1.36,1.38,1.66.59.35,1.25.51,1.97.5,1.03-.09,1.92-.87,2.66-2.35.23-.73.55-1.1.96-1.12.41.07.69.35.85.84.14.48.04.98-.28,1.51-.95,1.64-1.97,2.58-3.05,2.83-1.32.33-2.52.26-3.6-.2-.89-.3-1.65-1.02-2.26-2.16-.96-2.13-1.08-4.26-.37-6.4.17-.49.41-.99.71-1.48.59-.84,1.14-1.39,1.63-1.64Z"/>
        <path class="cls-1" d="M212.72,337.44c.1-.66.45-.94,1.04-.84.37.08.58.38.63.89v14.99c-.04.5-.28.8-.73.92-.53.07-.84-.23-.93-.89v-15.07Z"/>
        <path class="cls-1" d="M218.72,342.97c1.76-1.9,3.58-2.43,5.45-1.59.61.25,1.07.78,1.38,1.59.31.91.49,1.9.55,2.98v6.52c-.04.51-.28.84-.71.97-.44.05-.73-.24-.9-.87v-6.69c-.03-.75-.21-1.41-.55-2.01-.23-.35-.53-.59-.89-.74-.95-.33-1.83-.28-2.65.15-1.37.74-2.1,1.92-2.2,3.54v5.67c-.05.55-.29.85-.69.92-.48.07-.78-.22-.92-.87v-10.46c.03-.31.14-.56.33-.72.39-.28.77-.23,1.12.17.17.31.23.77.16,1.36,0,.43.17.45.51.07Z"/>
        <path class="cls-1" d="M230.44,341.48c1.48-.76,2.81-.9,3.99-.42.92.33,1.76,1.03,2.52,2.08.53.71.7,1.37.51,1.98-.16.43-.39.7-.67.82-.3.16-.6.04-.91-.37-.12-.28-.26-.56-.41-.84-.64-1.22-1.4-1.85-2.3-1.88-.69-.05-1.34.12-1.95.52-.33.2-.6.43-.82.7-.73,1.06-1.06,2.21-.98,3.44.03.71.16,1.37.41,1.99.32.81.78,1.36,1.38,1.66.59.35,1.25.51,1.97.5,1.03-.09,1.92-.87,2.66-2.35.23-.73.55-1.1.96-1.12.41.07.69.35.85.84.14.48.04.98-.28,1.51-.95,1.64-1.97,2.58-3.05,2.83-1.32.33-2.52.26-3.6-.2-.89-.3-1.65-1.02-2.26-2.16-.96-2.13-1.08-4.26-.37-6.4.17-.49.41-.99.71-1.48.59-.84,1.14-1.39,1.63-1.64Z"/>
        <path class="cls-1" d="M240.18,336.6c.56-.15.9.15,1.04.89v14.99c-.15.8-.52,1.08-1.12.87-.32-.15-.51-.45-.57-.89v-14.92c.03-.5.24-.81.65-.94Z"/>
        <path class="cls-1" d="M244.01,341.04c.26-.12.53-.06.81.17.16.18.24.41.24.67v6.27c.05.73.18,1.39.38,1.99.41.92,1.01,1.43,1.79,1.51.84.07,1.64-.22,2.38-.84.98-.73,1.52-1.67,1.65-2.83v-6.1c.01-.22.09-.42.24-.62.31-.33.63-.37.96-.12.23.17.36.42.38.77v10.63c-.05.51-.29.81-.71.89-.49.05-.78-.26-.87-.94v-.92c0-.41-.16-.42-.47-.02-1.12,1.44-2.59,2.06-4.39,1.86-.59-.08-1.14-.26-1.62-.54-.79-.63-1.22-1.51-1.3-2.65v-8.33c.04-.42.21-.7.53-.84Z"/>
        <path class="cls-1" d="M258.32,340.81c1.34-.13,2.57.27,3.68,1.19.77.69,1.14,1.31,1.1,1.83-.01.44-.14.76-.38.94-.49.33-.96.07-1.41-.79-.51-.71-1.09-1.13-1.73-1.26-.88-.18-1.6-.17-2.16.05-.28.09-.56.29-.81.62-.49.71-.42,1.38.2,2.01.14.13.27.21.41.23,1.46.28,2.82.6,4.07.97.61.16,1.13.59,1.57,1.29.41.75.55,1.54.43,2.38-.04.76-.24,1.42-.61,1.99-.54.65-1.21,1.02-2.01,1.14-1.57.31-2.92.21-4.03-.3-.92-.5-1.63-1.33-2.14-2.51-.15-.36-.21-.67-.18-.92.21-.77.59-1.07,1.16-.89.23.1.4.3.53.59.26.78.66,1.44,1.22,1.98,1.21.76,2.4.87,3.58.32.65-.33,1.01-.81,1.06-1.44.19-.76-.05-1.36-.71-1.81-.76-.36-1.57-.6-2.44-.71-.94-.09-1.75-.29-2.44-.62-1.34-.68-1.84-1.84-1.48-3.49.35-1.17,1.02-1.95,1.99-2.33.5-.23,1.02-.38,1.55-.45Z"/>
        <path class="cls-1" d="M265.92,336.6c.42-.02.74.17.96.57.24.66.17,1.26-.22,1.81-.35.27-.77.31-1.26.12-.35-.26-.54-.64-.55-1.14-.02-.84.35-1.3,1.08-1.36ZM265.76,341.56c.49-.03.79.26.92.89v10.06c-.04.49-.28.8-.73.92-.53.07-.84-.23-.93-.89v-10.11c.09-.53.35-.82.75-.87Z"/>
        <path class="cls-1" d="M272.58,340.89c.66-.17,1.42-.09,2.28.22.27.1.54.23.82.4.65.4,1.18,1,1.59,1.81.52,1.12.77,2.52.77,4.19-.03.61-.11,1.27-.24,1.99-.62,2.49-1.95,3.85-3.97,4.06-1.36.13-2.54-.27-3.56-1.22-.38-.36-.66-.72-.84-1.06-.58-1.32-.89-2.63-.91-3.92.01-1.55.32-2.96.91-4.21.46-.79.97-1.35,1.53-1.66.47-.28,1.02-.48,1.63-.59ZM273.7,342.9c-.52-.07-1.05.03-1.61.27-.62.28-1.12.78-1.48,1.51-.64,1.79-.6,3.51.1,5.18.38.73.91,1.22,1.59,1.46.83.31,1.67.21,2.52-.32.61-.5,1.02-1.12,1.22-1.86.38-1.29.39-2.58.04-3.87-.37-1.34-1.16-2.13-2.38-2.38Z"/>
        <path class="cls-1" d="M281.53,342.97c1.76-1.9,3.58-2.43,5.45-1.59.61.25,1.07.78,1.38,1.59.31.91.49,1.9.55,2.98v6.52c-.04.51-.28.84-.71.97-.44.05-.73-.24-.9-.87v-6.69c-.03-.75-.21-1.41-.55-2.01-.23-.35-.53-.59-.89-.74-.95-.33-1.83-.28-2.65.15-1.37.74-2.1,1.92-2.2,3.54v5.67c-.05.55-.29.85-.69.92-.48.07-.78-.22-.92-.87v-10.46c.03-.31.14-.56.33-.72.39-.28.77-.23,1.12.17.17.31.23.77.16,1.36,0,.43.17.45.51.07Z"/>
        <path class="cls-1" d="M305.43,338.06c.33-1.02.85-1.52,1.57-1.48.45.05.82.38,1.1.99l5.07,13.88c.32.69.32,1.24-.02,1.64-.39.36-.81.41-1.26.15-.27-.25-.45-.56-.55-.94l-.77-2.18c-.16-.41-.4-.62-.71-.62h-6.06c-.33,0-.56.21-.71.62l-1.04,2.85c-.15.28-.32.44-.51.47-.28.03-.56-.11-.81-.42-.4-.51-.4-1.2-.02-2.06l4.74-12.89ZM307.12,339.75c-.15-.41-.31-.43-.47-.05l-2.6,7.21c-.15.42-.05.62.28.62h4.92c.33,0,.42-.21.27-.65-.82-2.38-1.62-4.76-2.4-7.14Z"/>
        <path class="cls-1" d="M318.11,340.81c1.34-.13,2.57.27,3.68,1.19.77.69,1.14,1.31,1.1,1.83-.01.44-.14.76-.38.94-.49.33-.96.07-1.41-.79-.51-.71-1.09-1.13-1.73-1.26-.88-.18-1.6-.17-2.16.05-.28.09-.56.29-.81.62-.49.71-.42,1.38.2,2.01.14.13.27.21.41.23,1.46.28,2.82.6,4.07.97.61.16,1.13.59,1.57,1.29.41.75.55,1.54.43,2.38-.04.76-.24,1.42-.61,1.99-.54.65-1.21,1.02-2.01,1.14-1.57.31-2.92.21-4.03-.3-.92-.5-1.63-1.33-2.14-2.51-.15-.36-.21-.67-.18-.92.21-.77.59-1.07,1.16-.89.23.1.4.3.53.59.26.78.66,1.44,1.22,1.98,1.21.76,2.4.87,3.58.32.65-.33,1.01-.81,1.06-1.44.19-.76-.05-1.36-.71-1.81-.76-.36-1.57-.6-2.44-.71-.94-.09-1.75-.29-2.44-.62-1.34-.68-1.84-1.84-1.48-3.49.35-1.17,1.02-1.95,1.99-2.33.5-.23,1.02-.38,1.55-.45Z"/>
        <path class="cls-1" d="M328.1,340.81c1.34-.13,2.57.27,3.68,1.19.77.69,1.14,1.31,1.1,1.83-.01.44-.14.76-.38.94-.49.33-.96.07-1.41-.79-.51-.71-1.09-1.13-1.73-1.26-.88-.18-1.6-.17-2.16.05-.28.09-.56.29-.81.62-.49.71-.42,1.38.2,2.01.14.13.27.21.41.23,1.46.28,2.82.6,4.07.97.61.16,1.13.59,1.57,1.29.41.75.55,1.54.43,2.38-.04.76-.24,1.42-.61,1.99-.54.65-1.21,1.02-2.01,1.14-1.57.31-2.92.21-4.03-.3-.92-.5-1.63-1.33-2.14-2.51-.15-.36-.21-.67-.18-.92.21-.77.59-1.07,1.16-.89.23.1.4.3.53.59.26.78.66,1.44,1.22,1.98,1.21.76,2.4.87,3.58.32.65-.33,1.01-.81,1.06-1.44.19-.76-.05-1.36-.71-1.81-.76-.36-1.57-.6-2.44-.71-.94-.09-1.75-.29-2.44-.62-1.34-.68-1.84-1.84-1.48-3.49.35-1.17,1.02-1.95,1.99-2.33.5-.23,1.02-.38,1.55-.45Z"/>
        <path class="cls-1" d="M338.1,340.89c.66-.17,1.42-.09,2.28.22.27.1.54.23.82.4.65.4,1.18,1,1.59,1.81.52,1.12.77,2.52.77,4.19-.03.61-.11,1.27-.24,1.99-.62,2.49-1.95,3.85-3.97,4.06-1.36.13-2.54-.27-3.56-1.22-.38-.36-.66-.72-.84-1.06-.58-1.32-.89-2.63-.91-3.92.01-1.55.32-2.96.91-4.21.46-.79.97-1.35,1.53-1.66.47-.28,1.02-.48,1.63-.59ZM339.22,342.9c-.52-.07-1.05.03-1.61.27-.62.28-1.12.78-1.48,1.51-.64,1.79-.6,3.51.1,5.18.38.73.91,1.22,1.59,1.46.83.31,1.67.21,2.52-.32.61-.5,1.02-1.12,1.22-1.86.38-1.29.39-2.58.04-3.87-.37-1.34-1.16-2.13-2.38-2.38Z"/>
        <path class="cls-1" d="M347.59,341.48c1.48-.76,2.81-.9,3.99-.42.92.33,1.76,1.03,2.52,2.08.53.71.7,1.37.51,1.98-.16.43-.39.7-.67.82-.3.16-.6.04-.91-.37-.12-.28-.26-.56-.41-.84-.64-1.22-1.4-1.85-2.3-1.88-.69-.05-1.34.12-1.95.52-.33.2-.6.43-.82.7-.73,1.06-1.06,2.21-.98,3.44.03.71.16,1.37.41,1.99.32.81.78,1.36,1.38,1.66.59.35,1.25.51,1.97.5,1.03-.09,1.92-.87,2.66-2.35.23-.73.55-1.1.96-1.12.41.07.69.35.85.84.14.48.04.98-.28,1.51-.95,1.64-1.97,2.58-3.05,2.83-1.32.33-2.52.26-3.6-.2-.89-.3-1.65-1.02-2.26-2.16-.96-2.13-1.08-4.26-.37-6.4.17-.49.41-.99.71-1.48.59-.84,1.14-1.39,1.63-1.64Z"/>
        <path class="cls-1" d="M357.58,336.6c.42-.02.74.17.96.57.24.66.17,1.26-.22,1.81-.35.27-.77.31-1.26.12-.35-.26-.54-.64-.55-1.14-.02-.84.35-1.3,1.08-1.36ZM357.41,341.56c.49-.03.79.26.92.89v10.06c-.04.49-.28.8-.73.92-.53.07-.84-.23-.93-.89v-10.11c.09-.53.35-.82.75-.87Z"/>
        <path class="cls-1" d="M362.15,341.95c.83-.63,1.77-1,2.83-1.12h1.1c.88.05,1.7.31,2.44.79.32.18.58.45.75.79.27.58.43,1.31.47,2.18v4.88c.11,1.31.26,2.25.45,2.85.08.63-.19.98-.81,1.04-.53-.02-.82-.35-.88-.99l-.04-.54c-.03-.42-.2-.42-.53-.03-.5.63-1.04,1.08-1.61,1.34-.56.23-1.1.36-1.65.4-.73.05-1.46-.06-2.18-.32-1.53-.58-2.25-1.89-2.16-3.94.08-1.01.48-1.78,1.2-2.3,1.45-.58,3.08-.94,4.88-1.07.27-.02.54-.09.82-.22.69-.33.95-.91.77-1.74-.08-.33-.29-.63-.63-.89-.62-.4-1.28-.56-1.97-.47-.98.11-1.79.61-2.44,1.48-.26.4-.52.65-.79.75-.33.13-.63.09-.91-.12-.31-.26-.42-.58-.33-.94.2-.68.61-1.28,1.22-1.81ZM368.13,347.31c0-.41-.16-.48-.49-.2-.22.17-.45.25-.71.25-1.36.23-2.71.47-4.07.72-.28.03-.54.24-.75.62-.31.59-.33,1.24-.06,1.93.34.61.86,1,1.57,1.17.83.15,1.58.1,2.26-.15.61-.2,1.13-.53,1.55-.99.26-.3.45-.57.59-.82.08-.16.12-.45.12-.84v-1.69Z"/>
        <path class="cls-1" d="M373.79,337.47c.27-.11.54-.07.82.15.15.15.24.35.26.62v2.21c0,.41.17.62.51.62h2.36c.19.02.36.12.51.32.24.35.26.76.04,1.24-.17.21-.37.34-.57.37h-2.34c-.34,0-.51.2-.51.59v5.82c.03.33.07.66.12.99.03.38.2.68.53.92.77.51,1.58.32,2.42-.57.46-.61.86-.6,1.2.02.16.31.18.65.06.99-.11.38-.33.66-.65.84-1.3.88-2.52,1.06-3.66.55-.54-.25-.95-.62-1.22-1.12-.23-.56-.36-1.22-.39-1.99v-6.47c0-.4-.16-.59-.49-.59h-1.12c-.54-.17-.77-.56-.69-1.19.07-.31.21-.53.43-.65.17-.07.46-.1.85-.1h.53c.32,0,.49-.21.49-.62v-2.18c.04-.38.21-.64.51-.79Z"/>
        <path class="cls-1" d="M381.74,336.6c.42-.02.74.17.96.57.24.66.17,1.26-.22,1.81-.35.27-.77.31-1.26.12-.35-.26-.54-.64-.55-1.14-.02-.84.35-1.3,1.08-1.36ZM381.58,341.56c.49-.03.79.26.92.89v10.06c-.04.49-.28.8-.73.92-.53.07-.84-.23-.93-.89v-10.11c.09-.53.35-.82.75-.87Z"/>
        <path class="cls-1" d="M388.4,340.89c.66-.17,1.42-.09,2.28.22.27.1.54.23.82.4.65.4,1.18,1,1.59,1.81.52,1.12.77,2.52.77,4.19-.03.61-.11,1.27-.24,1.99-.62,2.49-1.95,3.85-3.97,4.06-1.36.13-2.54-.27-3.56-1.22-.38-.36-.66-.72-.84-1.06-.58-1.32-.89-2.63-.91-3.92.01-1.55.32-2.96.91-4.21.46-.79.97-1.35,1.53-1.66.47-.28,1.02-.48,1.63-.59ZM389.52,342.9c-.52-.07-1.05.03-1.61.27-.62.28-1.12.78-1.48,1.51-.64,1.79-.6,3.51.1,5.18.38.73.91,1.22,1.59,1.46.83.31,1.67.21,2.52-.32.61-.5,1.02-1.12,1.22-1.86.38-1.29.39-2.58.04-3.87-.37-1.34-1.16-2.13-2.38-2.38Z"/>
        <path class="cls-1" d="M397.35,342.97c1.76-1.9,3.58-2.43,5.45-1.59.61.25,1.07.78,1.38,1.59.31.91.49,1.9.55,2.98v6.52c-.04.51-.28.84-.71.97-.44.05-.73-.24-.9-.87v-6.69c-.03-.75-.21-1.41-.55-2.01-.23-.35-.53-.59-.89-.74-.95-.33-1.83-.28-2.65.15-1.37.74-2.1,1.92-2.2,3.54v5.67c-.05.55-.29.85-.69.92-.48.07-.78-.22-.92-.87v-10.46c.03-.31.14-.56.33-.72.39-.28.77-.23,1.12.17.17.31.23.77.16,1.36,0,.43.17.45.51.07Z"/>
      </g>
      <g>
        <path class="cls-2" d="M81.11,321.69l-9.69-.02c-.11,0-.16,0-.17-.01,0-.02-.02-.08-.02-.18v-4.5c0-.7.07-.93.07-.93,0,0,0,0,0,0,.12-.23.25-.3.41-.32h6.18l.2-.03c1.88-.5,2.41-1.72,2.53-2.65v-10.28s0-.11,0-.11c-.1-.7-.44-1.38-1.05-2.05-.54-.53-1.21-.87-1.99-1h-6c-.16-.05-.23-.11-.27-.16-.03-.11-.08-.39-.08-.99v-3.41c0-.08,0-.12,0-.13.03,0,.08-.02.19-.02h8.33c.63-.13,1.14-.47,1.44-.96.39-.56.43-1.26.13-2.09l-.08-.16c-.55-.85-1.24-1.02-1.72-1.02h-32.11l-.18.02c-.71.17-1.21.5-1.5,1-.29.5-.33,1.11-.13,1.82l.03.09c.32.75.89,1.21,1.61,1.3h8.9c.08,0,.13.02.14.01,0,.02.01.07.01.15v4.24c-.17.55-.44.57-.55.58h-5.99l-.23.03c-1.56.48-2.52,1.5-2.77,2.96v9.73s0,.1,0,.1c.2,1.58,1.17,2.57,2.79,2.86h6.13c.63.23.63.47.63.56v5.37c0,.11-.01.17-.01.18-.02,0-.07.02-.15.02h-9.56c-.81.04-1.43.53-1.75,1.37l-.03.09c-.33,1.34.23,2.37,1.52,2.74l34.77.03h.05c.49-.07,1.15-.33,1.59-1.32.24-.73.22-1.35-.07-1.87-.29-.51-.81-.86-1.56-1.02ZM60.55,300.65l.02-5.61c0-.08,0-.12,0-.13.03,0,.08-.02.19-.02h6.03c.08,0,.12,0,.13,0,0,.03.02.08.02.19v5.64l.03.21c.6,2.22,1.96,2.79,3.07,2.89h5.14c.55-.07.82,0,.94.06.14.13.22.25.22.33v6.74c-.09.4-.25.48-.44.51h-6.23c-.98.13-2.24.66-2.7,2.51l-.02,7.51c0,.11-.01.17-.01.18-.02,0-.07.02-.15.02h-6.03c-.1,0-.15-.01-.17-.01,0,0,0,0,0,0,0-.02-.02-.08-.02-.18v-6.9c-.33-1.92-1.47-3.05-3.31-3.27h-4.87c-.58,0-.88-.07-1.02-.12-.24-.15-.31-.3-.35-.43v-6.03c.19-.57.41-.58.47-.59h5.5c1.33-.16,3.02-.89,3.57-3.48Z"/>
        <path class="cls-2" d="M114.03,322.38c-1.08-1.87-2.51-4-4.24-6.34l-.09-.1c-.93-.88-1.72-.8-2.22-.58l-.08.04c-.71.41-1.14.93-1.28,1.53-.13.57.02,1.16.48,1.81,1.7,2,3.19,4.32,4.44,6.88l.05.09c.59.89,1.26,1.14,1.82,1.14.31,0,.59-.07.81-.16,1.1-.53,1.27-1.33,1.27-1.77v-.14c-.16-.83-.49-1.65-.97-2.41Z"/>
        <path class="cls-2" d="M127.99,322.19c-3.82-2.47-7.16-5.52-9.9-9.05-2.51-3.4-4.42-7.47-5.66-12.05,0,0,0,0,0-.01h13.5c1.23,0,1.48-.06,1.68-.14,1.4-.61,1.91-1.76,1.33-3.11-.23-.45-.7-1.02-1.68-1.17h-15.08c-.08,0-.13-.01-.15-.01,0-.03-.01-.08,0-.16v-.04s0-.04,0-.04c-.02-.35,0-.71.07-1.06v-4.37s0-.18,0-.18c-.28-1.23-1.05-1.66-1.64-1.8-.62-.14-2.12-.26-2.73,1.79l-.03.11v5.02s-.04.47-.04.47c0,.17-.04.24-.04.24-.01,0-.06.02-.16.02h-13.67c-.92,0-1.53.08-1.93.27l-.18.11c-.89.75-.98,1.61-.9,2.19l.02.08c.36,1.43,1.32,1.72,1.94,1.77h14.43s0,.05,0,.07c-.36,2.28-1.01,4.65-1.94,7.02-.94,2.18-2.13,4.23-3.53,6.08-2.96,3.62-6.29,6.32-9.85,8-1.11.48-1.62,1.43-1.39,2.62.3,1.32,1.22,1.97,2.5,1.72.62-.17,1.2-.39,1.69-.63,1.3-.6,2.41-1.25,3.29-1.94,3.34-2.62,6.07-5.5,8.13-8.57,1.84-2.86,3.2-5.67,4.06-8.36,1.34,3.34,3.23,6.63,5.64,9.8,3.08,3.76,6.04,6.72,8.75,8.75.89.76,1.69,1.13,2.47,1.13h.14c.64-.12,1.18-.46,1.65-1.05.87-1.27.62-2.55-.73-3.53Z"/>
        <path class="cls-2" d="M174.66,317.48c-.15-1.34-.99-2.11-2.31-2.11-1.16,0-1.96.73-2.22,2l-.02.08v2.11c-.02.44-.07.87-.14,1.28v.07c-.05.07-.2.25-.63.56-.44.25-.85.39-1.28.41-1.37.18-3.22.29-5.46.35h-4.57c-3.7-.08-7.24-.26-10.52-.55-.36-.03-.65-.2-.93-.54-.16-.35-.26-.75-.28-1.15v-6.7c0-.08,0-.12,0-.13.03,0,.08-.02.19-.02h12.29c.87-.03,1.67-.32,2.37-.87l.1-.09c.63-.69,1.01-1.55,1.14-2.55v-6.83s0-.1,0-.1c-.14-1.06-.75-2.44-2.89-3.01l-.1-.03h-14.53c.69-1.01,1.23-1.85,1.6-2.52.25-.47.53-.53.76-.53h19.23c.37,0,.71.07.83.86.07.49.12.99.15,1.45v3.39c-.05,3.03-.26,5.68-.62,7.92-.12,1.07-.4,2.04-.78,2.8-.45.71-.79.91-1.01.99-1.21.5-2.61.52-4.21.04-1.01-.25-1.81-.16-2.38.27-.54.4-.83,1.06-.86,1.95v.11s.02.1.02.1c.22.94.91,2.08,2.89,2.2,2.47.33,4.63.14,6.43-.56,1.31-.54,2.33-1.45,3.01-2.7l.04-.09c.44-1.12.79-2.49,1.06-4.06.47-2.69.74-6.49.8-11.3v-4.43l-.02-.16c-.39-1.84-1.55-2.88-3.43-3.01h-19.81c.46-1.1.17-1.87-.15-2.33l-.09-.1c-.96-.96-1.93-.91-2.56-.7l-.16.08c-.47.29-.81.66-1.01,1.09l-.03.08c-.53,1.64-1.18,3.18-1.95,4.59-1.17,2.32-2.83,4.37-4.89,6.06-.7.51-1.08,1.09-1.12,1.73-.04.65.27,1.28.98,1.92.57.43,1.74.94,3.19-.51.36-.32.71-.64,1.08-.99v18.52c.15,2.13,1.32,3.64,3.38,4.37l.08.02c2.19.51,5.35.78,9.42.8h5.48c.22,0,.44,0,.65,0,3.38,0,6.34-.19,8.76-.56.56-.06,1.18-.26,1.84-.59,1.5-.78,2.46-1.89,2.86-3.31.23-.86.33-2.49.3-4.99v-.08ZM146.3,305.52c-.1-.83.17-1.25.97-1.47h10.09c.2.02.41.09.58.46.03.12.07.41.07,1.07v2.22c-.16.46-.4.95-.74.95h-10.77c-.1,0-.15-.01-.17-.01h0s-.02-.08-.02-.18v-3.03Z"/>
        <path class="cls-2" d="M185.67,302.03l.09.02c1.3.15,2.2-.5,2.39-1.75v-2.98c0-.67.06-.86.04-.82.04-.07.11-.19.27-.34.23-.11.54-.15.92-.1h7.08c-.5.07-1.07.34-1.69.97-1.99,1.87-4.03,3.34-6.04,4.37-.93.48-1.95.91-3.03,1.29l-.19.1c-.81.57-1.01,1.23-1.04,1.69v.07s0,.07,0,.07c.14,1.24.89,1.96,2.02,1.96.08,0,.17,0,.26-.01.47-.03,1.03-.21,1.69-.53,3.26-1.34,6.52-3.54,9.68-6.54l.07-.08c.66-.82.7-1.76.11-2.59l-.09-.11c-.24-.23-.69-.57-1.27-.65h18.41c.16-.03.28-.03.38-.03.22,0,.3.04.3.03l.09.08.13.05s.02.01.05.05c.17.34.17.95.01,1.67l-.47,1.58c-.11.39-.1.77.02,1.1-2.15-1.45-4.43-2.78-6.77-3.96-.69-.41-1.33-.53-1.92-.37-.57.16-1.03.57-1.37,1.22l-.03.07c-.47,1.15-.04,2.16,1.21,2.81,2.48,1.18,5.34,2.93,8.44,5.17.72.61,1.44.89,2.16.81l.11-.02c.93-.23,1.51-.89,1.64-1.87.11-.45.06-1.13-.69-1.88l-.08-.07c-.24-.18-.49-.37-.74-.55.3,0,.6-.05.91-.17l.12-.06c.49-.3.88-.83,1.23-1.67.34-.98.53-2.11.59-3.3.18-1.57-.19-2.93-1.12-4.04l-.12-.11c-.48-.38-1.07-.6-1.74-.67h-13.28s-.08,0-.09,0c-.01-.03-.03-.1-.03-.23,0-.5-.06-1.02-.18-1.54l-.03-.13-.07-.11c-.21-.35-.46-.63-.75-.85l-.14-.08c-.58-.27-1.21-.29-1.87-.07h-.03c-.9.35-1.1.93-1.13,1.3-.11.47-.17.97-.2,1.52,0,.11-.01.17-.01.18-.02,0-.07.02-.15.02h-12.61l-.2.03c-1.97.52-2.63,1.81-2.84,2.79l-.02,5.33v.12c.16.97.72,1.61,1.58,1.81Z"/>
        <path class="cls-2" d="M220.16,310.44l-.19-.11c-.79-.32-1.58-.62-2.35-.9-4.76-1.89-8.91-4.27-12.3-7.03-.72-.63-1.26-1.07-1.66-1.33l-.14-.07c-1.28-.49-2.54-.27-3.64.64h0c-1.86,1.59-3.93,3.05-6.16,4.36-2.84,1.69-5.96,3.17-9.29,4.41-.36.14-.64.32-.85.53-.39.38-.92,1.24-.16,2.72.62,1.05,1.65,1.36,2.78.89.79-.28,1.58-.6,2.37-.95-.05.14-.1.28-.14.44l-.03,9.84v.15c.35,1.78,1.49,2.38,2.38,2.58l22.39.02.09-.02c1.47-.36,2.4-1.3,2.7-2.72l.02-9.68v-.13c-.04-.18-.09-.35-.14-.51,1.88.89,3.2,1.16,4.14.84l.13-.04.11-.08c.35-.27.6-.63.73-1.05.45-1.04.18-2.05-.77-2.77ZM211.73,321.81c-.05.27-.13.45-.23.53-.11.08-.25.15-.42.2h-17.01c-.47,0-.84-.06-1.04-.14-.35-.19-.36-.34-.36-.36v-5.66c.12-.41.33-.53.63-.57h17.78c.45.14.67.32.66.55v5.46ZM192.38,311.73c2.6-1.42,4.98-2.92,7.07-4.47.74-.58,1.3-1.06,1.7-1.46.23-.21.5-.4.88-.4.29,0,.63.11,1.06.4.49.48,1.03.94,1.6,1.36,2.27,1.68,4.76,3.22,7.41,4.58h-19.72Z"/>
        <path class="cls-2" d="M249.08,315.1h-10.46c-1.09,0-1.45.05-1.64.1l-.17.07c-.8.42-1.32,1.09-1.5,1.95l-.02,6.23v.09c.1.88.56,2.03,2.21,2.51l11.51.03.09-.02c1.31-.3,2.18-1.21,2.51-2.62l.02-6.01-.02-.18c-.28-1.24-1.18-1.99-2.52-2.13ZM239.2,320.22c-.14-.9.16-1.11.54-1.21h6.6c.57,0,.87.07,1.02.12.3.2.31.36.31.39v1.25c0,.58-.05.88-.09,1.02-.17.22-.32.29-.44.31h-7.38c-.1,0-.3-.01-.48-.42-.02-.07-.1-.36-.07-1.31v-.07s0-.07,0-.07Z"/>
        <path class="cls-2" d="M264.18,289.15l-.11-.03c-.68-.16-1.27-.1-1.75.2-.5.31-.83.83-1,1.56l-.02.09v30.77c-.03.4-.21.65-.61.84-.01,0-.25.08-1.09-.06-.69-.13-1.72-.37-3.08-.73l-.08-.02c-1.24-.2-2.14.41-2.48,1.67l-.02.12c-.07.63,0,2.13,2.09,2.57,1.3.38,2.94.63,4.84.73.15.01.29.02.44.02,1.44,0,2.67-.73,3.69-2.21.38-.67.57-1.32.57-1.96v-31.62c-.15-1.19-.84-1.71-1.39-1.93Z"/>
        <path class="cls-2" d="M254.25,295.19c-.09-.76-.54-1.33-1.28-1.62l-.09-.03c-3.27-.84-6.35-2.19-9.15-4-.89-.6-1.83-.69-2.74-.25l-.12.07c-3.42,2.49-7.02,4.3-10.69,5.39-.4.08-.94.33-1.33,1.06l-.06.15c-.19.64-.1,1.32.25,2l.1.15c.77.88,1.58.79,1.95.68,1.21-.29,2.47-.73,3.77-1.3h0c-.08,1.17.56,1.98,1.71,2.17h9.69c1.22.01,1.48-.05,1.7-.14.69-.32.95-.78,1.04-1.08.22-.63.19-1.2-.06-1.65.91.32,1.84.59,2.77.79.39.08.78.06,1.16-.06l.1-.04c.94-.43,1.39-1.24,1.28-2.29ZM238.04,295.87c1.15-.66,2.34-1.43,3.55-2.29.15-.12.31-.21.45-.27h0c.13,0,.38.05.77.3,1.27.88,2.58,1.63,3.91,2.25h-8.67Z"/>
        <path class="cls-2" d="M235.58,313.71s.08-.02.19-.02h12.69l.21-.03c2.07-.57,2.65-1.89,2.76-2.9v-7.26s-.02-.21-.02-.21c-.54-1.98-1.79-2.52-2.75-2.61h-14.53s-.17.02-.17.02c-.8.18-1.47.76-2,1.72l-.04.09c-.15.37-.21.94-.21,1.86v8.56c-.08,3.68-1.01,7.09-2.82,10.17-.31.63-.35,1.22-.13,1.74.24.57.78,1,1.61,1.27l.11.03c.1.02.21.03.32.03.48,0,1.09-.19,1.7-.93.47-.65.79-1.23.95-1.73,1.33-3.31,2.05-6.55,2.13-9.65,0-.08,0-.12,0-.13ZM235.61,309.06c0-.08,0-.12,0-.13.03,0,.08-.02.19-.02h11.59c.07,0,.1,0,.11,0,.01.03.04.11.05.26v.08c.07.43-.03.63-.17.75-.13.03-.4.08-.96.08h-10.61c-.1,0-.15-.01-.17-.01h0s-.02-.08-.02-.18v-.82ZM235.81,305.46c-.09,0-.15,0-.18,0,0,0,0,0,0,0,0-.02,0-.05,0-.11v-.13c-.09-.52.04-.75.23-.9.11-.01.34-.03.83-.03h9.83c.59,0,.84.05.93.08.03.02.05.04.07.05,0,.12.02.38.02.89,0,.08,0,.13,0,.14-.02,0-.07.01-.15.01h-11.55Z"/>
        <path class="cls-2" d="M255.64,318.02c.24.11.49.17.77.17.32,0,.66-.08,1.03-.23.7-.33,1.11-.91,1.19-1.68v-22.62s-.04-.13-.04-.13c-.48-1.36-1.46-1.94-2.71-1.59-.9.25-1.44.92-1.48,1.89v22.4l.04.24c.25.78.65,1.3,1.2,1.56Z"/>
        <path class="cls-2" d="M311.7,300.54l-11.06-.02c-.11,0-.17-.02-.17-.01,0-.02-.02-.08-.02-.18v-4.37c.09-.59.29-.74.4-.8,1.31-.32,2.82-.5,4.55-.56,2.21-.27,3.72-.53,4.7-.83,1.05-.42,1.64-.97,1.79-1.64.25-.83.02-1.58-.69-2.16-.69-.49-1.31-.49-1.72-.4h0c-3.39.75-6.5,1.17-9.31,1.28-1.12.11-1.51.2-1.72.27-1.34.41-2.08,1.35-2.08,2.63v17.02c-.17,2.71-.91,5.3-2.2,7.72-.15-.37-.38-.74-.68-1.12-1.3-1.4-2.66-2.8-4.04-4.16h3.27c1.26,0,1.49-.06,1.63-.14.69-.28,1.14-.86,1.26-1.62v-.08c.05-.76-.16-1.33-.61-1.68l-.08-.05c-.54-.33-1.28-.44-2.17-.35h-4.62c-.11,0-.16-.01-.17-.01,0-.02-.02-.08-.02-.18v-2.15c0-.08,0-.12,0-.13.03,0,.08-.02.19-.02h5.85c.42-.06,1.17-.31,1.56-1.47.33-1.15-.19-2.06-1.39-2.42l-2.72-.03c.63-1.54,1.06-3.03,1.28-4.42v-.09c.06-1.6-1-1.97-1.42-2.04-1.21-.28-2.12.33-2.43,1.64-.35,1.51-.85,3.01-1.46,4.41-.22.45-.47.51-.71.51h-3.07c.24-.27.4-.64.47-1.08v-.09s0-.09,0-.09c-.06-1.12-.52-2.37-1.41-3.83-.3-.77-.72-1.27-1.26-1.5-.06-.03-.13-.05-.2-.07h12.55l.21-.03c.44-.12.79-.32.99-.57.79-.83.81-1.88.06-2.89l-.08-.1-.11-.07c-.57-.39-1.34-.53-2.3-.41h-4.14s-.08,0-.09,0c-.01-.03-.03-.1-.03-.23,0-.73-.06-1.3-.19-1.74-.17-.58-.47-.98-.9-1.19-.74-.41-1.54-.39-2.27.07-.3.19-.66.57-.71,1.29-.08.53-.13,1.08-.13,1.58,0,.14-.03.2-.03.2-.01,0-.07.02-.17.02h-6.38c-1.04.21-1.65.91-1.69,1.96,0,1.06.52,1.8,1.46,2.08l2.98.03c-.13.03-.27.08-.41.15l-.17.11c-.88.72-1.05,1.67-.45,2.55.41.76.84,1.76,1.25,2.95.11.36.29.66.52.9h-2.66c-1.14-.16-1.97.07-2.49.66l-.11.17c-.36.74-.42,1.39-.17,1.94.24.54.74.91,1.49,1.12l6.59.03c.08,0,.12.01.14,0,0,.02.01.07.01.15v2.15c0,.11-.01.17-.01.18-.02,0-.07.02-.15.02h-5.44c-1.16,0-1.56.09-1.78.16l-.16.08c-.84.52-1.18,1.34-.94,2.31l.05.15c.36.75.95,1.19,1.73,1.23h5.21c-1.8,2.48-3.96,4.81-6.48,6.98-.87.91-.98,1.94-.29,2.82l.07.08c.43.43.94.67,1.55.66,1.02-.07,2.24-.95,3.83-2.77,1.01-1.15,1.95-2.34,2.82-3.54v8.36c.12.99.71,1.65,1.69,1.82,1.18.11,2.06-.51,2.4-1.7l.03-8.89c.91,1.03,1.82,2.08,2.69,3.11.52.79,1.14,1.05,1.65,1.1-.41.55-.81,1.1-1.2,1.65-.75.79-.82,1.74-.16,2.56l.09.1c.62.55,1.25.79,1.88.74.6-.06,1.14-.4,1.57-.96,2.31-2.6,3.93-5.33,4.82-8.12.64-2.07,1.02-4.24,1.13-6.5v-5.8c0-.08,0-.12,0-.13.03,0,.08-.02.19-.02h3.96c.08,0,.12.01.14,0,0,.02.01.07.01.15v20.9c.05.56.34,1.55,1.77,1.91l.08.02c.09.01.19.02.31.02.64,0,1.65-.27,2.05-1.86l.02-20.99c0-.08,0-.12,0-.13.03,0,.08-.02.19-.02h2.56c.73-.13,1.29-.57,1.63-1.35.24-.7.22-1.32-.07-1.82-.29-.52-.83-.87-1.6-1.04Z"/>
        <path class="cls-2" d="M358.24,310.03l-.04-.1c-.17-.35-.43-.67-.76-.97l-.12-.09c-.72-.44-1.35-.67-1.97-.7h-2.55c-.1,0-.17-.01-.17-.01,0-.02-.02-.08-.02-.18v-1.1l-.03-.22c-.2-.7-.58-1.19-1.09-1.45,1.42.11,2.72-.27,3.87-1.16l.12-.11c.41-.47.74-1.09.98-1.86.78-2.74,1.1-5.17.97-7.26-.17-1.7-1.2-2.74-2.92-2.93h-8.63c-.11,0-.17-.02-.17-.02,0-.02-.02-.06-.02-.13.15-1.08-.21-1.95-1.02-2.47-.37-.25-1-.46-1.89-.12l-.14.07c-.84.55-1.21,1.44-1.06,2.51,0,.08-.01.12,0,.13-.02,0-.07.02-.14.02h-7.53c-.36.04-.67.15-.93.33l-.12.1c-.34.34-.71.79-.7,1.32-.12,1.15.51,1.97,1.7,2.2h7.38c-.52,1.97-1.7,3.41-3.55,4.39-1.4.62-2.92,1.08-4.55,1.36-.14.03-.28.07-.41.12.52-.44.75-1.1.65-1.91-.16-.99-.82-1.63-1.82-1.75h-2.01c-.11,0-.16-.01-.17-.02,0-.02-.02-.08-.02-.18v-5.72c0-.86-.06-1.45-.2-1.85l-.05-.15-.1-.12c-.83-.96-1.69-1.04-2.27-.93h-.02c-.93.21-1.51.86-1.63,1.85v6.91c0,.11-.02.17-.02.18-.02,0-.07.02-.14.02h-1.91c-.95.09-1.6.69-1.83,1.7l-.02.13c-.08,1.24.54,2.11,1.7,2.38l2.06.02c.08,0,.12,0,.14,0,0,.02.01.07.01.15v22.87l.02.16c.25,1.18,1.04,1.84,2.19,1.84.06,0,.12,0,.19,0l.18-.03c.97-.3,1.56-.96,1.68-1.86v-22.97c0-.08.02-.12.01-.13.03,0,.08-.02.19-.02h.74c.77,0,1.32-.05,1.74-.18-.47.38-.72.94-.72,1.62.05,1.3.8,1.78,1.26,1.96.39.14.88.19,1.48.16h.1c.39-.09.77-.16,1.15-.25-.13.17-.24.38-.33.63-.15.37-.2.91-.17,1.66,0,.11-.01.17-.01.18-.02,0-.07.02-.14.02h-2.12c-.82.09-1.42.54-1.7,1.34-.31,1.25.26,2.21,1.53,2.55l2.13.03c.05,0,.09,0,.12,0,0,.02,0,.04,0,.07-.13,1.19-.55,2.92-1.25,5.1-.81,2.24-1.88,4.28-3.14,6.01-.28.31-.51.64-.67.96l-.03.08c-.44,1.19.05,2.19,1.31,2.68l.08.03c1.26.34,2.3-.96,2.98-1.97.34-.52.65-1.02.92-1.49-.08.18-.16.38-.22.62l-.02.09c-.08.55,0,1.04.26,1.46l.12.15c.81.81,1.85,1.22,3.1,1.17,1.88,0,3.39-.57,4.51-1.72.27-.32.49-.67.66-1.04-.31.89.14,1.59.42,1.9.55.64,1.27.84,2.02.58.72-.24,1.35-.77,1.84-1.55.38-.54.73-1.09,1.05-1.61,1.95-3.26,3.21-6.99,3.74-11.05.05-.32.13-.32.32-.32h.1c1.29-.17,1.63.35,1.81.91.1.37.12.79.06,1.25v2.23c.02,1.98-.17,3.68-.56,5.05-.35,1.15-.83,1.07-1.12,1.02-.44-.07-1.15-.24-2.12-.49l-.15-.02c-.77-.05-1.41.32-1.85,1.07-.34.71-.41,1.36-.2,1.93.21.57.69,1.02,1.46,1.35,1.87.66,3.61.68,5.13.08.81-.27,1.44-.78,1.87-1.51.6-.98,1-2.14,1.16-3.41.24-1.33.44-3.47.6-6.4v-2.19c-.06-1.11-.23-2.1-.51-2.95ZM334.98,323.05c.27-.48.51-.94.71-1.36,1.23-2.69,2.1-5.86,2.61-9.41.05-.32.12-.32.32-.32h.1c.52-.08.92.03,1.25.31.13.29.2.58.21.9.18,3.31-.05,6.03-.67,8.08-.43,1.49-.96,1.4-1.16,1.36-.46-.07-.92-.17-1.38-.3-.34-.09-1.32-.22-1.99.72ZM343.28,323.91c.13-.33.21-.67.26-1.02.63-3.09.96-6.84.96-11.09.1-2.16-1.02-3.49-3.16-3.75h-2.48c-.1,0-.15-.02-.17-.02h0s-.02-.06-.02-.14c.11-.9,0-1.66-.34-2.24l-.07-.12-.11-.09c-.28-.23-.55-.38-.8-.47,1.62-.55,3.02-1.25,4.18-2.12,2.13-1.76,3.42-4.02,3.84-6.71.05-.32.12-.32.32-.32h6.83l.27.07c.56.27.58.53.58.62.05,1.2-.17,2.35-.64,3.41l-.06.22c-.03.21-.28.4-.43.49-.21.11-.77.26-2.12.08-1.02-.15-2.07-.28-3.11-.39-.39-.09-1.32-.15-1.87,1.21-.32,1.03,0,1.9.87,2.4l.11.05c1.37.52,2.75.87,4.06,1.05-.51.1-.94.49-1.3,1.22-.15.37-.2.92-.17,1.7,0,.11-.01.17-.01.18-.02,0-.07.02-.14.02h-2.23l-.15.02c-.8.16-1.36.63-1.57,1.32l-.02.09c-.23,1.26.35,2.2,1.56,2.51l2.23.02c.05,0,.09,0,.12,0,0,.02,0,.04,0,.07-.4,3.91-1.93,7.57-4.54,10.87-.3.29-.5.58-.63.84Z"/>
        <path class="cls-2" d="M397.82,312.25h-23.19s-.18.01-.18.01c-1.04.25-1.74.95-2.02,2.01l-.03,9.99v.1c.18,1.3.96,2.15,2.24,2.46l23.13.02.11-.03c1.77-.51,2.28-1.7,2.4-2.61v-9.62s0-.16,0-.16c-.25-1.2-1.12-1.98-2.45-2.18ZM376.63,317.37c0-.79.06-1.1.09-1.2.14-.23.28-.28.41-.29h17.64c.53-.09.91.01,1.22.33.06.14.14.51.07,1.35,0,.11-.01.17-.01.18-.02,0-.07.02-.14.02h-19.07c-.08,0-.12-.01-.13-.01h0s-.06-.09-.06-.38ZM376.63,321.52c0-.08,0-.12,0-.13.03,0,.08-.02.19-.02h19.07c.07,0,.1,0,.11,0,.01.03.04.11.05.26v.03c.06.84-.03,1.14-.07,1.25-.07.18-.34.28-.59.34h-18.18c-.13,0-.34-.01-.52-.53,0-.02-.09-.26-.06-1.2Z"/>
        <path class="cls-2" d="M399.79,299.41l-.08-.02h-27.03c-.57.06-1.36.35-1.91,1.4l-.03.07c-.15.37-.21.94-.21,1.86v5.68l.02.17c.35,1.62,1.36,2.14,2.15,2.29h27.1s.12-.03.12-.03c1.63-.54,2.14-1.65,2.29-2.49v-6.63s0-.13,0-.13c-.13-.77-.65-1.78-2.41-2.16ZM376.96,304.83l.03.16.1.14c.36.51.69,1.02.96,1.47.1.2.23.41.39.63h-3.45c-.49-.16-.5-.34-.5-.39v-3.41c0-.07.01-.24.47-.39h2.5c-.46.44-.64,1.05-.49,1.79ZM380.29,303.03h4.18c.08,0,.12.01.14,0,0,.02.01.07.01.15v3.84c0,.11-.01.17-.01.18-.02,0-.07.02-.14.02h-2.79c.05-.06.1-.12.13-.18l.08-.19c.29-1.04-.24-2.29-1.61-3.81ZM388.54,307.03v-3.84c0-.08,0-.12,0-.13.03,0,.08-.02.19-.02h3.87c-.19.18-.37.42-.55.73-.4.86-.96,1.82-1.66,2.82-.35.44-.79.64-1.38.64-.35,0-.45-.07-.45-.07,0,0-.02-.05-.02-.12ZM395.61,303.44l-.04-.07c-.09-.12-.18-.23-.29-.33h1.64c.64,0,.9.05.98.07.14.06.24.13.29.2.02.09.06.34.06.94v1.73c.15.91-.15,1.14-.5,1.25h-3.13l.86-1.44c.61-1.03.41-1.84.13-2.34Z"/>
        <path class="cls-2" d="M405.46,296.25l-.07-.1c-.41-.48-.95-.78-1.56-.88-4.85-1.1-9.52-2.84-13.86-5.19-1.97-1.36-3.84-1.56-5.57-.6l-.07.04c-.49.34-.98.64-1.49.89-3.89,2.1-8.58,3.86-13.92,5.22l-.12.04c-.79.35-1.1.88-1.22,1.27l-.03.13c-.2,1.49.61,2.17,1.11,2.44l.2.08c.16.04.34.06.54.06.38,0,.83-.07,1.37-.21,2.02-.42,4.59-1.25,7.64-2.45.11.8.69,1.37,1.62,1.59l11.73.02c1.14,0,1.5-.09,1.72-.18l.16-.09c.6-.44.92-1,.95-1.61,1.97.75,4.01,1.44,6.06,2.04,1.07.36,2.18.59,3.31.7h.12s.11-.01.11-.01c.39-.08.69-.21.92-.39l.16-.17c.78-1.15.55-2.05.22-2.61ZM390.15,294.81h-6.92s1.49-.79,1.49-.79l.12-.08c.63-.5,1.19-.75,1.71-.75.15,0,.3.02.44.06h.04c.36.1.81.3,1.37.64.58.32,1.17.63,1.76.92Z"/>
      </g>
    </g>
    <ellipse class="cls-1" cx="339.51" cy="208.61" rx="16.53" ry="16.69"/>
    <ellipse class="cls-2" cx="112.24" cy="208.61" rx="16.53" ry="16.69"/>
    <ellipse class="cls-1" cx="222.58" cy="121.92" rx="16.53" ry="16.69"/>
    <path class="cls-1" d="M104.06,106.88c-.5,1.33-1.01,2.66-1.51,3.99-1.38,3.64-2.76,7.28-4.14,10.91-2.03,5.36-4.06,10.72-6.09,16.07-2.48,6.54-4.96,13.07-7.43,19.61-2.71,7.16-5.43,14.32-8.14,21.47-2.75,7.26-5.5,14.51-8.26,21.77-2.55,6.74-5.11,13.47-7.66,20.21l-6.48,17.08c-1.55,4.1-3.11,8.19-4.66,12.29-.74,1.94-1.5,3.88-2.21,5.84-.03.09-.06.17-.1.26,5.45,1.52,10.91,3.04,16.36,4.55.5-1.33,1.01-2.66,1.51-3.99,1.38-3.64,2.76-7.28,4.14-10.91,2.03-5.36,4.06-10.72,6.09-16.07l7.43-19.61c2.71-7.16,5.43-14.32,8.14-21.47,2.75-7.26,5.5-14.51,8.26-21.77,2.55-6.74,5.11-13.47,7.66-20.21,2.16-5.69,4.32-11.39,6.48-17.08,1.55-4.1,3.11-8.19,4.66-12.29.74-1.94,1.5-3.88,2.21-5.84.03-.09.06-.17.1-.26h-16.36c.5,1.33,1.01,2.66,1.51,3.99,1.38,3.64,2.76,7.28,4.14,10.91,2.03,5.36,4.06,10.72,6.09,16.07,2.48,6.54,4.96,13.07,7.43,19.61,2.71,7.16,5.43,14.32,8.14,21.47,2.75,7.26,5.5,14.51,8.26,21.77,2.55,6.74,5.11,13.47,7.66,20.21,2.16,5.69,4.32,11.39,6.48,17.08,1.55,4.1,3.11,8.19,4.66,12.29.74,1.95,1.47,3.89,2.21,5.84.03.09.06.17.1.26.81,2.14,1.87,3.92,3.9,5.12,1.82,1.07,4.5,1.53,6.54.86,2.05-.67,4.03-1.95,5.07-3.94,1.01-1.92,1.66-4.48.86-6.6-.5-1.33-1.01-2.66-1.51-3.99-1.38-3.64-2.76-7.28-4.14-10.91-2.03-5.36-4.06-10.72-6.09-16.07-2.48-6.54-4.96-13.07-7.43-19.61-2.71-7.16-5.43-14.32-8.14-21.47s-5.5-14.51-8.26-21.77c-2.55-6.74-5.11-13.47-7.66-20.21-2.16-5.69-4.32-11.39-6.48-17.08-1.55-4.1-3.11-8.19-4.66-12.29-.74-1.95-1.47-3.89-2.21-5.84-.03-.08-.06-.17-.1-.26-.68-1.8-1.5-3.24-3.04-4.45-1.43-1.12-3.28-1.92-5.14-1.84-1.51.07-2.95.46-4.28,1.17-2.01,1.07-3.12,3.07-3.9,5.12-.5,1.33-1.01,2.66-1.51,3.99-1.38,3.64-2.76,7.28-4.14,10.91-2.03,5.36-4.06,10.72-6.09,16.07-2.48,6.54-4.96,13.07-7.43,19.61-2.71,7.16-5.43,14.32-8.14,21.47s-5.5,14.51-8.26,21.77c-2.55,6.74-5.11,13.47-7.66,20.21-2.16,5.69-4.32,11.39-6.48,17.08-1.55,4.1-3.11,8.19-4.66,12.29-.74,1.94-1.51,3.88-2.21,5.84-.03.09-.06.17-.1.26-.74,1.96-.15,4.86.86,6.6s3.05,3.47,5.07,3.94c2.17.5,4.61.39,6.54-.86s3.07-2.93,3.9-5.12c.5-1.33,1.01-2.66,1.51-3.99l4.14-10.91c2.03-5.36,4.06-10.72,6.09-16.07,2.48-6.54,4.96-13.07,7.43-19.61,2.71-7.16,5.43-14.32,8.14-21.47,2.75-7.26,5.5-14.51,8.26-21.77,2.55-6.74,5.11-13.47,7.66-20.21,2.16-5.69,4.32-11.39,6.48-17.08,1.55-4.1,3.11-8.19,4.66-12.29.74-1.94,1.51-3.88,2.21-5.84.03-.09.06-.17.1-.26.74-1.96.15-4.86-.86-6.6-1.03-1.78-3.05-3.47-5.07-3.94-2.17-.5-4.61-.39-6.54.86s-3.07,2.93-3.9,5.12h0Z"/>
    <path class="cls-4" d="M331.33,106.88c-.5,1.33-1.01,2.66-1.51,3.99-1.38,3.64-2.76,7.28-4.14,10.91-2.03,5.36-4.06,10.72-6.09,16.07-2.48,6.54-4.96,13.07-7.43,19.61-2.71,7.16-5.43,14.32-8.14,21.47-2.75,7.26-5.5,14.51-8.26,21.77-2.55,6.74-5.11,13.47-7.66,20.21-2.16,5.69-4.32,11.39-6.48,17.08-1.55,4.1-3.11,8.19-4.66,12.29-.74,1.94-1.5,3.88-2.21,5.84-.03.09-.06.17-.1.26,5.45,1.52,10.91,3.04,16.36,4.55.5-1.33,1.01-2.66,1.51-3.99,1.38-3.64,2.76-7.28,4.14-10.91,2.03-5.36,4.06-10.72,6.09-16.07l7.43-19.61c2.71-7.16,5.43-14.32,8.14-21.47,2.75-7.26,5.5-14.51,8.26-21.77,2.55-6.74,5.11-13.47,7.66-20.21,2.16-5.69,4.32-11.39,6.48-17.08,1.55-4.1,3.11-8.19,4.66-12.29.74-1.94,1.5-3.88,2.21-5.84.03-.09.06-.17.1-.26h-16.36c.5,1.33,1.01,2.66,1.51,3.99,1.38,3.64,2.76,7.28,4.14,10.91,2.03,5.36,4.06,10.72,6.09,16.07,2.48,6.54,4.96,13.07,7.43,19.61,2.71,7.16,5.43,14.32,8.14,21.47,2.75,7.26,5.5,14.51,8.26,21.77,2.55,6.74,5.11,13.47,7.66,20.21,2.16,5.69,4.32,11.39,6.48,17.08,1.55,4.1,3.11,8.19,4.66,12.29.74,1.95,1.47,3.89,2.21,5.84.03.09.06.17.1.26.81,2.14,1.87,3.92,3.9,5.12,1.82,1.07,4.5,1.53,6.54.86,2.05-.67,4.03-1.95,5.07-3.94s1.66-4.48.86-6.6c-.5-1.33-1.01-2.66-1.51-3.99-1.38-3.64-2.76-7.28-4.14-10.91-2.03-5.36-4.06-10.72-6.09-16.07-2.48-6.54-4.96-13.07-7.43-19.61-2.71-7.16-5.43-14.32-8.14-21.47-2.75-7.26-5.5-14.51-8.26-21.77-2.55-6.74-5.11-13.47-7.66-20.21-2.16-5.69-4.32-11.39-6.48-17.08-1.55-4.1-3.11-8.19-4.66-12.29-.74-1.95-1.47-3.89-2.21-5.84-.03-.08-.06-.17-.1-.26-.68-1.8-1.5-3.24-3.04-4.45-1.43-1.12-3.28-1.92-5.14-1.84-1.51.07-2.95.46-4.28,1.17-2.01,1.07-3.12,3.07-3.9,5.12-.5,1.33-1.01,2.66-1.51,3.99-1.38,3.64-2.76,7.28-4.14,10.91-2.03,5.36-4.06,10.72-6.09,16.07-2.48,6.54-4.96,13.07-7.43,19.61-2.71,7.16-5.43,14.32-8.14,21.47-2.75,7.26-5.5,14.51-8.26,21.77-2.55,6.74-5.11,13.47-7.66,20.21-2.16,5.69-4.32,11.39-6.48,17.08-1.55,4.1-3.11,8.19-4.66,12.29-.74,1.94-1.51,3.88-2.21,5.84-.03.09-.06.17-.1.26-.74,1.96-.15,4.86.86,6.6,1.03,1.78,3.05,3.47,5.07,3.94,2.17.5,4.61.39,6.54-.86s3.07-2.93,3.9-5.12c.5-1.33,1.01-2.66,1.51-3.99,1.38-3.64,2.76-7.28,4.14-10.91,2.03-5.36,4.06-10.72,6.09-16.07,2.48-6.54,4.96-13.07,7.43-19.61,2.71-7.16,5.43-14.32,8.14-21.47,2.75-7.26,5.5-14.51,8.26-21.77,2.55-6.74,5.11-13.47,7.66-20.21,2.16-5.69,4.32-11.39,6.48-17.08,1.55-4.1,3.11-8.19,4.66-12.29.74-1.94,1.51-3.88,2.21-5.84.03-.09.06-.17.1-.26.74-1.96.15-4.86-.86-6.6-1.03-1.78-3.05-3.47-5.07-3.94-2.17-.5-4.61-.39-6.54.86-1.96,1.27-3.07,2.93-3.9,5.12h0Z"/>
    <path class="cls-4" d="M249.24,148.57c-.08,0-.15-.02-.23-.02h-.2c-.32,0-.64,0-.96,0,0,0-.01,0-.02,0s-.02,0-.02,0c-2.39,0-4.77,0-7.16,0h0s-17.3,0-17.3,0h-17.3c-2.39,0-4.77,0-7.16,0,0,0-.02,0-.02,0s-.01,0-.02,0c-.32,0-.64,0-.96,0h-.2c-.08,0-.15.02-.23.02-3.75.22-6.72,3.35-6.72,7.19s3.2,7.21,7.15,7.21c.02,0,.03,0,.05,0,.31.04.62.08.94.08.38,0,.75-.04,1.11-.1.32,0,.91.01,1.93.02.99,0,1.97.04,2.96.14.13.01.56.09.83.14.27.08.67.2.77.25.41.18.82.38,1.22.59.18.16.37.3.55.47.22.2.47.5.58.62.29.41.56.84.83,1.29.19.31.28.45.33.5.02.08.07.27.22.68.33.91.66,1.8.96,2.74.37,1.21.79,3.16,1.19,5.47,1.17,6.73,1.62,13.7,1.89,20.65.09,2.29.16,4.59.22,6.89.02,19.32.05,38.64.07,57.96,0,.1-.01.19-.01.29s.01.2.02.3h0s0,0,0,.01c.16,4.83,4.01,8.71,8.8,8.87,4.79-.16,8.63-4.04,8.8-8.87,0,0,0,0,0,0h0c0-.11.02-.2.02-.31s-.01-.19-.01-.29c.02-19.32.04-38.64.07-57.96.06-2.3.13-4.59.22-6.89.27-6.95.72-13.93,1.89-20.65.4-2.3.82-4.25,1.19-5.47.29-.95.62-1.83.96-2.74.15-.41.21-.6.22-.68.05-.05.14-.19.33-.5.27-.45.55-.88.83-1.29.11-.12.37-.41.58-.62.18-.17.37-.31.55-.47.4-.22.81-.41,1.22-.59.11-.05.51-.17.77-.25.27-.05.7-.13.83-.14.99-.09,1.97-.13,2.96-.14,1.02,0,1.61-.02,1.93-.02.36.06.73.1,1.11.1.32,0,.63-.04.94-.08.02,0,.03,0,.05,0,3.95,0,7.15-3.23,7.15-7.21s-2.97-6.97-6.72-7.19Z"/>
    <ellipse class="cls-1" cx="55.55" cy="258.66" rx="8.6" ry="8.68"/>
  </g>
</svg>