<?xml version="1.0" encoding="UTF-8"?>
<svg id="_打孔" data-name="打孔" xmlns="http://www.w3.org/2000/svg" viewBox="0 0 680.31 127.56">
  <defs>
    <style>
      .cls-1 {
        fill: #f8b62d;
      }

      .cls-2 {
        fill: #dfdfdf;
      }

      .cls-3 {
        fill: #231815;
      }
    </style>
  </defs>
  <rect class="cls-3" x="1.76" y="-1.49" width="681.61" height="127.56"/>
  <g>
    <g>
      <g>
        <g>
          <path class="cls-2" d="M258.58,34.1c-.25-.87.06-1.41.93-1.62h28.19c.37,0,.68.2.93.58.18.5.17.91-.03,1.2-.18.3-.46.48-.82.55h-7.18c-.57,0-.86.27-.86.82v2.99c0,.55.05.94.14,1.17.16.27.42.45.79.52h5.22c.55.09,1.01.32,1.37.69.41.46.65.93.72,1.41v8.94c-.11.89-.69,1.48-1.72,1.75h-5.47c-.41.05-.72.26-.93.65-.09.21-.14.58-.14,1.13v3.95c0,.57.29.86.86.86h8.35c.92.21,1.23.76.93,1.65-.18.41-.46.64-.82.69h-30.28c-.78-.23-1.07-.76-.86-1.58.18-.48.49-.73.93-.76h8.35c.55,0,.82-.29.82-.86v-4.71c0-.55-.38-.94-1.13-1.17h-5.36c-1.12-.21-1.75-.85-1.89-1.92v-8.42c.18-1.03.84-1.72,1.96-2.06h5.26c.6-.05.99-.41,1.17-1.1v-3.82c0-.55-.28-.82-.82-.82h-7.73c-.39-.05-.68-.29-.86-.72ZM277.34,35.68c0-.57-.27-.86-.82-.86h-5.29c-.57,0-.86.27-.86.82v4.78c-.32,1.51-1.17,2.35-2.54,2.51h-4.74c-.53.02-.89.39-1.1,1.1v5.47c.07.39.3.7.69.93.28.11.68.17,1.2.17h4.19c1.31.16,2.07.93,2.3,2.3v5.95c0,.57.29.86.86.86h5.29c.55,0,.82-.29.82-.86v-6.43c.25-1.01.85-1.57,1.79-1.68h5.43c.57-.07.92-.42,1.03-1.07v-5.98c0-.3-.16-.58-.48-.86-.3-.18-.73-.24-1.31-.17h-4.43c-1.01-.09-1.68-.77-2.03-2.03v-4.95Z"/>
          <path class="cls-2" d="M289.07,62.65l-30.49-.02c-1.1-.32-1.56-1.16-1.27-2.31l.02-.07c.27-.7.79-1.11,1.46-1.15h8.38c.12,0,.17-.02.18-.03,0-.01.04-.08.04-.22v-4.71c0-.1,0-.35-.62-.56h-5.38c-1.39-.26-2.21-1.11-2.38-2.45v-.08s0-8.53,0-8.53c.22-1.25,1.04-2.13,2.38-2.54l.18-.03h5.26c.19-.02.42-.1.56-.58v-3.73c0-.14-.03-.19-.03-.19h0s-.05-.03-.19-.03h-7.8c-.43-.05-1.01-.28-1.35-1.09l-.02-.07c-.17-.6-.14-1.12.11-1.54.24-.41.67-.7,1.27-.84l.14-.02h28.19c.4,0,.98.15,1.44.86l.06.12c.25.7.22,1.29-.11,1.75-.25.41-.68.7-1.21.8h-.11s-7.18.01-7.18.01c-.15,0-.21.03-.23.04,0,0-.03.06-.03.18v2.99c0,.55.05.8.08.9.05.07.13.14.31.18h5.26c.67.12,1.25.41,1.7.86.52.57.81,1.15.89,1.75v.09s0,9.01,0,9.01c-.1.8-.56,1.83-2.16,2.26l-.16.02h-5.43c-.2.03-.32.13-.43.33h0s-.07.2-.07.85v3.95c0,.24.02.25.25.25h8.49c.63.16,1.07.44,1.31.87.24.43.26.96.06,1.57-.36.82-.92,1.05-1.32,1.1h-.04ZM258.84,61.44h30.15c.08-.01.2-.06.32-.33.07-.21.08-.42.02-.54-.06-.11-.22-.2-.46-.26h-8.28c-.9,0-1.46-.56-1.46-1.46v-3.95c0-.65.06-1.09.19-1.38.32-.6.8-.94,1.41-1.01h.07s5.38,0,5.38,0c.93-.27,1.14-.77,1.2-1.19v-8.85c-.06-.34-.25-.7-.57-1.05-.25-.24-.57-.41-.98-.49h-5.28c-.68-.14-1.03-.52-1.2-.82l-.04-.08c-.12-.31-.18-.75-.18-1.39v-2.99c0-.88.56-1.43,1.46-1.43h7.12c.17-.04.29-.12.37-.26.11-.16.07-.41,0-.61-.18-.25-.32-.25-.38-.25h-28.11c-.17.05-.36.12-.43.25-.08.14-.05.37,0,.55.12.26.25.31.33.32h7.69c.88,0,1.43.55,1.43,1.43l-.02,3.97c-.34,1.26-1.21,1.51-1.71,1.55h-5.21c-.84.28-1.3.76-1.45,1.52v8.33c.11.77.53,1.2,1.34,1.36l5.48.03c1.36.41,1.56,1.27,1.56,1.75v4.71c0,.9-.55,1.46-1.43,1.46h-8.35c-.06,0-.22.01-.35.33-.12.5.03.68.37.79ZM276.52,60.31h-5.29c-.9,0-1.46-.56-1.46-1.46v-5.89c-.19-1.07-.73-1.62-1.74-1.75h-4.16c-.61,0-1.08-.07-1.44-.22l-.07-.04c-.54-.32-.88-.78-.98-1.34v-.11s.01-5.63.01-5.63c.36-1.22,1.1-1.51,1.65-1.54h4.73c1.07-.14,1.7-.76,1.98-1.97v-4.71c0-.88.56-1.43,1.46-1.43h5.29c.88,0,1.43.56,1.43,1.46v4.87c.37,1.26,1.02,1.47,1.48,1.51h4.35c.7-.08,1.24,0,1.66.26l.08.06c.46.39.69.84.69,1.32v6.09c-.17.91-.72,1.46-1.56,1.56h-.07s-5.39,0-5.39,0c-.65.09-1.03.45-1.22,1.16v6.35c0,.9-.55,1.46-1.43,1.46ZM262.94,49.88c.15.05.42.11.93.11h4.27c1.58.2,2.55,1.17,2.83,2.81v.1s0,5.95,0,5.95c0,.24.01.25.25.25h5.29c.12,0,.17-.02.18-.03,0-.01.04-.08.04-.22l.02-6.57c.31-1.25,1.11-1.99,2.3-2.14h.07s5.39,0,5.39,0c.19-.03.38-.1.46-.52v-5.92c0-.13-.13-.27-.23-.36-.12-.06-.38-.13-.88-.07h-.07s-4.43,0-4.43,0c-.94-.08-2.09-.58-2.61-2.47l-.02-.16v-4.95c0-.15-.03-.21-.04-.23,0,0-.06-.03-.18-.03h-5.29c-.15,0-.21.03-.23.04,0,0-.03.06-.03.18v4.9c-.49,2.23-1.94,2.85-3.08,2.98h-.07s-4.74,0-4.74,0c-.08,0-.31.01-.49.59v5.31c.03.13.11.29.35.44Z"/>
        </g>
        <g>
          <path class="cls-2" d="M313.08,32.1c.27-.92.8-1.28,1.58-1.1.48.12.79.47.93,1.07v3.71c-.07.37-.09.73-.07,1.1-.02.57.25.86.82.86h13.13c.46.07.78.29.96.65.34.8.07,1.4-.82,1.79-.12.05-.52.07-1.2.07h-11.89c-.55,0-.76.29-.62.86,1.12,4.15,2.82,7.76,5.09,10.83,2.47,3.19,5.43,5.89,8.87,8.11.85.62,1,1.33.45,2.13-.27.34-.61.55-1,.62-.5,0-1.08-.27-1.72-.82-2.38-1.79-4.92-4.32-7.6-7.6-2.31-3.05-4.06-6.19-5.22-9.42-.21-.6-.41-.58-.62.03-.71,2.64-1.97,5.36-3.78,8.18-1.76,2.64-4.09,5.09-6.98,7.36-.73.57-1.65,1.11-2.75,1.62-.41.21-.87.38-1.38.52-.71.14-1.16-.19-1.34-1-.14-.71.14-1.22.82-1.51,3.25-1.54,6.22-3.94,8.9-7.22,1.28-1.7,2.35-3.53,3.2-5.5.85-2.15,1.43-4.26,1.75-6.32.09-.57-.14-.86-.69-.86h-12.65c-.53-.05-.87-.39-1.03-1.03-.07-.5.11-.94.55-1.31.25-.11.72-.17,1.41-.17h12c.55,0,.84-.3.86-.89l.03-.38v-4.37ZM312.5,54.1c.37-.16.77-.03,1.2.38,1.51,2.04,2.74,3.87,3.68,5.5.39.62.64,1.25.76,1.89,0,.39-.24.7-.72.93-.55.21-1.03,0-1.44-.62-1.12-2.31-2.45-4.38-3.99-6.19-.53-.76-.36-1.39.52-1.89Z"/>
          <path class="cls-2" d="M317,63.48c-.48,0-1.04-.21-1.54-.96l-.04-.07c-1.1-2.26-2.41-4.3-3.91-6.06-.39-.55-.51-1.05-.41-1.52.11-.5.48-.93,1.08-1.29l.06-.03c.42-.18,1.08-.25,1.86.49l.07.08c1.52,2.05,2.77,3.92,3.72,5.56.42.66.7,1.37.83,2.09v.11c0,.44-.18,1.05-1.06,1.47-.18.07-.41.13-.67.13ZM316.49,61.88c.34.49.57.41.71.36.26-.13.32-.25.33-.32-.11-.54-.33-1.08-.66-1.61-.93-1.61-2.14-3.42-3.62-5.42-.13-.12-.34-.28-.49-.24-.27.16-.43.33-.47.48-.04.16.08.37.18.52,1.52,1.79,2.88,3.9,4.02,6.23ZM329.36,63.4h-.05c-.66,0-1.35-.32-2.11-.97-2.38-1.78-4.97-4.37-7.67-7.67-2.16-2.85-3.85-5.8-5.03-8.8-.75,2.42-1.97,4.96-3.62,7.54-1.8,2.69-4.19,5.21-7.11,7.5-.77.6-1.74,1.17-2.87,1.69-.43.21-.93.4-1.47.55-1.07.21-1.84-.34-2.09-1.45-.2-1.01.22-1.79,1.17-2.2,3.14-1.48,6.06-3.85,8.68-7.05,1.23-1.63,2.28-3.44,3.11-5.36.82-2.08,1.4-4.17,1.71-6.18.01-.07.01-.12.01-.15-.02,0-.06,0-.1,0h-12.65c-.51-.04-1.32-.29-1.62-1.49v-.07c-.11-.71.15-1.35.75-1.85l.14-.09c.34-.15.87-.23,1.66-.23h12c.18,0,.24,0,.25-.31l.04-.41v-4.4s.02-.09.02-.09c.37-1.22,1.2-1.77,2.3-1.52.5.12,1.14.48,1.38,1.52l.02.14v3.82c-.07.32-.09.64-.07.95v.03s0,.03,0,.03c0,.14.02.2.02.2h0s.06.03.2.03h13.22c.65.1,1.14.44,1.41.99.49,1.15.08,2.09-1.12,2.61-.16.07-.38.12-1.44.12h-11.89s-.04,0-.05,0c0,.03,0,.07.02.11,1.09,4.04,2.77,7.61,4.99,10.61,2.41,3.1,5.35,5.79,8.71,7.96,1.14.83,1.35,1.91.62,2.98-.39.5-.85.78-1.39.87h-.05ZM314.46,43.92c.58,0,.8.64.88.85,1.14,3.15,2.87,6.27,5.13,9.25,2.63,3.21,5.15,5.73,7.48,7.48.52.45.96.68,1.3.7.22-.05.41-.18.58-.39.29-.42.34-.78-.33-1.26-3.45-2.23-6.48-5-8.99-8.23-2.31-3.13-4.06-6.84-5.19-11.04-.12-.5-.06-.9.17-1.19.16-.2.46-.43,1.03-.43h11.89c.8,0,.99-.03,1.02-.04.67-.3.61-.62.45-.97-.05-.1-.16-.23-.46-.29h-13.08c-.46,0-.82-.13-1.07-.4-.25-.26-.37-.61-.36-1.05-.02-.38,0-.77.07-1.16v-3.58c-.11-.41-.3-.51-.46-.55-.25-.06-.59-.14-.84.6v4.27l-.04.43c-.03.89-.58,1.44-1.46,1.44h-12c-.66,0-.96.06-1.09.09-.27.26-.29.49-.27.67.14.51.36.53.49.54h12.6c.45,0,.8.14,1.03.41.24.28.33.67.25,1.14-.33,2.1-.93,4.27-1.79,6.45-.87,2.02-1.97,3.92-3.28,5.64-2.74,3.35-5.81,5.83-9.13,7.4-.44.19-.57.42-.49.85.14.61.39.56.63.52.42-.12.84-.27,1.22-.46,1.07-.49,1.95-1.01,2.65-1.55,2.82-2.22,5.13-4.65,6.85-7.22,1.76-2.74,3.01-5.44,3.7-8,.09-.28.3-.92.9-.92h0Z"/>
        </g>
        <g>
          <path class="cls-2" d="M346.07,31.21c.55-.18,1.07-.03,1.55.45.28.39.29.87.03,1.44-.21.6-.02.89.55.89h17.5c1.28.09,2.06.79,2.34,2.1v3.88c-.05,4.19-.27,7.46-.69,9.8-.23,1.35-.53,2.5-.89,3.44-.53.96-1.29,1.65-2.3,2.06-1.47.57-3.23.72-5.29.45-1.1-.07-1.75-.54-1.96-1.41.05-1.19.71-1.63,1.99-1.31,1.53.46,2.91.44,4.12-.07.41-.14.81-.52,1.2-1.13.41-.8.68-1.72.79-2.75.32-1.97.5-4.31.55-7.01v-2.99c-.02-.46-.07-.92-.14-1.38-.14-.89-.61-1.34-1.41-1.34h-16.88c-.55,0-.97.27-1.27.82-.41.73-1.05,1.72-1.92,2.96-.37.55-.27.72.27.52.25-.14.52-.22.79-.24h12.72c1.21.32,1.89,1.01,2.03,2.06v5.91c-.09.73-.37,1.35-.82,1.86-.5.39-1.07.6-1.68.62h-10.76c-.57,0-.86.27-.86.82v5.88c.02.5.14.96.34,1.37.37.48.81.74,1.34.79,2.91.25,6,.41,9.28.48h4.02c2.02-.05,3.64-.15,4.88-.31.43-.02.89-.17,1.38-.45.6-.41.89-.76.89-1.03.07-.39.11-.79.14-1.2v-1.82c.16-.8.58-1.2,1.27-1.2.8,0,1.25.41,1.34,1.24.02,2.11-.06,3.51-.24,4.19-.3,1.05-1.02,1.88-2.17,2.47-.5.25-.96.4-1.38.45-2.27.34-5,.5-8.18.48h-4.81c-3.53-.02-6.23-.25-8.11-.69-1.56-.55-2.4-1.63-2.51-3.23v-17.02c0-.6-.26-.61-.79-.03-.44.41-.87.81-1.31,1.2-.71.71-1.35.85-1.92.41-.82-.76-.79-1.45.1-2.1,1.93-1.58,3.43-3.44,4.5-5.57.69-1.26,1.27-2.63,1.75-4.12.11-.25.32-.47.62-.65ZM347.06,42.86c-1.1.28-1.58.96-1.44,2.06v2.58c0,.57.29.86.86.86h9.45c.6,0,1.04-.47,1.34-1.41v-2.06c0-.55-.03-.94-.1-1.17-.23-.53-.6-.81-1.1-.86h-9.01Z"/>
          <path class="cls-2" d="M359.12,63.61c-.19,0-.38,0-.58,0h-4.81c-3.56-.02-6.33-.26-8.25-.7l-.07-.02c-1.77-.63-2.78-1.93-2.91-3.76v-16.44c-.38.35-.73.68-1.09,1-1.23,1.23-2.22.81-2.69.44-.6-.54-.86-1.08-.83-1.62.03-.54.35-1.02.95-1.45,1.82-1.49,3.28-3.3,4.32-5.35.68-1.24,1.25-2.59,1.72-4.04l.03-.06c.16-.36.45-.67.85-.92l.13-.06c.54-.18,1.35-.22,2.17.59l.07.08c.28.39.52,1.07.09,2.04,0,.02,0,.03-.01.04h17.51c1.6.11,2.6,1,2.93,2.58v.12s.01,3.88.01,3.88c-.05,4.22-.28,7.55-.7,9.9-.23,1.38-.55,2.58-.93,3.55l-.03.07c-.59,1.08-1.47,1.87-2.6,2.33-1.56.61-3.45.77-5.6.49-1.69-.1-2.28-1.07-2.47-1.87l-.02-.08v-.08c.03-.75.28-1.31.73-1.65.48-.36,1.16-.44,2.02-.22,1.42.42,2.67.41,3.75-.04.23-.08.54-.28.92-.9.35-.69.6-1.54.7-2.49.32-1.96.5-4.29.55-6.96v-2.98c-.02-.4-.07-.85-.13-1.29-.11-.69-.39-.82-.81-.82h-16.88c-.23,0-.5.06-.74.51-.35.61-.85,1.4-1.5,2.34.02,0,.04,0,.05,0h12.85s.08.02.08.02c1.83.48,2.36,1.66,2.47,2.57v.08s0,5.99,0,5.99c-.11.86-.44,1.59-.98,2.19l-.08.07c-.6.47-1.29.72-2.03.74h-10.78c-.15,0-.21.03-.23.04,0,0-.03.06-.03.18v5.88c.02.37.1.73.25,1.05.25.32.53.48.88.51,2.88.25,5.99.41,9.24.48h4.01c1.98-.05,3.6-.15,4.8-.3.38-.02.76-.15,1.15-.37.52-.36.59-.55.6-.55.07-.42.11-.8.13-1.19v-1.85s.01-.06.01-.06c.29-1.47,1.29-1.69,1.87-1.69,1.11,0,1.82.65,1.94,1.78.03,2.24-.06,3.67-.26,4.42-.35,1.22-1.18,2.18-2.47,2.86-.57.29-1.11.46-1.59.51-2.13.32-4.71.49-7.67.49ZM358.54,62.4c3.14.02,5.86-.14,8.09-.47.36-.04.76-.17,1.19-.39.99-.52,1.6-1.2,1.85-2.1.11-.42.24-1.48.22-4.02-.05-.46-.24-.64-.74-.64-.25,0-.53.05-.67.66v1.76c-.02.45-.07.87-.14,1.27-.03.48-.39.94-1.15,1.47-.61.35-1.16.53-1.69.55-1.2.16-2.87.26-4.9.31h-4.04c-3.29-.07-6.43-.23-9.33-.48-.7-.06-1.3-.41-1.77-1.03l-.06-.1c-.24-.49-.38-1.03-.41-1.62v-5.9c0-.88.56-1.43,1.46-1.43h10.76c.46-.02.88-.17,1.27-.46.35-.4.55-.87.63-1.45v-5.83c-.07-.49-.32-1.16-1.5-1.5h-12.64c-.14.01-.32.07-.5.17l-.08.04c-.2.07-.8.3-1.16-.15-.37-.46.02-1.05.17-1.27.86-1.23,1.5-2.21,1.9-2.92.51-.94,1.26-1.13,1.8-1.13h16.88c1.11,0,1.82.66,2.01,1.85.07.48.12.96.14,1.44v3.02c-.05,2.74-.23,5.13-.56,7.11-.12,1.07-.41,2.06-.85,2.93-.5.79-1,1.25-1.55,1.43-1.3.54-2.82.57-4.49.07-.45-.11-.8-.1-.98.03-.16.12-.22.4-.24.64.11.39.39.8,1.39.87,1.99.26,3.67.13,5.04-.41.86-.35,1.51-.93,1.97-1.76.34-.89.63-2,.85-3.28.4-2.29.63-5.56.68-9.7v-3.81c-.23-1.01-.78-1.49-1.77-1.56h-17.45c-.6,0-.9-.25-1.05-.45-.23-.32-.25-.73-.08-1.24.23-.51.14-.75.07-.86-.35-.33-.61-.34-.82-.28-.15.1-.25.21-.31.32-.49,1.5-1.09,2.91-1.78,4.19-1.1,2.18-2.67,4.12-4.65,5.75-.3.22-.47.42-.48.56,0,.15.14.38.4.62.1.07.4.3,1.09-.39.46-.41.89-.81,1.32-1.21.19-.21.69-.76,1.28-.54.35.14.53.48.53,1.01v17.02c.1,1.32.76,2.17,2.07,2.65,1.83.42,4.5.64,7.95.66h4.81ZM355.93,48.97h-9.45c-.9,0-1.46-.56-1.46-1.46v-2.54c-.16-1.39.52-2.34,1.9-2.69l.15-.02h9.01c.56.05,1.25.3,1.65,1.22l.02.07c.09.29.13.72.13,1.34l-.03,2.25c-.48,1.51-1.31,1.83-1.92,1.83ZM347.14,43.47c-.75.21-1.02.61-.92,1.38v.08s0,2.58,0,2.58c0,.24.02.25.25.25h9.45c.35,0,.59-.47.74-.9v-1.97c0-.58-.04-.85-.07-.96-.17-.38-.39-.45-.58-.46h-8.87Z"/>
        </g>
        <g>
          <path class="cls-2" d="M393.76,41.97c.78-.64,1.62-.79,2.51-.45.32.21.78.57,1.37,1.1,3.07,2.5,6.74,4.59,11,6.29.69.25,1.38.52,2.06.79.6.46.74,1.01.45,1.65-.07.25-.21.46-.41.62-.69.23-1.86-.07-3.51-.89-.25-.16-.6-.29-1.03-.38-.32-.23-.78-.49-1.38-.79-2.47-1.24-4.77-2.64-6.87-4.19-.5-.37-.96-.76-1.38-1.17-.99-.69-1.86-.68-2.61.03-.34.34-.82.76-1.44,1.24-1.93,1.42-4.1,2.78-6.53,4.09-.57.48-.85.76-.82.82.09.14.3.22.62.24h19.32l.34.07c.23.02.46.14.69.34.32.18.53.54.62,1.07v8.35c-.21.98-.82,1.6-1.86,1.86h-19.42c-.85-.18-1.36-.76-1.55-1.72v-8.46c.07-.25.16-.48.28-.69.21-.3.29-.55.24-.76-.07-.05-.38-.02-.93.07-.8.37-1.62.7-2.44,1-.71.3-1.25.14-1.62-.48-.34-.66-.33-1.18.03-1.55.11-.11.29-.22.52-.31,2.96-1.1,5.71-2.41,8.25-3.92,1.99-1.17,3.83-2.46,5.5-3.88ZM394.76,30.93c.41-.14.79-.13,1.13.03.18.14.34.32.48.55.09.41.14.81.14,1.2,0,.6.26.89.79.89h11.58c.46.05.85.2,1.17.45.69.82.96,1.83.82,3.03-.05,1.03-.21,1.95-.48,2.75-.23.55-.49.92-.79,1.1-.46.18-.87.13-1.24-.17-.37-.27-.49-.62-.38-1.03l.41-1.37c.21-.92.17-1.6-.1-2.06-.11-.14-.23-.23-.34-.28-.21-.18-.58-.24-1.13-.17h-22.62c-.53-.07-.96,0-1.31.21-.21.18-.36.37-.45.55-.07.14-.1.48-.1,1.03v2.51c-.11.73-.56,1.05-1.34.96-.48-.11-.77-.46-.86-1.03v-4.54c.21-.99.87-1.63,1.99-1.92h11.07c.55,0,.82-.29.82-.86.02-.43.08-.85.17-1.24,0-.25.18-.45.55-.58ZM389.33,37.88c.76-.78,1.44-.87,2.06-.27.34.48.32.96-.07,1.44-2.73,2.59-5.49,4.46-8.28,5.6-.53.25-.95.39-1.27.41-.76.07-1.18-.3-1.27-1.1.02-.37.23-.69.62-.96.99-.34,1.9-.73,2.75-1.17,1.83-.94,3.65-2.26,5.47-3.95ZM387.51,53.17c-.64.07-1.04.44-1.2,1.1v5.05c.02.39.25.7.69.93.32.14.73.21,1.24.21h15.02c.27-.07.5-.17.69-.31.25-.21.41-.53.48-.96v-4.85c.02-.55-.37-.94-1.17-1.17h-15.74ZM399.12,38.12c.44-.82,1.08-.98,1.92-.48,2.96,1.49,5.71,3.2,8.25,5.12.37.37.5.71.41,1.03-.07.6-.38.96-.93,1.1-.44.05-.89-.14-1.38-.55-2.82-2.04-5.34-3.59-7.56-4.64-.76-.39-1-.92-.72-1.58Z"/>
          <path class="cls-2" d="M404.97,63.27h-19.62c-.76-.18-1.73-.69-2.01-2.21v-.11s.01-8.61.01-8.61c.05-.2.12-.39.2-.57-.74.33-1.5.64-2.26.92-.96.4-1.82.14-2.34-.74-.64-1.24-.19-1.96.13-2.28.17-.17.41-.32.72-.44,2.92-1.09,5.66-2.39,8.17-3.88,1.96-1.15,3.78-2.44,5.42-3.83h0c.94-.78,2.02-.97,3.11-.55l.11.06c.35.22.82.6,1.45,1.15,2.99,2.43,6.64,4.52,10.82,6.18.68.25,1.37.51,2.06.79l.14.08c.81.62,1.04,1.45.65,2.34-.11.36-.31.66-.61.89l-.08.06-.1.03c-.83.28-2.03.02-3.76-.82.08.19.14.4.18.63v.1s0,8.48,0,8.48c-.25,1.21-1.05,2.01-2.3,2.32l-.07.02ZM385.55,62.06h19.28c.74-.2,1.16-.62,1.33-1.32v-8.23c-.06-.31-.17-.51-.31-.6l-.1-.08c-.13-.12-.25-.18-.34-.19l-.34-.07h-19.26c-.16-.01-.47-.03-.75-.18-.05.24-.16.48-.34.74-.05.1-.12.25-.17.43v8.31c.14.67.45,1.03,1.01,1.17ZM394.15,42.43c-1.69,1.43-3.57,2.76-5.58,3.94-2.56,1.52-5.37,2.86-8.35,3.96-.19.08-.27.14-.3.17-.07.07-.24.24.07.84.17.28.36.4.84.2.83-.3,1.64-.63,2.42-.99l.15-.05c.66-.11.97-.13,1.2-.06.13-.28.46-.57.99-1.01l.1-.07c2.39-1.29,4.57-2.65,6.46-4.04.58-.45,1.05-.85,1.38-1.18.98-.92,2.17-.95,3.39-.1l.08.07c.39.39.83.76,1.3,1.11,2.07,1.53,4.35,2.93,6.79,4.14.57.29,1.01.54,1.35.77.44.1.79.24,1.08.41,1.75.87,2.56.94,2.92.87.06-.06.1-.14.12-.23l.03-.09c.14-.31.16-.56-.21-.87-.65-.26-1.31-.51-1.96-.75-4.31-1.72-8.07-3.86-11.17-6.39-.56-.49-.98-.83-1.27-1.03-.66-.24-1.25-.12-1.85.37ZM395.21,44.64c-.35,0-.61.18-.83.38-.35.35-.85.78-1.49,1.27-1.92,1.41-4.09,2.78-6.48,4.07h17.99c-2.44-1.23-4.72-2.63-6.8-4.17-.5-.37-.98-.77-1.4-1.19-.4-.27-.72-.37-.98-.37ZM403.32,61.07h-15.1c-.59,0-1.07-.08-1.48-.26-.83-.44-1.03-1.03-1.05-1.45v-5.16s.02-.07.02-.07c.22-.91.83-1.47,1.73-1.56h.06s15.91.02,15.91.02c1.44.41,1.63,1.29,1.61,1.78v4.87s0,.05,0,.05c-.09.58-.33,1.03-.7,1.34-.27.2-.57.34-.92.43l-.07.02ZM386.91,54.35v4.98s.01.21.36.39c.2.08.54.14.96.14h14.94c.16-.05.3-.11.4-.19.11-.09.19-.27.24-.53v-4.8c0-.11.01-.35-.65-.56h-15.62c-.29.04-.52.16-.63.57ZM381.59,45.68c-.95,0-1.58-.6-1.7-1.65v-.05s0-.05,0-.05c.02-.38.19-.94.87-1.42l.15-.08c.95-.33,1.85-.72,2.67-1.14,1.77-.91,3.56-2.2,5.32-3.85,1.4-1.43,2.5-.67,2.91-.28l.07.08c.51.71.47,1.48-.09,2.18l-.05.06c-2.77,2.63-5.62,4.55-8.47,5.72-.57.27-1.06.43-1.46.46-.07,0-.15.01-.22.01ZM381.1,43.95c.07.47.25.54.61.51.18-.01.5-.08,1.06-.36,2.73-1.12,5.45-2.96,8.1-5.47.21-.27.18-.44.05-.64-.2-.18-.5-.38-1.17.3l-.02.02c-1.84,1.73-3.73,3.09-5.6,4.05-.84.43-1.77.83-2.74,1.17-.23.18-.28.33-.3.41ZM408.65,45.5c-.54,0-1.09-.24-1.64-.7-2.74-1.98-5.25-3.52-7.43-4.55-1.05-.54-1.42-1.4-1.02-2.36l.02-.05c.29-.55.68-.9,1.15-1.03.49-.14,1.04-.03,1.62.31,2.15,1.08,4.23,2.3,6.19,3.64-.21-.34-.26-.75-.14-1.19l.42-1.39c.19-.85.1-1.3-.02-1.54-.05-.05-.08-.07-.08-.07l-.17-.11h0s-.14-.09-.66-.02h-.08s-22.7,0-22.7,0c-.36-.05-.65-.01-.87.1-.12.11-.21.23-.26.33h0s-.04.16-.04.76v2.6c-.17,1.05-.91,1.6-2.02,1.47h-.07c-.72-.18-1.19-.73-1.32-1.54v-.1s0-4.66,0-4.66c.18-.84.74-1.94,2.43-2.39l.15-.02h11.07c.12,0,.17-.02.18-.03,0-.01.04-.08.04-.22.02-.48.08-.91.18-1.32.02-.31.19-.79.94-1.07h.02c.56-.2,1.1-.17,1.58.05l.11.06c.24.18.46.43.64.72l.05.09.02.1c.1.46.15.9.15,1.33,0,.18.03.25.05.27h0s.04.02.14.02h11.64c.57.06,1.07.25,1.48.58l.09.09c.79.95,1.12,2.12.96,3.48-.04,1.04-.22,2.02-.51,2.88-.3.71-.63,1.17-1.05,1.42l-.09.05c-.37.15-.73.18-1.06.12.3.22.6.44.89.66l.06.06c.63.63.67,1.2.58,1.57-.11.82-.6,1.38-1.38,1.57h-.08c-.07.02-.13.03-.2.03ZM399.67,38.38c-.09.21-.16.47.45.78,2.23,1.06,4.8,2.64,7.64,4.69.37.31.67.44.92.44.23-.07.39-.2.43-.57l.02-.1c.02-.08-.07-.24-.23-.41-2.49-1.88-5.22-3.58-8.12-5.04-.23-.14-.51-.26-.71-.21-.17.05-.31.24-.4.41ZM381.12,40.51c.45.04.57-.09.63-.42v-2.46c0-.85.08-1.13.17-1.3.13-.25.32-.5.59-.73l.09-.07c.45-.27,1.01-.37,1.66-.29h22.54c.67-.08,1.15,0,1.49.26.17.09.34.22.49.41l.05.08c.36.6.42,1.42.17,2.51l-.42,1.42c-.03.12-.04.22.16.37.2.16.37.19.6.11.11-.09.3-.29.51-.79.24-.71.39-1.58.43-2.54.12-1.05-.09-1.87-.64-2.56-.22-.15-.47-.25-.78-.28h-11.55c-.86,0-1.4-.57-1.4-1.5,0-.31-.03-.64-.1-.97-.07-.1-.14-.19-.22-.26-.18-.07-.38-.06-.62.01-.08.03-.12.06-.15.07l-.02.08c-.08.35-.14.73-.16,1.13,0,.87-.55,1.43-1.43,1.43h-10.99c-.83.24-1.3.68-1.47,1.39v4.42c.07.36.22.45.36.49Z"/>
        </g>
        <g>
          <path class="cls-2" d="M422.07,42.45c.37-.66.8-1.05,1.31-1.17h12.68c.92.09,1.52.69,1.82,1.79v6.29c-.11.99-.76,1.64-1.92,1.96h-11.14c-.57,0-.86.27-.86.82-.07,2.64-.68,5.37-1.82,8.22-.14.41-.39.87-.76,1.38-.34.41-.71.58-1.1.52-.99-.32-1.28-.88-.89-1.68,1.63-2.77,2.47-5.84,2.54-9.21v-7.53c0-.69.05-1.15.14-1.38ZM429.7,31.21c.57-.27,1.15-.22,1.72.17,2.54,1.65,5.29,2.85,8.25,3.61.41.16.64.45.69.86.07.62-.17,1.05-.72,1.31-.23.07-.46.08-.69.03-2.61-.57-5.13-1.7-7.56-3.37-.46-.3-.86-.42-1.2-.38-.23.07-.46.2-.69.38-3.23,2.29-6.21,3.77-8.94,4.43-.37.12-.71-.01-1.03-.38-.23-.43-.29-.85-.17-1.24.18-.34.42-.54.72-.58,3.32-.99,6.53-2.6,9.62-4.85ZM425.61,43.07c-.53,0-.86.02-1,.07-.53.32-.73.84-.62,1.55,0,.53.29.79.86.79h10.14c.55,0,.82-.27.82-.82s-.01-.88-.03-1c-.02-.14-.16-.29-.41-.45-.21-.09-.58-.14-1.13-.14h-8.63ZM435.86,48.02c-.02-.6-.3-.89-.82-.89h-10.17c-.57,0-.86.27-.86.82v.72c0,.57.29.86.86.86h9.31c.55,0,.94-.05,1.17-.14.43-.3.61-.76.52-1.38ZM425.37,37.09l.52-.03h9.28c.64.23.85.68.62,1.34-.07.23-.25.41-.55.55-.12.05-.52.07-1.2.07h-8.39c-.67-.11-.97-.5-.93-1.17.18-.48.4-.73.65-.76ZM426.06,54c.18-.05.61-.07,1.27-.07h9.11c.89.09,1.43.54,1.62,1.34v5.12c-.23.98-.79,1.58-1.68,1.79h-9.83c-.87-.25-1.35-.79-1.44-1.62v-5.33c.11-.55.43-.96.96-1.24ZM428.23,55.99c-.87.21-1.23.82-1.07,1.86-.02.69.01,1.16.1,1.41.23.53.57.8,1.03.82h6.57c.39-.05.71-.26.96-.65.09-.25.14-.65.14-1.2v-1.1c-.02-.39-.24-.71-.65-.96-.28-.11-.68-.17-1.2-.17h-5.88ZM447.92,32.14c.21-.89.73-1.24,1.58-1.03.46.18.72.56.79,1.13v27.67c0,.43-.14.89-.41,1.38-.8,1.17-1.79,1.7-2.96,1.58-1.65-.09-3.02-.3-4.12-.62-.99-.21-1.43-.71-1.34-1.51.21-.76.68-1.08,1.41-.96,1.21.32,2.13.54,2.75.65.69.11,1.15.11,1.37,0,.57-.28.88-.71.93-1.31v-26.98ZM442.66,33.58c.73-.21,1.25.11,1.55.96v19.66c-.05.44-.26.74-.65.93-.82.34-1.39.05-1.68-.89v-19.66c.02-.53.29-.86.79-1Z"/>
          <path class="cls-2" d="M447.24,63.49c-.12,0-.25,0-.37-.02-1.66-.09-3.1-.31-4.24-.64-1.78-.37-1.83-1.64-1.77-2.16l.02-.09c.29-1.05,1.05-1.56,2.09-1.4h.06c1.19.33,2.1.54,2.71.66.78.13.99.05,1,.05.38-.18.56-.43.59-.81v-27.01s.01-.07.01-.07c.14-.62.43-1.06.84-1.32.4-.25.9-.3,1.47-.16l.08.03c.47.19,1.05.62,1.17,1.62v.07s0,27.67,0,27.67c0,.54-.17,1.11-.49,1.68-.87,1.27-1.93,1.9-3.17,1.9ZM442.06,60.85c-.03.25-.01.62.87.8,1.1.32,2.44.52,4.04.61.96.09,1.75-.34,2.42-1.32.19-.34.31-.71.31-1.03v-27.63c-.05-.39-.21-.52-.37-.6-.17-.04-.37-.05-.51.03-.15.09-.23.31-.28.5v26.91c-.06.86-.5,1.48-1.27,1.85-.35.17-.89.19-1.74.05-.64-.12-1.57-.34-2.77-.66-.35-.05-.55.02-.69.49ZM420.45,62.87c-.1,0-.19,0-.27-.02l-.08-.02c-.7-.23-1.16-.59-1.36-1.06-.18-.43-.15-.93.11-1.46,1.59-2.71,2.42-5.71,2.48-8.96v-7.52c0-.79.06-1.29.18-1.6l.03-.07c.45-.82,1.02-1.31,1.7-1.47l.13-.02h12.68c.88.08,1.95.54,2.41,2.23l.02.16v6.36c-.1.86-.6,1.99-2.37,2.47l-.16.02h-11.14c-.15,0-.21.03-.23.04,0,0-.03.06-.03.18-.07,2.71-.7,5.55-1.87,8.44-.15.44-.42.94-.83,1.5-.51.62-1.02.78-1.43.78ZM420.43,61.66c.09,0,.25-.02.49-.31.3-.42.53-.83.65-1.18,1.13-2.8,1.73-5.49,1.79-8.04,0-.87.56-1.41,1.46-1.41h11.05c1.12-.33,1.35-.94,1.4-1.39v-6.17c-.31-1.05-.87-1.23-1.28-1.27h-12.55c-.3.09-.58.37-.83.82-.03.09-.09.37-.09,1.12v7.53c-.07,3.47-.95,6.67-2.63,9.52-.03.07-.12.29-.06.42.03.06.13.22.58.37ZM436.44,62.79l-10.07-.02c-1.11-.32-1.76-1.06-1.88-2.13v-.07s0-5.45,0-5.45c.15-.72.59-1.29,1.28-1.65l.13-.05c.16-.04.47-.09,1.42-.09h9.17c1.46.15,1.97,1.07,2.14,1.81l.02.14-.02,5.26c-.28,1.21-1.02,1.98-2.14,2.24l-.07.02ZM426.63,61.57h9.67c.61-.16.98-.56,1.15-1.25v-4.98c-.13-.5-.45-.74-1.04-.81h-9.08c-.67,0-.95.02-1.06.04-.3.18-.49.41-.56.73v5.22c.07.54.36.86.93,1.05ZM434.9,60.69h-6.6c-.52-.03-1.18-.25-1.59-1.19-.13-.36-.18-.86-.15-1.62-.18-1.3.37-2.21,1.53-2.48l.14-.02h5.88c.61,0,1.08.07,1.43.22l.08.04c.73.45.92,1.03.94,1.44v1.14c0,.63-.06,1.09-.17,1.41l-.06.12c-.44.68-1,.88-1.4.93h-.04ZM428.3,56.6c-.36.1-.68.29-.54,1.16v.06s0,.06,0,.06c-.03.85.04,1.12.07,1.18.18.41.39.42.49.43h6.49c.12-.02.28-.08.45-.32.04-.14.08-.41.08-.94v-1.1c0-.09-.05-.24-.32-.42-.15-.05-.43-.11-.93-.11h-5.8ZM442.94,55.88c-.23,0-.44-.05-.64-.14-.46-.21-.8-.66-1.01-1.31l-.03-.18v-19.66c.03-.82.47-1.37,1.23-1.58,1.05-.29,1.88.2,2.28,1.34l.03.1v19.83c-.07.65-.42,1.14-1,1.41-.31.13-.6.2-.87.2ZM442.48,54.14c.09.27.21.44.34.5.14.06.36,0,.51-.07.17-.08.25-.2.28-.41v-19.52c-.25-.64-.54-.55-.78-.49h0c-.25.07-.33.18-.34.44v19.54ZM434.17,50.14h-9.31c-.9,0-1.46-.56-1.46-1.46v-.72c0-.88.56-1.43,1.46-1.43h10.17c.85,0,1.38.54,1.43,1.44.14,1.06-.34,1.63-.78,1.93l-.12.06c-.31.12-.75.18-1.39.18ZM424.86,47.73c-.15,0-.21.03-.23.04,0,0-.03.06-.03.18v.72c0,.24.01.25.25.25h9.31c.52,0,.77-.04.89-.07.14-.12.26-.31.2-.74v-.07c-.02-.31-.07-.31-.23-.31h-10.17ZM435,46.08h-10.14c-.89,0-1.44-.51-1.46-1.35-.14-.92.19-1.67.91-2.11l.12-.06c.16-.05.41-.1,1.19-.1h8.63c.65,0,1.09.06,1.38.19l.08.04c.26.17.61.43.68.86.02.1.04.32.04,1.1,0,.88-.55,1.43-1.43,1.43ZM424.63,44.83s.06.03.23.03h10.14c.14,0,.19-.03.19-.03,0,0,.03-.05.03-.19,0-.51-.01-.73-.02-.82-.02-.02-.05-.04-.1-.08-.08-.02-.31-.07-.86-.07h-8.63c-.46,0-.67.02-.76.03-.19.14-.34.37-.26.88v.1c0,.11.03.15.03.15h0ZM435.23,43.86h0ZM434.03,39.62h-8.49c-.98-.18-1.5-.84-1.43-1.82l.03-.16c-1.19.53-2.34.93-3.45,1.2-.31.1-.99.17-1.63-.57l-.08-.12c-.3-.58-.38-1.15-.22-1.69l.05-.11c.33-.62.78-.83,1.12-.89,3.23-.96,6.39-2.56,9.41-4.75l.09-.06c.77-.37,1.57-.29,2.32.22,2.47,1.6,5.18,2.79,8.06,3.52l.07.02c.62.24,1,.72,1.07,1.36.1.88-.28,1.56-1.07,1.92l-.08.03c-.33.1-.66.11-.98.05-.9-.2-1.79-.46-2.67-.78.34.4.42.96.2,1.59-.08.25-.29.64-.87.9-.18.07-.39.12-1.46.12ZM425.7,38.41h8.33c.68,0,.92-.02.99-.03.1-.05.17-.11.18-.15.12-.36.08-.46-.15-.56l-9.58.03s-.09.11-.16.29c0,.27.09.38.38.43ZM420.03,37.53c.19.2.29.16.35.15,2.68-.65,5.61-2.11,8.77-4.35.26-.21.56-.37.86-.46l.09-.02c.49-.07,1.03.09,1.61.47,2.37,1.63,4.84,2.73,7.36,3.29.11.02.22.02.35-.01.28-.14.37-.33.33-.67-.02-.15-.07-.26-.28-.35-2.99-.77-5.81-2.01-8.39-3.68-.39-.27-.72-.31-1.08-.15-3.12,2.26-6.4,3.91-9.76,4.9l-.08.02s-.13.02-.25.21c-.04.2,0,.42.11.66ZM430.31,34.04c-.14.05-.28.14-.43.25-1.15.82-2.28,1.54-3.37,2.15h8.3c-1.28-.58-2.54-1.29-3.76-2.13-.29-.19-.54-.28-.74-.28Z"/>
        </g>
        <g>
          <path class="cls-2" d="M489.67,31.52c.32-.07.64.01.96.24.37.3.48.68.34,1.13-.09.39-.48.72-1.17,1-.76.23-2.07.46-3.95.69-1.54.05-2.91.22-4.12.52-.46.18-.73.62-.82,1.31v3.88c0,.57.29.86.86.86h9.56c.94.21,1.26.75.96,1.62-.18.41-.48.65-.89.72h-2.13c-.57,0-.86.28-.86.82v18.25c-.21.82-.64,1.19-1.31,1.1-.64-.16-.99-.52-1.03-1.07v-18.29c0-.55-.27-.82-.82-.82h-3.47c-.57,0-.86.28-.86.82v5.09c-.09,1.9-.41,3.74-.96,5.5-.76,2.36-2.12,4.65-4.09,6.87-.6.78-1.28.82-2.06.14-.37-.46-.32-.92.14-1.38.48-.69.99-1.37,1.51-2.06.18-.21.24-.41.17-.62-.05-.05-.34-.01-.89.1-.46.05-.85-.18-1.17-.69-.87-1.03-1.76-2.06-2.68-3.09-.62-.66-.93-.71-.93-.14v8.52c-.21.73-.67,1.07-1.38,1-.5-.09-.79-.42-.86-1v-8.52c0-.6-.21-.61-.62-.03-.92,1.35-1.94,2.67-3.06,3.95-1.24,1.42-2.2,2.15-2.89,2.2-.3,0-.57-.13-.82-.38-.39-.5-.32-1.03.21-1.58,2.29-1.97,4.26-4.11,5.91-6.43.41-.57.32-.86-.27-.86h-5.02c-.39-.02-.69-.25-.89-.69-.14-.55.03-.97.52-1.27.21-.07.65-.1,1.34-.1h4.78c.55,0,.82-.29.82-.86v-1.89c0-.55-.27-.82-.82-.82h-5.6c-.92-.25-1.16-.82-.72-1.72.3-.34.84-.46,1.62-.34h7.36c.55,0,.96-.27,1.24-.82.57-1.31,1.02-2.65,1.34-4.02.18-.78.62-1.09,1.31-.93.5.09.74.46.72,1.1-.18,1.19-.55,2.45-1.1,3.78-.25.6-.1.89.45.89h2.41c.69.21.94.63.76,1.27-.16.48-.42.75-.79.79h-5.05c-.57,0-.86.27-.86.82v1.89c0,.57.29.86.86.86h4.06c.69-.07,1.2,0,1.55.21.21.16.3.46.28.89-.07.44-.3.73-.69.89-.09.05-.48.07-1.17.07h-3.68c-.6,0-.61.27-.03.82,1.33,1.31,2.62,2.64,3.88,3.99.43.55.64,1.09.62,1.62.05.62.24.65.59.1,1.49-2.47,2.32-5.12,2.51-7.94v-14.99c0-.82.45-1.37,1.34-1.65.23-.07.69-.14,1.37-.21,2.47-.09,5.23-.47,8.25-1.13ZM468.36,30.97c.43-.27.87-.29,1.31-.03.21.09.36.3.45.62.09.32.14.77.14,1.34s.26.89.79.89h3.68c.69-.09,1.21-.01,1.58.24.46.62.46,1.17,0,1.65-.11.14-.3.24-.55.31h-14.27c-.53-.16-.79-.55-.79-1.17.02-.57.33-.92.93-1.03h5.47c.55,0,.84-.29.86-.86,0-.44.03-.87.1-1.31.02-.32.13-.54.31-.65ZM463.82,37.43c.71-.32,1.24-.01,1.58.93.73,1.19,1.12,2.22,1.17,3.09-.12.69-.5.96-1.17.82-.32-.14-.54-.39-.65-.76-.39-1.12-.78-2.04-1.17-2.75-.34-.48-.26-.93.24-1.34Z"/>
          <path class="cls-2" d="M487.27,64.27c-.1,0-.19,0-.26-.02h-.06c-1.2-.31-1.45-1.15-1.49-1.62v-18.34c0-.14-.03-.19-.03-.19,0,0,.02-.03-.19-.03h-3.47c-.15,0-.21.03-.23.04,0,0-.03.06-.03.18v5.09c-.1,1.98-.43,3.88-.99,5.68-.78,2.43-2.2,4.82-4.22,7.1-.37.48-.82.77-1.33.82-.53.05-1.06-.16-1.59-.63l-.07-.08c-.55-.69-.5-1.47.14-2.14.37-.52.75-1.05,1.15-1.58h0c-.46,0-1.05-.18-1.54-.94-.81-.96-1.66-1.94-2.52-2.91l-.02,8c-.28,1.01-1.02,1.53-2.02,1.43-.82-.15-1.3-.69-1.4-1.53v-.07s0-7.52,0-7.52c-.8,1.12-1.68,2.23-2.62,3.31-1.38,1.58-2.43,2.35-3.3,2.41h0c-.5,0-.92-.19-1.29-.55l-.05-.06c-.57-.74-.48-1.61.25-2.37,2.25-1.94,4.19-4.04,5.79-6.26h-4.73c-.46-.03-1.06-.23-1.44-1.03l-.04-.11c-.2-.81.08-1.5.78-1.93l.13-.06c.19-.06.53-.13,1.53-.13h4.78c.12,0,.17-.02.18-.03,0-.01.04-.08.04-.22v-1.89c0-.14-.03-.19-.03-.19h0s-.05-.03-.19-.03l-5.76-.02c-.63-.17-1.05-.49-1.25-.93-.21-.46-.16-1.01.15-1.63l.09-.13c.43-.5,1.15-.69,2.12-.55h2.56c-.28-.22-.48-.52-.6-.9-.37-1.06-.74-1.94-1.11-2.61-.5-.73-.36-1.53.37-2.13l.13-.08c.58-.26,1.04-.18,1.31-.07.46.19.81.62,1.06,1.28.77,1.27,1.18,2.36,1.23,3.33v.07s0,.07,0,.07c-.08.46-.26.81-.54,1.05h2.9c.22,0,.48-.06.7-.49.54-1.24.98-2.56,1.29-3.89.26-1.1,1.02-1.62,2.03-1.38.35.06,1.24.37,1.19,1.71v.07c-.2,1.24-.58,2.56-1.15,3.92,0,.02-.02.04-.02.06l2.49.03c1,.3,1.44,1.06,1.16,2.02-.31.92-.88,1.17-1.3,1.23h-.07s-5.05,0-5.05,0c-.15,0-.21.03-.23.04,0,0-.03.06-.03.18v1.89c0,.24.01.25.25.25h4.06c.77-.08,1.4.01,1.86.29l.06.04c.37.29.54.76.51,1.4v.06c-.11.65-.47,1.12-1.06,1.36-.11.06-.31.11-1.4.11h-3.07c1.25,1.23,2.48,2.5,3.69,3.79.3.38.51.75.64,1.12,1.18-2.18,1.87-4.52,2.03-6.97v-14.95c0-1.09.63-1.88,1.77-2.23.17-.05.51-.13,1.49-.23,2.47-.09,5.2-.47,8.18-1.12h0c.34-.08.86-.07,1.44.34.59.48.78,1.11.57,1.8-.13.56-.63,1.03-1.52,1.38-.85.26-2.17.49-4.1.73-1.52.05-2.85.21-4.01.49-.11.05-.33.2-.41.77v3.84c0,.24.01.25.25.25h9.69c.65.16,1.11.45,1.35.88.24.42.26.94.05,1.53-.29.65-.75,1.02-1.37,1.12h-.1s-2.13,0-2.13,0c-.15,0-.21.03-.23.04,0,0-.03.06-.03.18l-.02,18.4c-.34,1.34-1.18,1.57-1.72,1.57ZM487.21,63.06c.18.02.42.02.59-.58v-18.17c0-.88.56-1.43,1.46-1.43h2.07c.14-.03.28-.11.4-.36.06-.2.08-.39.02-.5-.06-.11-.24-.2-.5-.27h-9.49c-.9,0-1.46-.56-1.46-1.46v-3.96c.16-1.14.74-1.6,1.2-1.79l.08-.03c1.25-.31,2.68-.49,4.25-.53,1.78-.22,3.08-.44,3.8-.66.5-.2.72-.42.75-.56.08-.26.04-.38-.14-.53-.21-.15-.36-.14-.45-.12-3.05.67-5.86,1.06-8.36,1.15-.81.08-1.12.15-1.22.18-.8.25-.91.68-.91,1.07v14.99c-.19,2.94-1.06,5.71-2.6,8.25-.09.14-.26.41-.51.57-.05.17-.14.36-.31.55-.49.64-1,1.33-1.47,2.01l-.07.08c-.28.27-.23.4-.13.53.18.15.41.32.63.3.2-.02.39-.22.51-.38,1.93-2.18,3.27-4.42,3.99-6.69.53-1.7.84-3.5.93-5.34v-5.06c0-.88.56-1.43,1.46-1.43h3.47c.88,0,1.43.55,1.43,1.43v18.29c.01.14.07.34.54.47ZM468.31,62.52c.05.36.2.41.36.44.29.03.52-.05.66-.49v-8.44c0-.62.28-.86.52-.95.6-.24,1.18.38,1.45.68.92,1.04,1.83,2.09,2.7,3.12l.05.07c.26.4.46.42.57.41.14-.03.26-.05.38-.07,0-.37-.16-.77-.49-1.19-1.23-1.32-2.53-2.65-3.83-3.93-.23-.22-.78-.75-.55-1.33.1-.24.35-.53,1.01-.53h3.68c.67,0,.89-.02.96-.03.16-.08.25-.17.29-.39,0-.21-.02-.31-.04-.34-.16-.07-.48-.16-1.12-.09h-4.12c-.9,0-1.46-.56-1.46-1.46v-1.89c0-.88.56-1.43,1.46-1.43h5c.06-.01.16-.07.27-.38.06-.21.08-.35-.28-.47h-2.31c-.58,0-.87-.25-1.01-.46-.22-.33-.22-.76,0-1.27.52-1.26.88-2.47,1.05-3.6,0-.41-.12-.43-.23-.45-.27-.06-.47-.11-.61.47-.33,1.4-.79,2.79-1.38,4.13-.49.99-1.25,1.19-1.79,1.19h-7.44c-.49-.08-.85-.04-1.02.09-.1.23-.13.42-.09.52.04.09.18.18.4.24h5.52c.88,0,1.43.55,1.43,1.43v1.89c0,.9-.55,1.46-1.43,1.46h-4.78c-.69,0-.98.04-1.09.06-.19.13-.24.27-.19.51.15.28.29.28.35.29h4.98c.64,0,.92.28,1.04.51.28.54-.14,1.12-.27,1.31-1.67,2.34-3.69,4.54-6.01,6.53-.36.38-.26.57-.15.72.17.16.29.18.37.18.19-.01.91-.24,2.43-1.99,1.1-1.26,2.12-2.57,3.02-3.9.19-.26.6-.84,1.18-.65.55.18.55.82.55,1.03v8.49ZM470.55,53.96h0ZM467.09,53.88h0ZM471.03,51.52h0ZM475.76,50.28s-.03.01-.04.02c.02,0,.03-.01.04-.02ZM473.38,42.59h0ZM465.59,41.7c.14.02.22,0,.25-.02.04-.03.09-.11.12-.27-.06-.75-.42-1.67-1.07-2.74l-.05-.11c-.18-.49-.35-.61-.42-.64-.07-.03-.16-.02-.27.02-.24.22-.18.32-.07.47l.04.06c.4.73.81,1.69,1.21,2.84.07.23.17.32.27.37ZM475.83,36.59l-14.52-.03c-.79-.24-1.22-.86-1.22-1.75.03-.87.55-1.46,1.42-1.63h.11s5.47-.01,5.47-.01c.2,0,.24,0,.25-.28,0-.44.04-.91.11-1.38.04-.6.34-.92.59-1.07.62-.39,1.28-.41,1.9-.06.36.17.61.51.75.99.11.38.16.87.16,1.51,0,.18.03.26.05.27h0s.04.02.14.02h3.64c.82-.1,1.48.01,1.96.35l.08.06.06.08c.63.85.61,1.73-.05,2.43-.17.2-.46.37-.83.48l-.08.02ZM461.58,35.38h14.08c.13-.04.17-.09.17-.09.19-.2.32-.39.04-.81-.24-.12-.61-.15-1.08-.09h-.08s-3.68,0-3.68,0c-.86,0-1.4-.57-1.4-1.5,0-.64-.06-.99-.11-1.18-.05-.16-.1-.22-.11-.23l-.06-.03c-.24-.14-.43-.13-.67.02,0,.02-.03.07-.04.19-.07.45-.1.86-.1,1.26-.04.93-.59,1.46-1.46,1.46h-5.4c-.31.07-.38.21-.39.45,0,.36.13.48.28.54Z"/>
        </g>
        <g>
          <path class="cls-2" d="M504.75,31.07c.48-.09.93.1,1.34.58.09.28.14.75.14,1.41v5.02c0,.57.29.86.86.86h1.68c.57.07.9.39,1,.96.07.6-.15,1.01-.65,1.24-.25.09-.71.14-1.37.14h-.65c-.57,0-.86.27-.86.82v20.07c-.07.53-.4.88-1,1.07-.76.05-1.22-.31-1.37-1.07v-20.07c0-.55-.28-.82-.82-.82h-1.65c-.69-.16-1.01-.62-.96-1.38.14-.6.47-.92,1-.96h1.62c.55,0,.82-.29.82-.86v-5.98c.07-.57.37-.92.89-1.03ZM512.79,45.16c.46-.32.94-.27,1.44.14.23.39.3.92.21,1.58,0,.57.29.86.86.86h2.1c1.51.18,2.23,1.04,2.17,2.58,0,3.74-.27,6.94-.82,9.62-.09.66-.34,1.24-.76,1.72-.82.85-1.97,1.27-3.44,1.27-.92.02-1.66-.25-2.23-.82-.14-.23-.18-.5-.14-.82.23-.85.66-1.19,1.31-1.03.41.11.84.21,1.27.27.82.14,1.42-.42,1.79-1.68.57-1.88.78-4.32.62-7.32-.02-.41-.13-.8-.31-1.17-.46-.46-1.04-.64-1.75-.55-.55,0-.87.29-.96.86-.43,3.07-1.18,5.76-2.23,8.08-.37.78-.89,1.7-1.58,2.75-.73,1.1-1.35,1.58-1.86,1.44-.76-.3-1.01-.79-.76-1.48.11-.23.27-.46.48-.69,1.19-1.63,2.15-3.46,2.89-5.5.64-1.99,1.02-3.54,1.13-4.64.04-.55-.22-.82-.79-.82h-1.68c-.76-.21-1.04-.68-.86-1.41.14-.39.43-.61.89-.65h1.79c.55,0,.82-.29.82-.86-.02-.57.01-.97.1-1.2.09-.23.19-.4.31-.52ZM518.98,31.11c.41-.16.76-.15,1.03.03.5.32.7.84.58,1.55,0,.57.29.86.86.86h7.49c1.19.14,1.84.79,1.96,1.96.11,1.74-.16,3.78-.82,6.12-.18.57-.42,1.03-.72,1.38-.99.76-2.1,1.03-3.33.82-1.35-.11-2.73-.43-4.12-.96-.48-.27-.63-.71-.45-1.31.21-.5.49-.7.86-.58.92.09,1.83.21,2.75.34,1.05.14,1.81.09,2.27-.14.46-.27.71-.6.76-.96.46-1.03.66-2.13.62-3.3-.02-.5-.34-.89-.96-1.17l-.38-.1h-6.08c-.55,0-.87.29-.96.86-.34,2.2-1.39,4.02-3.13,5.47-1.54,1.15-3.6,1.96-6.19,2.44-.44.02-.78-.01-1.03-.1-.41-.16-.63-.53-.65-1.1,0-.62.35-1.01,1.06-1.17,1.47-.25,2.84-.66,4.12-1.24,1.83-.96,3-2.39,3.51-4.3.16-.57-.03-.86-.59-.86h-6.43c-.71-.14-1.02-.55-.93-1.24-.02-.16.11-.39.41-.69.14-.09.31-.15.52-.17h6.53c.55,0,.82-.29.82-.86-.12-.71.09-1.24.62-1.58ZM525.41,45.1c.64-.09,1.07.22,1.27.93v.96c0,.57.29.86.86.86h2.23c.39.02.85.2,1.37.52.23.21.4.42.52.65.23.69.37,1.49.41,2.41v1.89c-.14,2.52-.31,4.35-.52,5.5-.14,1.05-.45,1.97-.93,2.75-.3.5-.72.85-1.27,1.03-1.22.48-2.57.46-4.06-.07-.92-.39-1.16-1.03-.72-1.92.23-.39.55-.57.96-.55.87.23,1.51.38,1.92.45.85.14,1.43-.32,1.75-1.38.37-1.28.54-2.83.52-4.64v-1.86c.07-.5.05-.96-.07-1.37-.32-1.03-1.1-1.47-2.34-1.31-.55,0-.87.29-.96.86-.46,3.51-1.52,6.66-3.2,9.45-.27.46-.57.92-.89,1.38-.37.57-.79.94-1.27,1.1-.39.14-.73.03-1.03-.31-.46-.53-.37-1.1.27-1.72,2.41-3.02,3.79-6.34,4.16-9.93.02-.55-.24-.82-.79-.82h-1.79c-.71-.18-1-.65-.86-1.41.11-.37.4-.6.86-.69h1.96c.55,0,.82-.29.82-.86-.02-.6.01-1.01.1-1.24.21-.41.43-.63.69-.65Z"/>
          <path class="cls-2" d="M505.11,63.85c-.97,0-1.63-.56-1.84-1.55v-.12s-.01-20.07-.01-20.07c0-.14-.03-.19-.03-.19,0,0,.02-.03-.19-.03l-1.79-.02c-.97-.23-1.49-.96-1.43-2v-.1c.21-.85.76-1.36,1.55-1.43h1.67c.12,0,.17-.02.18-.03,0-.01.04-.08.04-.22v-6.05c.1-.83.59-1.38,1.37-1.55h.01c.49-.09,1.21-.04,1.91.78l.08.09.04.11c.11.35.17.85.17,1.6v5.02c0,.24.01.25.25.25h1.76c.85.11,1.39.63,1.52,1.47.1.89-.25,1.55-1,1.89-.37.14-.87.19-1.62.19h-.65c-.15,0-.21.03-.23.04,0,0-.03.06-.03.18v20.15c-.08.54-.38,1.24-1.42,1.57l-.14.03c-.05,0-.11,0-.16,0ZM504.46,62.11c.1.4.26.53.66.53.38-.13.47-.32.5-.51v-20.03c0-.88.56-1.43,1.47-1.43h.65c.8,0,1.08-.07,1.17-.1.18-.08.3-.22.26-.6-.04-.27-.16-.39-.44-.43h-1.64c-.9,0-1.47-.56-1.47-1.46v-5.02c0-.61-.04-.94-.08-1.11-.33-.34-.57-.31-.67-.29-.22.05-.36.15-.41.48v5.94c0,.9-.55,1.46-1.43,1.46h-1.62c-.12.01-.29.06-.4.45-.02.45.15.6.44.68h1.57c.88,0,1.43.55,1.43,1.43v20.01ZM508.64,63.57c-.11,0-.22-.01-.34-.05l-.06-.02c-1.06-.42-1.47-1.26-1.1-2.25l.03-.06c.13-.27.32-.54.55-.8,1.14-1.57,2.08-3.36,2.79-5.32.62-1.93.99-3.45,1.1-4.5,0-.08,0-.13,0-.14,0,0-.06-.01-.18-.01l-1.84-.02c-1.07-.29-1.55-1.09-1.29-2.14.23-.66.73-1.04,1.42-1.11h.06s1.79,0,1.79,0c.12,0,.17-.02.18-.03,0-.01.04-.08.04-.22-.03-.65.02-1.11.15-1.43.12-.31.27-.54.44-.72h0c-.4.1-.82.19-1.25.27h-.08c-.52.03-.94,0-1.27-.13-.38-.15-1.01-.55-1.05-1.64,0-.55.2-1.48,1.54-1.78,1.44-.25,2.78-.65,4.01-1.2,1.66-.87,2.71-2.15,3.17-3.9.01-.04.02-.07.02-.1,0,0-.02,0-.02,0h-6.54c-1-.2-1.52-.89-1.42-1.86-.01-.44.31-.81.59-1.1l.09-.08c.22-.14.48-.23.78-.27h.07s6.53,0,6.53,0c.12,0,.17-.02.18-.03,0,0,.03-.07.04-.18-.17-1.17.39-1.8.89-2.13l.11-.06c.76-.29,1.28-.11,1.59.1.48.31,1.02.92.85,2.09,0,.2.03.21.25.21h7.56c1.46.17,2.35,1.06,2.49,2.51.12,1.82-.16,3.95-.85,6.34-.22.67-.5,1.2-.85,1.61l-.09.08c-1.12.86-2.4,1.18-3.8.94-1.36-.11-2.8-.45-4.24-.99l-.09-.04c-.73-.41-.99-1.15-.73-2.01.46-1.13,1.23-1.08,1.55-1,.92.09,1.84.21,2.73.34,1.2.16,1.71.02,1.91-.08.16-.1.4-.28.43-.5l.05-.17c.42-.94.61-1.96.57-3.03,0-.1-.02-.37-.56-.62l-.25-.07h-6c-.22,0-.31.03-.37.35-.36,2.34-1.49,4.3-3.34,5.84-1.07.8-2.38,1.45-3.91,1.94.29.05.61.19.95.46l.08.07.05.09c.29.5.39,1.15.29,1.93,0,.2.03.22.25.22h2.17c1.82.23,2.78,1.36,2.7,3.21,0,3.73-.28,7.01-.84,9.72-.1.74-.4,1.42-.89,1.99-.97.99-2.27,1.48-3.9,1.48-1.07.03-1.97-.31-2.66-1l-.09-.12c-.21-.35-.28-.76-.22-1.22v-.07c.46-1.67,1.59-1.58,2.05-1.46.41.11.81.2,1.22.26.2.04.71.12,1.11-1.26.55-1.81.75-4.2.6-7.12-.02-.3-.08-.57-.2-.84-.31-.28-.69-.38-1.18-.31h-.08c-.22,0-.31.04-.37.35-.44,3.1-1.21,5.87-2.28,8.23-.38.81-.93,1.76-1.63,2.83-.52.77-1.28,1.74-2.18,1.74ZM508.26,61.7c-.09.26-.1.45.37.65.07,0,.44-.09,1.18-1.2.66-1.02,1.18-1.92,1.54-2.67,1.02-2.25,1.76-4.91,2.18-7.9.14-.87.69-1.36,1.52-1.38.88-.11,1.64.15,2.22.73l.07.07.04.09c.22.44.34.91.37,1.4.16,3.06-.05,5.6-.64,7.53-.58,1.98-1.66,2.24-2.47,2.1-.44-.07-.89-.17-1.33-.29-.15-.04-.36-.09-.55.57-.02.13,0,.25.03.34.44.41,1.02.61,1.73.59,1.32,0,2.31-.36,3.02-1.09.31-.37.51-.83.59-1.38.55-2.67.82-5.86.82-9.54.05-1.24-.42-1.82-1.6-1.97h-2.06c-.9,0-1.46-.56-1.46-1.46v-.08c.07-.47.04-.84-.08-1.1-.27-.19-.44-.16-.57-.07-.03.04-.09.13-.15.28-.02.05-.09.28-.06.95,0,.93-.55,1.49-1.43,1.49h-1.75c-.26.03-.32.14-.36.25-.07.3-.04.47.37.6h1.6c.47,0,.83.14,1.08.41.25.27.35.63.32,1.07-.12,1.17-.5,2.72-1.16,4.78-.76,2.11-1.76,4.01-2.98,5.67l-.04.05c-.16.18-.28.35-.37.52ZM511.07,35.04h6.37c.58,0,.88.24,1.03.44.23.3.28.7.14,1.19-.55,2.06-1.83,3.63-3.81,4.67-1.36.61-2.79,1.04-4.3,1.3-.52.12-.56.35-.56.57.02.44.19.5.27.54.1.04.33.08.74.07,2.47-.46,4.45-1.25,5.9-2.32,1.59-1.32,2.57-3.03,2.89-5.07.14-.87.71-1.37,1.56-1.37l6.24.02.47.13c1.05.47,1.3,1.18,1.32,1.69.05,1.23-.17,2.41-.64,3.5-.1.52-.44.96-1.03,1.31-.61.31-1.47.37-2.66.22-.9-.14-1.82-.25-2.73-.34l-.11-.02s-.06.08-.12.23c-.1.32,0,.44.15.53,1.32.49,2.64.8,3.91.91,1.1.18,2.02-.04,2.86-.66.22-.28.41-.65.56-1.12.64-2.24.91-4.23.8-5.89-.08-.86-.5-1.28-1.39-1.39h-7.46c-.9,0-1.46-.56-1.46-1.46v-.1c.1-.59-.1-.81-.3-.94-.05-.03-.15-.1-.43,0-.21.15-.39.39-.3.94v.1c0,.9-.54,1.46-1.42,1.46h-6.49c-.07.01-.13.03-.18.05-.1.11-.16.18-.18.22v.07c-.05.31,0,.47.38.55ZM510.67,34.45h0ZM527.54,63.54c-.77,0-1.59-.15-2.43-.45-.65-.28-1.05-.65-1.23-1.13-.18-.48-.12-1.03.17-1.63.36-.62.9-.94,1.54-.89l.12.02c.85.22,1.48.37,1.87.43.26.04.75.12,1.08-.96.34-1.21.51-2.71.49-4.46v-1.95c.06-.42.04-.8-.05-1.13-.16-.51-.48-1.02-1.68-.87h-.08c-.21,0-.31.04-.36.35-.46,3.55-1.57,6.81-3.28,9.67-.28.46-.58.93-.92,1.41-.43.67-.96,1.12-1.58,1.33-.62.22-1.22.05-1.68-.49-.32-.36-.92-1.34.28-2.52,2.31-2.91,3.66-6.14,4.01-9.59,0-.08-.01-.13-.02-.15,0,0-.05-.01-.17-.01l-1.94-.02c-1.02-.26-1.5-1.03-1.3-2.1l.02-.07c.13-.41.46-.93,1.32-1.1h.12s1.96-.01,1.96-.01c.12,0,.17-.02.18-.03,0-.01.04-.08.04-.22-.03-.67.02-1.15.15-1.46.32-.65.71-.98,1.18-1.03.93-.13,1.64.37,1.92,1.36l.02.17v.96c0,.24.01.25.25.25h2.23c.53.03,1.07.23,1.69.6l.09.07c.28.25.5.53.65.83l.03.08c.24.74.39,1.6.44,2.57v1.92c-.14,2.61-.31,4.43-.52,5.61-.14,1.1-.48,2.11-1.01,2.96-.37.62-.9,1.06-1.59,1.29-.63.25-1.31.38-2.02.38ZM525.46,60.65c-.13,0-.24.06-.36.25-.08.16-.17.44-.1.63.07.2.33.34.54.43,1.32.47,2.51.49,3.6.06.44-.15.75-.4.97-.78.44-.71.72-1.56.85-2.52.21-1.14.38-2.97.51-5.45v-1.86c-.04-.81-.17-1.55-.37-2.17-.07-.14-.18-.27-.32-.4-.52-.31-.85-.39-1.05-.4h-2.2c-.9,0-1.46-.56-1.46-1.46v-.87c-.15-.44-.35-.46-.58-.42h0s-.11.09-.22.32h0s-.07.23-.04.94c0,.93-.55,1.49-1.43,1.49h-1.89c-.25.06-.31.16-.34.23-.07.43.06.57.35.66h1.7c.44,0,.8.13,1.05.39.25.26.37.62.35,1.06-.38,3.73-1.82,7.18-4.29,10.29l-.05.06c-.55.53-.37.74-.24.89.16.19.26.18.37.14.35-.12.67-.4.96-.86.33-.47.62-.92.88-1.36,1.62-2.71,2.67-5.81,3.12-9.22.14-.87.69-1.37,1.52-1.39,1.5-.19,2.55.43,2.96,1.73.14.5.17,1.03.1,1.59v1.82c.02,1.85-.16,3.47-.54,4.81-.56,1.83-1.76,1.91-2.43,1.81-.42-.07-1.05-.21-1.91-.44Z"/>
        </g>
        <g>
          <path class="cls-2" d="M555.61,31.35c1.28-.71,2.68-.54,4.19.52,3.9,2.11,8.02,3.66,12.37,4.64.41.07.74.25,1,.55.27.46.22.97-.17,1.55-.11.09-.29.16-.52.21-.94-.09-1.86-.29-2.75-.58-1.95-.57-3.84-1.21-5.67-1.92-.57-.23-.79-.15-.65.24.23.55.08,1.02-.45,1.41-.16.07-.57.1-1.24.1h-10.14c-.69-.16-.99-.56-.89-1.2.02-.37-.25-.43-.82-.21-2.7,1.08-4.94,1.8-6.7,2.17-.62.16-1.08.21-1.38.14-.5-.27-.71-.76-.62-1.44.09-.3.32-.53.69-.69,4.77-1.21,8.89-2.76,12.37-4.64.46-.23.92-.5,1.38-.82ZM543.92,41.01c.27-.53.65-.81,1.13-.86h23.58c.94.21,1.47.65,1.58,1.34v5.71c-.14.8-.65,1.35-1.55,1.65h-23.55c-.71-.14-1.16-.63-1.34-1.48v-4.98c0-.69.05-1.15.14-1.38ZM545.43,52.69c.18-.69.61-1.11,1.27-1.27h20.25c.89.14,1.42.6,1.58,1.38v8.35c-.12.87-.65,1.44-1.62,1.72h-20.04c-.85-.21-1.33-.73-1.44-1.58v-8.59ZM546.88,41.97c-.64.18-.97.52-1,1v3.02c.02.5.37.85,1.03,1.03h8.42c.55,0,.82-.29.82-.86v-3.37c0-.55-.28-.82-.82-.82h-8.46ZM566.2,58.95c-.02-.6-.3-.89-.82-.89h-16.74c-.57,0-.86.28-.86.82-.02.64.01,1.08.1,1.31.21.57.56.87,1.07.89h16.05c.6-.12.96-.37,1.1-.76.11-.27.15-.73.1-1.37ZM548.87,53.24c-.41.02-.73.24-.96.65-.09.23-.14.68-.14,1.34s.29,1.03.86,1.03h16.74c.55,0,.82-.29.82-.86.07-.73.01-1.26-.17-1.58-.44-.5-1.02-.7-1.75-.58h-15.4ZM549.42,44.1c-.14-.71.21-1.15,1.03-1.31.16-.05.39.06.69.31,1.03,1.15,1.45,2.05,1.27,2.72-.07.12-.28.3-.62.55-.34.12-.65.08-.93-.1-.25-.3-.44-.56-.55-.79-.28-.46-.57-.92-.89-1.38ZM557.74,33.41c-.78-.23-1.62.01-2.51.72l-2.06,1.1c-.55.37-.82.58-.82.65.21.18.57.26,1.1.24h7.77c.53.02.89-.06,1.1-.24.02-.16-.13-.32-.45-.48-.92-.41-1.83-.87-2.75-1.37-.53-.32-.99-.53-1.37-.62ZM567.36,42.07c-.21-.07-.57-.1-1.1-.1h-7.18c-.57,0-.86.27-.86.82v3.37c0,.57.37.86,1.1.86s1.32-.27,1.75-.82c.66-.94,1.18-1.81,1.55-2.61.34-.6.76-.82,1.24-.69.28.07.49.22.65.45.23.41.19.87-.1,1.37l-.86,1.44c-.37.57-.25.86.34.86h3.2c.85-.23,1.19-.86,1.03-1.89v-1.41c0-.55-.03-.92-.1-1.1-.11-.23-.33-.41-.65-.55Z"/>
          <path class="cls-2" d="M567,63.47l-20.27-.02c-1.09-.27-1.75-.99-1.9-2.09v-.08s.01-8.75.01-8.75c.24-.9.83-1.49,1.71-1.7l.14-.02h20.34c1.45.23,1.93,1.14,2.08,1.86v.12s0,8.43,0,8.43c-.1.78-.54,1.79-2.05,2.22l-.08.02ZM546.95,62.26h19.87c.67-.21,1.01-.57,1.1-1.16v-8.24c-.08-.35-.29-.71-1.02-.84h-20.12c-.39.11-.62.35-.74.75v8.47c.09.56.36.87.92,1.02ZM565.05,61.69h-16.11c-.46-.02-1.25-.21-1.63-1.29-.12-.3-.17-.79-.14-1.53,0-.86.56-1.41,1.46-1.41h16.74c.86,0,1.39.55,1.43,1.47.05.75,0,1.27-.15,1.64-.14.38-.52.92-1.54,1.12h-.06ZM548.63,58.66c-.15,0-.21.03-.23.04,0,0-.03.06-.03.18-.03.82.04,1.04.06,1.08.18.5.41.51.53.51h15.96c.33-.07.53-.19.59-.35.05-.11.12-.39.07-1.13v-.02c-.01-.31-.07-.31-.22-.31h-16.74ZM565.37,56.87h-16.74c-.92,0-1.46-.61-1.46-1.64,0-.77.06-1.26.18-1.57l.03-.07c.42-.75,1.02-.94,1.46-.96h.03s15.36,0,15.36,0c.91-.13,1.69.14,2.26.79l.07.1c.25.44.33,1.07.25,1.94,0,.85-.55,1.41-1.43,1.41ZM548.46,54.15c-.03.09-.08.37-.08,1.09,0,.43.1.43.25.43h16.74c.12,0,.17-.02.18-.03,0-.01.04-.08.04-.22.07-.77-.01-1.1-.07-1.24-.29-.3-.66-.41-1.16-.33h-.09s-15.38,0-15.38,0c-.13.01-.28.06-.43.3ZM568.77,49.45h-23.76c-.66-.14-1.52-.58-1.82-1.96v-.13s-.01-4.98-.01-4.98c0-.79.06-1.29.18-1.6l.03-.06c.47-.89,1.13-1.14,1.61-1.18h23.7s.06.01.06.01c1.49.33,1.94,1.18,2.05,1.83v.1s0,5.81,0,5.81c-.12.71-.56,1.66-1.95,2.12l-.09.03ZM545.19,48.24h23.38c.78-.29.98-.75,1.04-1.1v-5.6c-.04-.19-.17-.58-1.04-.79h-23.51c-.11.01-.35.08-.58.5-.03.08-.09.36-.09,1.13v4.92c.16.69.5.87.8.94ZM567.17,47.63h-3.28c-.52,0-.87-.17-1.05-.5-.29-.53.08-1.1.2-1.29l.85-1.43c.22-.38.18-.6.11-.74-.07-.09-.16-.15-.29-.18-.11-.03-.29-.08-.57.4-.35.78-.89,1.69-1.58,2.66-.57.73-1.32,1.08-2.25,1.08-1.58,0-1.7-1.12-1.7-1.46v-3.37c0-.88.56-1.43,1.46-1.43h7.18c.61,0,1.02.04,1.29.13l.05.02c.45.2.77.48.95.84l.03.06c.1.26.14.67.14,1.31v1.36c.26,1.77-.81,2.34-1.48,2.52l-.08.02ZM563.94,46.72h0ZM564.1,46.42h2.9c.34-.1.65-.32.52-1.19v-.09s0-1.41,0-1.41c0-.56-.04-.79-.06-.86-.07-.1-.2-.17-.31-.22-.08-.02-.31-.07-.89-.07h-1.67c.16.11.3.25.42.42l.03.05c.23.42.4,1.11-.11,1.98l-.83,1.39ZM559.08,42.57c-.15,0-.21.03-.23.04,0,0-.03.06-.03.18v3.37c0,.14,0,.25.49.25.55,0,.96-.19,1.28-.6.62-.88,1.12-1.72,1.47-2.49.2-.35.42-.59.63-.76h-3.62ZM555.33,47.63l-8.58-.02c-1.24-.34-1.45-1.14-1.48-1.59v-3.05c.02-.46.23-1.23,1.43-1.58l.17-.02h8.46c.88,0,1.43.55,1.43,1.43v3.37c0,.9-.55,1.46-1.43,1.46ZM552.69,46.42h2.64c.12,0,.17-.02.18-.03,0-.01.04-.08.04-.22v-3.37c0-.14-.03-.19-.03-.19,0,0,.02-.03-.19-.03h-3.88s.05.04.08.07l.06.06c1.19,1.32,1.65,2.4,1.4,3.28l-.06.15c-.05.09-.13.18-.24.29ZM547,46.42h3.21c-.19-.24-.33-.46-.43-.67-.24-.4-.54-.85-.85-1.3l-.07-.1-.02-.13c-.14-.7.08-1.28.59-1.64h-2.45c-.47.15-.48.34-.48.42v3c0,.07.01.27.51.43ZM551.26,45.8c.07.03.14.05.26.02.17-.13.27-.22.33-.27.02-.27-.12-.88-1.13-2.01-.1-.08-.17-.12-.2-.14-.48.12-.54.28-.52.47.3.43.58.87.84,1.3.1.2.24.41.43.63ZM550.62,43.38s-.03,0-.05.01c.01,0,.03,0,.05-.01ZM542.11,39.58c-.17,0-.32-.02-.46-.05l-.15-.06c-.42-.23-1.1-.8-.93-2.05l.02-.1c.1-.33.36-.77,1.02-1.07l.09-.03c4.7-1.2,8.81-2.74,12.24-4.59.44-.22.88-.48,1.32-.79l.05-.03c1.49-.82,3.1-.65,4.8.53,3.82,2.06,7.92,3.6,12.19,4.57.52.09.98.34,1.32.75l.06.08c.28.47.47,1.23-.19,2.2l-.12.13c-.19.15-.45.26-.78.33l-.09.02h-.09c-.98-.1-1.95-.31-2.88-.62-1.83-.54-3.66-1.15-5.42-1.83.02.56-.25,1.06-.8,1.47l-.12.07c-.18.08-.49.15-1.48.15l-10.28-.02c-.84-.19-1.32-.71-1.37-1.43-2.72,1.08-5,1.82-6.79,2.19-.46.12-.85.18-1.18.18ZM542,38.37c.14.01.44,0,1.01-.14,1.75-.36,3.97-1.08,6.63-2.14.36-.15.89-.3,1.3,0,.14.1.38.35.35.81-.04.29-.03.45.36.56h10.07c.6,0,.86-.03.96-.05.29-.25.25-.43.17-.63-.07-.19-.09-.35-.08-.49l-.06.05c-.33.29-.84.42-1.53.39h-7.74c-.67.03-1.17-.1-1.5-.39l-.2-.18v-.27c0-.38.23-.58,1.1-1.16l2.06-1.1c1.03-.8,2.04-1.07,3-.8.45.11.95.33,1.53.69.87.48,1.78.93,2.68,1.34.67.33.81.72.81,1.02.03-.04.05-.07.08-.09.41-.4,1.03-.15,1.29-.05,1.81.7,3.7,1.34,5.62,1.91.84.28,1.69.46,2.54.55.05-.01.09-.03.12-.04.25-.41.17-.63.11-.75-.16-.17-.35-.27-.6-.31-4.42-1-8.64-2.58-12.56-4.71l-.06-.04c-1.31-.91-2.46-1.07-3.53-.5-.48.33-.95.62-1.42.85-3.48,1.88-7.67,3.45-12.44,4.67-.2.1-.27.19-.3.25-.05.43.08.62.24.73ZM552.83,36.22h0ZM557.16,33.93c-.47,0-.98.22-1.55.67l-.09.06-1.6.86h6.77c-.62-.3-1.24-.62-1.86-.96-.49-.3-.9-.48-1.22-.56h-.03c-.13-.05-.27-.07-.41-.07Z"/>
        </g>
      </g>
      <g>
        <path class="cls-1" d="M265.82,80.73c.29-.9.75-1.34,1.38-1.31.39.04.72.33.97.87l4.46,12.21c.29.61.28,1.09-.02,1.44-.35.32-.72.36-1.11.13-.24-.22-.4-.49-.48-.83l-.68-1.92c-.14-.36-.35-.54-.63-.54h-5.33c-.29,0-.5.18-.63.54l-.91,2.51c-.13.25-.28.39-.45.41-.25.03-.49-.09-.72-.37-.35-.45-.35-1.05-.02-1.81l4.17-11.34ZM267.31,82.21c-.13-.36-.27-.38-.41-.04l-2.29,6.34c-.13.36-.05.54.25.54h4.33c.29,0,.36-.19.23-.57-.72-2.09-1.42-4.19-2.11-6.28Z"/>
        <path class="cls-1" d="M273.73,80.47c.08-.64.41-.99.97-1.05h6.42c.52-.06,1.01.03,1.47.26.23.1.45.33.66.7.38.77.59,1.58.63,2.44v1.11c-.01,1.05-.23,1.92-.66,2.62-.35.52-.93.81-1.75.87h-5.87c-.3,0-.45.17-.45.52v5.47c-.13.68-.47.93-1,.74-.24-.1-.38-.33-.41-.7v-12.99ZM281.85,81.38c-.29-.22-.66-.31-1.11-.26h-5.15c-.3,0-.45.17-.45.52v3.53c0,.36.15.54.45.54h5.53c.56-.03.98-.38,1.27-1.07.19-.6.2-1.42.02-2.49-.1-.32-.28-.58-.55-.78Z"/>
        <path class="cls-1" d="M288.99,80.73c.29-.9.75-1.34,1.38-1.31.39.04.72.33.97.87l4.46,12.21c.29.61.28,1.09-.02,1.44-.35.32-.72.36-1.11.13-.24-.22-.4-.49-.48-.83l-.68-1.92c-.14-.36-.35-.54-.63-.54h-5.33c-.29,0-.5.18-.63.54l-.91,2.51c-.13.25-.28.39-.45.41-.25.03-.49-.09-.72-.37-.35-.45-.35-1.05-.02-1.81l4.17-11.34ZM290.48,82.21c-.13-.36-.27-.38-.41-.04l-2.29,6.34c-.13.36-.05.54.25.54h4.33c.29,0,.36-.19.23-.57-.72-2.09-1.42-4.19-2.11-6.28Z"/>
        <path class="cls-1" d="M299.28,80.23c1.38-1,2.87-1.27,4.46-.81.49.15.97.39,1.43.72.81.61,1.4,1.44,1.77,2.49.13.33.18.63.16.87-.13.71-.45,1.03-.95.96-.11-.01-.23-.09-.36-.22-.14-.17-.29-.46-.43-.85-.66-1.48-1.51-2.27-2.56-2.38-.64-.13-1.21-.09-1.7.11-.78.23-1.46.84-2.04,1.83-.76,1.42-1.08,2.94-.95,4.56.06.65.14,1.24.25,1.74.23,1.05.7,1.88,1.43,2.51.94.64,1.91.91,2.92.81,1.22-.17,2.31-1.25,3.27-3.23.23-.26.49-.3.81-.11.1.01.2.13.3.35.14.29.18.58.13.87-.39,1.37-1.19,2.45-2.4,3.25-1.07.57-2.2.81-3.38.72-.98-.09-1.93-.59-2.86-1.5-.91-1-1.46-2.2-1.66-3.6-.32-1.92-.23-3.83.29-5.73.42-1.37,1.11-2.49,2.08-3.36Z"/>
        <path class="cls-1" d="M321.47,80.73c.29-.9.75-1.34,1.38-1.31.39.04.72.33.97.87l4.46,12.21c.29.61.28,1.09-.02,1.44-.35.32-.72.36-1.11.13-.24-.22-.4-.49-.48-.83l-.68-1.92c-.14-.36-.35-.54-.63-.54h-5.33c-.29,0-.5.18-.63.54l-.91,2.51c-.13.25-.28.39-.45.41-.25.03-.49-.09-.72-.37-.35-.45-.35-1.05-.02-1.81l4.17-11.34ZM322.96,82.21c-.13-.36-.27-.38-.41-.04l-2.29,6.34c-.13.36-.05.54.25.54h4.33c.29,0,.36-.19.23-.57-.72-2.09-1.42-4.19-2.11-6.28Z"/>
        <path class="cls-1" d="M329.88,83.34c.23-.1.47-.05.72.15.14.16.21.36.21.59v5.52c.05.64.16,1.22.34,1.74.36.81.88,1.26,1.57,1.33.74.06,1.44-.19,2.09-.74.86-.64,1.34-1.47,1.45-2.49v-5.36c.01-.19.08-.37.21-.54.27-.29.55-.33.84-.11.2.15.32.37.34.68v9.35c-.05.45-.26.71-.63.78-.43.04-.69-.23-.77-.83v-.81c0-.36-.14-.37-.41-.02-.99,1.26-2.28,1.81-3.87,1.63-.53-.07-1-.23-1.43-.48-.69-.55-1.07-1.33-1.15-2.33v-7.32c.04-.36.19-.61.47-.74Z"/>
        <path class="cls-1" d="M341.21,80.2c.24-.1.48-.06.72.13.13.13.21.31.23.55v1.94c0,.36.15.55.45.55h2.08c.17.01.32.11.45.28.21.3.23.67.04,1.09-.16.19-.32.3-.5.33h-2.06c-.3,0-.45.17-.45.52v5.12c.02.29.06.58.11.87.02.33.18.6.47.81.68.45,1.39.28,2.13-.5.41-.54.76-.53,1.06.02.14.28.16.57.05.87-.1.33-.29.58-.57.74-1.15.77-2.22.93-3.22.48-.48-.22-.84-.54-1.07-.98-.2-.49-.32-1.08-.34-1.74v-5.69c0-.35-.14-.52-.43-.52h-.98c-.48-.15-.68-.49-.61-1.05.06-.28.18-.47.38-.57.15-.06.41-.09.75-.09h.47c.29,0,.43-.18.43-.55v-1.92c.04-.33.18-.57.45-.7Z"/>
        <path class="cls-1" d="M347.06,80.2c.12-.62.43-.88.93-.76.27.06.44.32.48.78v4.23c0,.38.15.4.45.07.88-.9,1.84-1.31,2.88-1.24.52.06,1,.19,1.43.39.98.48,1.52,1.18,1.63,2.11.07.38.08.87.04,1.48v6.19c-.11.57-.39.81-.84.74-.35-.12-.54-.36-.57-.74v-6.5c-.01-.23-.09-.52-.23-.87-.36-.62-.84-1-1.43-1.11-.72-.19-1.44.03-2.18.65-.61.52-.95,1.1-1.04,1.74-.05.23-.09.55-.13.96v5.08c-.05.48-.25.75-.61.81-.42.06-.69-.2-.81-.76v-13.25Z"/>
        <path class="cls-1" d="M358.44,83.91c.92-.58,1.87-.83,2.86-.74.83.12,1.55.43,2.15.94.55.45.95.99,1.2,1.61.38.93.56,1.93.54,3.01-.04.36-.17.58-.41.65h-6.51c-.29,0-.42.18-.41.55.02.65.18,1.23.48,1.72.51.76,1.2,1.16,2.08,1.22.89,0,1.51-.09,1.86-.26.66-.29,1.24-.94,1.75-1.94.24-.36.47-.46.7-.28.26.19.37.47.32.83-.05.39-.24.83-.57,1.31-.41.6-.88,1.02-1.41,1.26-1.31.65-2.67.76-4.08.31-1.52-.61-2.39-1.85-2.61-3.73-.17-1.37-.04-2.69.38-3.97.31-.99.88-1.82,1.7-2.49ZM361.04,84.85c-.84-.12-1.6.16-2.31.83-.44.49-.7,1.02-.79,1.57-.02.36.11.54.41.54h4.72c.29,0,.45-.02.48-.07.12-.16.12-.43,0-.81-.08-.58-.47-1.11-1.15-1.59-.44-.28-.9-.44-1.38-.48Z"/>
        <path class="cls-1" d="M368.32,85.04c1.55-1.67,3.15-2.14,4.8-1.4.54.22.94.68,1.22,1.4.27.8.44,1.67.48,2.62v5.73c-.04.45-.24.73-.63.85-.38.04-.64-.21-.79-.76v-5.89c-.02-.65-.19-1.24-.48-1.77-.2-.31-.47-.52-.79-.65-.84-.29-1.61-.25-2.33.13-1.21.65-1.85,1.69-1.93,3.12v4.99c-.05.48-.25.75-.61.81-.42.06-.69-.2-.81-.76v-9.2c.02-.28.12-.49.29-.63.35-.25.67-.2.98.15.15.28.2.68.14,1.2,0,.38.15.4.45.07Z"/>
        <path class="cls-1" d="M378.29,80.2c.24-.1.48-.06.72.13.13.13.21.31.23.55v1.94c0,.36.15.55.45.55h2.08c.17.01.32.11.45.28.21.3.23.67.04,1.09-.16.19-.32.3-.5.33h-2.06c-.3,0-.45.17-.45.52v5.12c.02.29.06.58.11.87.02.33.18.6.47.81.68.45,1.39.28,2.13-.5.41-.54.76-.53,1.06.02.14.28.16.57.05.87-.1.33-.29.58-.57.74-1.15.77-2.22.93-3.22.48-.48-.22-.84-.54-1.07-.98-.2-.49-.32-1.08-.34-1.74v-5.69c0-.35-.14-.52-.43-.52h-.98c-.48-.15-.68-.49-.61-1.05.06-.28.18-.47.38-.57.15-.06.41-.09.75-.09h.47c.29,0,.43-.18.43-.55v-1.92c.04-.33.18-.57.45-.7Z"/>
        <path class="cls-1" d="M385.28,79.44c.37-.01.65.15.84.5.21.58.15,1.11-.2,1.59-.31.23-.68.27-1.11.11-.31-.23-.47-.57-.48-1-.01-.74.3-1.14.95-1.2ZM385.14,83.8c.43-.03.7.23.81.78v8.85c-.04.44-.25.7-.64.81-.47.06-.74-.2-.82-.78v-8.89c.08-.46.3-.72.66-.76Z"/>
        <path class="cls-1" d="M390.2,83.74c1.3-.67,2.47-.79,3.51-.37.81.29,1.55.9,2.22,1.83.47.63.61,1.21.45,1.74-.14.38-.34.62-.59.72-.26.15-.53.04-.81-.33-.11-.25-.23-.49-.36-.74-.56-1.08-1.23-1.63-2.02-1.66-.61-.04-1.18.11-1.72.46-.29.17-.53.38-.72.61-.64.93-.93,1.94-.86,3.03.02.63.14,1.21.36,1.74.29.71.69,1.2,1.22,1.46.52.3,1.1.45,1.74.44.91-.07,1.69-.76,2.34-2.07.2-.64.48-.97.84-.98.36.06.61.31.75.74.12.42.04.86-.25,1.33-.84,1.44-1.73,2.27-2.68,2.49-1.16.29-2.21.23-3.17-.17-.79-.26-1.45-.89-1.99-1.9-.85-1.87-.95-3.75-.32-5.62.16-.44.36-.87.63-1.31.52-.74,1-1.22,1.43-1.44Z"/>
        <path class="cls-1" d="M407.35,80.18c.1-.58.4-.83.91-.74.32.07.51.33.55.78v13.19c-.04.44-.25.7-.64.81-.47.06-.74-.2-.82-.78v-13.25Z"/>
        <path class="cls-1" d="M412.63,85.04c1.55-1.67,3.15-2.14,4.8-1.4.54.22.94.68,1.22,1.4.27.8.44,1.67.48,2.62v5.73c-.04.45-.24.73-.63.85-.38.04-.64-.21-.79-.76v-5.89c-.02-.65-.19-1.24-.48-1.77-.2-.31-.47-.52-.79-.65-.84-.29-1.61-.25-2.33.13-1.21.65-1.85,1.69-1.93,3.12v4.99c-.05.48-.25.75-.61.81-.42.06-.69-.2-.81-.76v-9.2c.02-.28.12-.49.29-.63.35-.25.67-.2.98.15.15.28.2.68.14,1.2,0,.38.15.4.45.07Z"/>
        <path class="cls-1" d="M422.93,83.74c1.3-.67,2.47-.79,3.51-.37.81.29,1.55.9,2.22,1.83.47.63.61,1.21.45,1.74-.14.38-.34.62-.59.72-.26.15-.53.04-.81-.33-.11-.25-.23-.49-.36-.74-.56-1.08-1.23-1.63-2.02-1.66-.61-.04-1.18.11-1.72.46-.29.17-.53.38-.72.61-.64.93-.93,1.94-.86,3.03.02.63.14,1.21.36,1.74.29.71.69,1.2,1.22,1.46.52.3,1.1.45,1.74.44.91-.07,1.69-.76,2.34-2.07.2-.64.48-.97.84-.98.36.06.61.31.75.74.12.42.04.86-.25,1.33-.84,1.44-1.73,2.27-2.68,2.49-1.16.29-2.21.23-3.17-.17-.79-.26-1.45-.89-1.99-1.9-.85-1.87-.95-3.75-.32-5.62.16-.44.36-.87.63-1.31.52-.74,1-1.22,1.43-1.44Z"/>
        <path class="cls-1" d="M431.5,79.44c.49-.13.79.13.91.78v13.19c-.13.7-.46.95-.98.76-.29-.13-.45-.39-.5-.78v-13.12c.02-.44.21-.71.57-.83Z"/>
        <path class="cls-1" d="M434.87,83.34c.23-.1.47-.05.72.15.14.16.21.36.21.59v5.52c.05.64.16,1.22.34,1.74.36.81.88,1.26,1.57,1.33.74.06,1.44-.19,2.09-.74.86-.64,1.34-1.47,1.45-2.49v-5.36c.01-.19.08-.37.21-.54.27-.29.55-.33.84-.11.2.15.32.37.34.68v9.35c-.05.45-.26.71-.63.78-.43.04-.69-.23-.77-.83v-.81c0-.36-.14-.37-.41-.02-.99,1.26-2.28,1.81-3.87,1.63-.53-.07-1-.23-1.43-.48-.69-.55-1.07-1.33-1.15-2.33v-7.32c.04-.36.19-.61.47-.74Z"/>
        <path class="cls-1" d="M447.45,83.15c1.18-.12,2.26.23,3.24,1.05.68.61,1,1.15.97,1.61-.01.39-.13.67-.34.83-.43.29-.84.06-1.23-.7-.45-.62-.96-1-1.52-1.11-.78-.16-1.41-.15-1.9.04-.25.07-.49.25-.72.54-.43.63-.37,1.21.18,1.77.12.12.24.18.36.2,1.29.25,2.48.53,3.58.85.54.15,1,.52,1.38,1.13.36.65.48,1.35.38,2.09-.04.67-.21,1.25-.54,1.74-.48.57-1.07.9-1.77,1-1.38.28-2.56.19-3.54-.26-.81-.44-1.44-1.17-1.88-2.2-.13-.32-.18-.59-.16-.81.18-.68.52-.94,1.02-.78.2.09.36.26.47.52.23.68.58,1.26,1.07,1.74,1.06.67,2.11.76,3.15.28.57-.29.88-.71.93-1.26.17-.67-.04-1.2-.63-1.59-.67-.32-1.38-.53-2.15-.63-.82-.07-1.54-.25-2.15-.54-1.18-.6-1.62-1.62-1.31-3.07.31-1.03.89-1.71,1.75-2.05.44-.2.89-.33,1.36-.39Z"/>
        <path class="cls-1" d="M454.14,79.44c.37-.01.65.15.84.5.21.58.15,1.11-.2,1.59-.31.23-.68.27-1.11.11-.31-.23-.47-.57-.48-1-.01-.74.3-1.14.95-1.2ZM454,83.8c.43-.03.7.23.81.78v8.85c-.04.44-.25.7-.64.81-.47.06-.74-.2-.82-.78v-8.89c.08-.46.3-.72.66-.76Z"/>
        <path class="cls-1" d="M459.99,83.21c.58-.14,1.25-.08,2,.2.24.09.48.2.72.35.57.35,1.04.88,1.4,1.59.45.99.68,2.22.68,3.68-.02.54-.1,1.12-.21,1.74-.55,2.19-1.71,3.39-3.49,3.57-1.19.12-2.24-.24-3.13-1.07-.33-.32-.58-.63-.73-.94-.51-1.16-.78-2.31-.81-3.44.01-1.37.28-2.6.81-3.71.41-.7.85-1.18,1.34-1.46.42-.25.89-.42,1.43-.52ZM460.98,84.98c-.45-.06-.92.02-1.41.24-.55.25-.98.69-1.31,1.33-.56,1.57-.53,3.09.09,4.56.33.64.8,1.07,1.4,1.29.73.28,1.47.18,2.22-.28.54-.44.89-.98,1.07-1.63.33-1.13.35-2.27.04-3.4-.32-1.18-1.02-1.87-2.09-2.09Z"/>
        <path class="cls-1" d="M467.87,85.04c1.55-1.67,3.15-2.14,4.8-1.4.54.22.94.68,1.22,1.4.27.8.44,1.67.48,2.62v5.73c-.04.45-.24.73-.63.85-.38.04-.64-.21-.79-.76v-5.89c-.02-.65-.19-1.24-.48-1.77-.2-.31-.47-.52-.79-.65-.84-.29-1.61-.25-2.33.13-1.21.65-1.85,1.69-1.93,3.12v4.99c-.05.48-.25.75-.61.81-.42.06-.69-.2-.81-.76v-9.2c.02-.28.12-.49.29-.63.35-.25.67-.2.98.15.15.28.2.68.14,1.2,0,.38.15.4.45.07Z"/>
        <path class="cls-1" d="M488.89,80.73c.29-.9.75-1.34,1.38-1.31.39.04.72.33.97.87l4.46,12.21c.29.61.28,1.09-.02,1.44-.35.32-.72.36-1.11.13-.24-.22-.4-.49-.48-.83l-.68-1.92c-.14-.36-.35-.54-.63-.54h-5.33c-.29,0-.49.18-.63.54l-.91,2.51c-.13.25-.28.39-.45.41-.25.03-.49-.09-.72-.37-.35-.45-.35-1.05-.02-1.81l4.17-11.34ZM490.38,82.21c-.13-.36-.27-.38-.41-.04l-2.29,6.34c-.13.36-.05.54.25.54h4.33c.29,0,.36-.19.23-.57-.72-2.09-1.42-4.19-2.11-6.28Z"/>
        <path class="cls-1" d="M500.04,83.15c1.18-.12,2.26.23,3.24,1.05.68.61,1,1.15.97,1.61-.01.39-.13.67-.34.83-.43.29-.84.06-1.23-.7-.45-.62-.96-1-1.52-1.11-.78-.16-1.41-.15-1.9.04-.25.07-.49.25-.72.54-.43.63-.37,1.21.18,1.77.12.12.24.18.36.2,1.29.25,2.48.53,3.58.85.54.15,1,.52,1.38,1.13.36.65.48,1.35.38,2.09-.04.67-.21,1.25-.54,1.74-.48.57-1.07.9-1.77,1-1.38.28-2.56.19-3.54-.26-.81-.44-1.44-1.17-1.88-2.2-.13-.32-.19-.59-.16-.81.18-.68.52-.94,1.02-.78.2.09.36.26.47.52.23.68.58,1.26,1.07,1.74,1.06.67,2.11.76,3.15.28.57-.29.88-.71.93-1.26.17-.67-.04-1.2-.63-1.59-.67-.32-1.38-.53-2.15-.63-.82-.07-1.54-.25-2.15-.54-1.18-.6-1.62-1.62-1.31-3.07.31-1.03.89-1.71,1.75-2.05.44-.2.89-.33,1.36-.39Z"/>
        <path class="cls-1" d="M508.83,83.15c1.18-.12,2.26.23,3.24,1.05.68.61,1,1.15.97,1.61-.01.39-.13.67-.34.83-.43.29-.84.06-1.23-.7-.45-.62-.96-1-1.52-1.11-.78-.16-1.41-.15-1.9.04-.25.07-.49.25-.72.54-.43.63-.37,1.21.18,1.77.12.12.24.18.36.2,1.29.25,2.48.53,3.58.85.54.15,1,.52,1.38,1.13.36.65.48,1.35.38,2.09-.04.67-.21,1.25-.54,1.74-.48.57-1.07.9-1.77,1-1.38.28-2.56.19-3.54-.26-.81-.44-1.44-1.17-1.88-2.2-.13-.32-.19-.59-.16-.81.18-.68.52-.94,1.02-.78.2.09.36.26.47.52.23.68.58,1.26,1.07,1.74,1.06.67,2.11.76,3.15.28.57-.29.88-.71.93-1.26.17-.67-.04-1.2-.63-1.59-.67-.32-1.38-.53-2.15-.63-.82-.07-1.54-.25-2.15-.54-1.18-.6-1.62-1.62-1.31-3.07.31-1.03.89-1.71,1.75-2.05.44-.2.89-.33,1.36-.39Z"/>
        <path class="cls-1" d="M517.63,83.21c.58-.14,1.25-.08,2,.2.24.09.48.2.72.35.57.35,1.04.88,1.4,1.59.45.99.68,2.22.68,3.68-.02.54-.1,1.12-.22,1.74-.55,2.19-1.71,3.39-3.49,3.57-1.19.12-2.24-.24-3.13-1.07-.33-.32-.58-.63-.73-.94-.51-1.16-.78-2.31-.81-3.44.01-1.37.28-2.6.81-3.71.41-.7.85-1.18,1.34-1.46.42-.25.89-.42,1.43-.52ZM518.61,84.98c-.45-.06-.92.02-1.41.24-.55.25-.98.69-1.31,1.33-.56,1.57-.53,3.09.09,4.56.33.64.8,1.07,1.4,1.29.73.28,1.47.18,2.22-.28.54-.44.89-.98,1.07-1.63.33-1.13.35-2.27.04-3.4-.32-1.18-1.02-1.87-2.09-2.09Z"/>
        <path class="cls-1" d="M525.97,83.74c1.3-.67,2.47-.79,3.51-.37.81.29,1.55.9,2.22,1.83.46.63.61,1.21.45,1.74-.14.38-.34.62-.59.72-.26.15-.53.04-.81-.33-.11-.25-.23-.49-.36-.74-.56-1.08-1.24-1.63-2.02-1.66-.61-.04-1.18.11-1.72.46-.29.17-.52.38-.72.61-.64.93-.93,1.94-.86,3.03.02.63.14,1.21.36,1.74.29.71.69,1.2,1.22,1.46.52.3,1.1.45,1.74.44.91-.07,1.69-.76,2.34-2.07.2-.64.48-.97.84-.98.36.06.61.31.75.74.12.42.04.86-.25,1.33-.84,1.44-1.73,2.27-2.68,2.49-1.16.29-2.21.23-3.17-.17-.79-.26-1.45-.89-1.99-1.9-.85-1.87-.95-3.75-.32-5.62.16-.44.36-.87.63-1.31.52-.74,1-1.22,1.43-1.44Z"/>
        <path class="cls-1" d="M534.76,79.44c.37-.01.65.15.84.5.21.58.15,1.11-.2,1.59-.31.23-.68.27-1.11.11-.31-.23-.47-.57-.48-1-.01-.74.3-1.14.95-1.2ZM534.61,83.8c.43-.03.7.23.81.78v8.85c-.04.44-.25.7-.64.81-.47.06-.74-.2-.82-.78v-8.89c.08-.46.3-.72.66-.76Z"/>
        <path class="cls-1" d="M538.78,84.15c.73-.55,1.56-.88,2.49-.98h.97c.78.04,1.49.28,2.15.7.29.16.51.39.66.7.24.51.38,1.15.41,1.92v4.29c.09,1.15.23,1.98.39,2.51.07.55-.17.86-.72.92-.46-.01-.72-.31-.77-.87l-.04-.48c-.02-.36-.18-.37-.47-.02-.44.55-.91.95-1.41,1.18-.49.2-.97.32-1.45.35-.64.04-1.28-.05-1.92-.28-1.35-.51-1.98-1.66-1.9-3.47.07-.89.42-1.56,1.06-2.03,1.28-.51,2.71-.82,4.29-.94.24-.01.48-.08.72-.2.61-.29.83-.8.68-1.53-.07-.29-.26-.55-.56-.79-.55-.35-1.13-.49-1.74-.41-.86.1-1.57.54-2.15,1.31-.23.35-.46.57-.7.65-.29.12-.56.08-.81-.11-.27-.23-.37-.51-.29-.83.18-.6.54-1.13,1.07-1.59ZM544.04,88.86c0-.36-.14-.42-.43-.17-.19.15-.4.22-.63.22-1.19.2-2.39.41-3.58.63-.25.03-.47.21-.66.54-.27.52-.29,1.09-.05,1.7.3.54.76.88,1.38,1.02.73.13,1.39.09,1.99-.13.54-.17.99-.47,1.36-.87.23-.26.4-.5.52-.72.07-.14.11-.39.11-.74v-1.48Z"/>
        <path class="cls-1" d="M549.02,80.2c.24-.1.48-.06.72.13.13.13.21.31.23.55v1.94c0,.36.15.55.45.55h2.08c.17.01.32.11.45.28.21.3.23.67.04,1.09-.16.19-.32.3-.5.33h-2.06c-.3,0-.45.17-.45.52v5.12c.02.29.06.58.11.87.02.33.18.6.47.81.68.45,1.39.28,2.13-.5.41-.54.76-.53,1.06.02.14.28.16.57.05.87-.1.33-.29.58-.57.74-1.15.77-2.22.93-3.22.48-.48-.22-.84-.54-1.07-.98-.2-.49-.32-1.08-.34-1.74v-5.69c0-.35-.14-.52-.43-.52h-.98c-.48-.15-.68-.49-.61-1.05.06-.28.18-.47.38-.57.16-.06.41-.09.75-.09h.47c.29,0,.43-.18.43-.55v-1.92c.04-.33.19-.57.45-.7Z"/>
        <path class="cls-1" d="M556.01,79.44c.37-.01.65.15.84.5.21.58.15,1.11-.2,1.59-.31.23-.68.27-1.11.11-.31-.23-.47-.57-.48-1-.01-.74.3-1.14.95-1.2ZM555.87,83.8c.43-.03.7.23.81.78v8.85c-.04.44-.25.7-.64.81-.47.06-.74-.2-.82-.78v-8.89c.08-.46.3-.72.66-.76Z"/>
        <path class="cls-1" d="M561.87,83.21c.58-.14,1.25-.08,2,.2.24.09.48.2.72.35.57.35,1.04.88,1.4,1.59.45.99.68,2.22.68,3.68-.02.54-.1,1.12-.22,1.74-.55,2.19-1.71,3.39-3.49,3.57-1.19.12-2.24-.24-3.13-1.07-.33-.32-.58-.63-.73-.94-.51-1.16-.78-2.31-.81-3.44.01-1.37.28-2.6.81-3.71.41-.7.85-1.18,1.34-1.46.42-.25.89-.42,1.43-.52ZM562.85,84.98c-.45-.06-.92.02-1.41.24-.55.25-.98.69-1.31,1.33-.56,1.57-.53,3.09.09,4.56.33.64.8,1.07,1.4,1.29.73.28,1.47.18,2.22-.28.54-.44.89-.98,1.07-1.63.33-1.13.35-2.27.04-3.4-.32-1.18-1.02-1.87-2.09-2.09Z"/>
        <path class="cls-1" d="M569.74,85.04c1.55-1.67,3.15-2.14,4.8-1.4.54.22.94.68,1.22,1.4.27.8.44,1.67.48,2.62v5.73c-.04.45-.24.73-.63.85-.38.04-.64-.21-.79-.76v-5.89c-.02-.65-.18-1.24-.48-1.77-.2-.31-.47-.52-.79-.65-.84-.29-1.61-.25-2.33.13-1.2.65-1.85,1.69-1.93,3.12v4.99c-.05.48-.25.75-.61.81-.42.06-.69-.2-.81-.76v-9.2c.02-.28.12-.49.29-.63.35-.25.67-.2.98.15.16.28.2.68.14,1.2,0,.38.15.4.45.07Z"/>
      </g>
    </g>
    <g>
      <ellipse class="cls-1" cx="218.73" cy="70.75" rx="6.21" ry="6.27"/>
      <ellipse class="cls-2" cx="133.4" cy="70.75" rx="6.21" ry="6.27"/>
      <ellipse class="cls-1" cx="174.83" cy="38.2" rx="6.21" ry="6.27"/>
      <path class="cls-1" d="M130.33,32.56l-.57,1.5c-.52,1.37-1.04,2.73-1.55,4.1-.76,2.01-1.53,4.02-2.29,6.04-.93,2.45-1.86,4.91-2.79,7.36-1.02,2.69-2.04,5.38-3.06,8.06-1.03,2.72-2.07,5.45-3.1,8.17-.96,2.53-1.92,5.06-2.88,7.59-.81,2.14-1.62,4.28-2.43,6.41-.58,1.54-1.17,3.08-1.75,4.61-.28.73-.56,1.46-.83,2.19-.01.03-.02.06-.04.1,2.05.57,4.09,1.14,6.14,1.71.19-.5.38-1,.57-1.5l1.55-4.1c.76-2.01,1.53-4.02,2.29-6.04.93-2.45,1.86-4.91,2.79-7.36,1.02-2.69,2.04-5.38,3.06-8.06s2.07-5.45,3.1-8.17c.96-2.53,1.92-5.06,2.88-7.59.81-2.14,1.62-4.28,2.43-6.41.58-1.54,1.17-3.08,1.75-4.61.28-.73.56-1.46.83-2.19.01-.03.02-.06.04-.1h-6.14c.19.5.38,1,.57,1.5.52,1.37,1.04,2.73,1.55,4.1.76,2.01,1.53,4.02,2.29,6.04.93,2.45,1.86,4.91,2.79,7.36,1.02,2.69,2.04,5.38,3.06,8.06,1.03,2.72,2.07,5.45,3.1,8.17.96,2.53,1.92,5.06,2.88,7.59.81,2.14,1.62,4.28,2.43,6.41.58,1.54,1.17,3.08,1.75,4.61.28.73.55,1.46.83,2.19.01.03.02.06.04.1.3.8.7,1.47,1.46,1.92.68.4,1.69.57,2.45.32s1.51-.73,1.9-1.48.62-1.68.32-2.48l-.57-1.5c-.52-1.37-1.04-2.73-1.55-4.1-.76-2.01-1.53-4.02-2.29-6.04-.93-2.45-1.86-4.91-2.79-7.36-1.02-2.69-2.04-5.38-3.06-8.06-1.03-2.72-2.07-5.45-3.1-8.17-.96-2.53-1.92-5.06-2.88-7.59-.81-2.14-1.62-4.28-2.43-6.41-.58-1.54-1.17-3.08-1.75-4.61-.28-.73-.55-1.46-.83-2.19-.01-.03-.02-.06-.04-.1-.26-.67-.56-1.22-1.14-1.67-.54-.42-1.23-.72-1.93-.69-.57.03-1.11.17-1.61.44-.76.4-1.17,1.15-1.46,1.92l-.57,1.5c-.52,1.37-1.04,2.73-1.55,4.1l-2.29,6.04c-.93,2.45-1.86,4.91-2.79,7.36l-3.06,8.06c-1.03,2.72-2.07,5.45-3.1,8.17-.96,2.53-1.92,5.06-2.88,7.59-.81,2.14-1.62,4.28-2.43,6.41-.58,1.54-1.17,3.08-1.75,4.61-.28.73-.57,1.46-.83,2.19-.01.03-.02.06-.04.1-.28.74-.06,1.82.32,2.48s1.14,1.3,1.9,1.48c.82.19,1.73.15,2.45-.32s1.15-1.1,1.46-1.92l.57-1.5c.52-1.37,1.04-2.73,1.55-4.1.76-2.01,1.53-4.02,2.29-6.04.93-2.45,1.86-4.91,2.79-7.36,1.02-2.69,2.04-5.38,3.06-8.06l3.1-8.17,2.88-7.59c.81-2.14,1.62-4.28,2.43-6.41.58-1.54,1.17-3.08,1.75-4.61.28-.73.57-1.46.83-2.19.01-.03.02-.06.04-.1.28-.74.06-1.82-.32-2.48s-1.14-1.3-1.9-1.48c-.82-.19-1.73-.15-2.45.32s-1.15,1.1-1.46,1.92h0Z"/>
      <path class="cls-2" d="M215.66,32.56c-.19.5-.38,1-.57,1.5-.52,1.37-1.04,2.73-1.55,4.1l-2.29,6.04c-.93,2.45-1.86,4.91-2.79,7.36-1.02,2.69-2.04,5.38-3.06,8.06-1.03,2.72-2.07,5.45-3.1,8.17-.96,2.53-1.92,5.06-2.88,7.59-.81,2.14-1.62,4.28-2.43,6.41-.58,1.54-1.17,3.08-1.75,4.61-.28.73-.56,1.46-.83,2.19-.01.03-.02.06-.04.1,2.05.57,4.09,1.14,6.14,1.71.19-.5.38-1,.57-1.5l1.55-4.1c.76-2.01,1.53-4.02,2.29-6.04.93-2.45,1.86-4.91,2.79-7.36,1.02-2.69,2.04-5.38,3.06-8.06s2.07-5.45,3.1-8.17c.96-2.53,1.92-5.06,2.88-7.59.81-2.14,1.62-4.28,2.43-6.41.58-1.54,1.17-3.08,1.75-4.61.28-.73.56-1.46.83-2.19.01-.03.02-.06.04-.1h-6.14c.19.5.38,1,.57,1.5.52,1.37,1.04,2.73,1.55,4.1.76,2.01,1.53,4.02,2.29,6.04.93,2.45,1.86,4.91,2.79,7.36l3.06,8.06c1.03,2.72,2.07,5.45,3.1,8.17.96,2.53,1.92,5.06,2.88,7.59.81,2.14,1.62,4.28,2.43,6.41.58,1.54,1.17,3.08,1.75,4.61.28.73.55,1.46.83,2.19.01.03.02.06.04.1.3.8.7,1.47,1.46,1.92.68.4,1.69.57,2.45.32s1.51-.73,1.9-1.48.62-1.68.32-2.48c-.19-.5-.38-1-.57-1.5-.52-1.37-1.04-2.73-1.55-4.1-.76-2.01-1.53-4.02-2.29-6.04-.93-2.45-1.86-4.91-2.79-7.36-1.02-2.69-2.04-5.38-3.06-8.06-1.03-2.72-2.07-5.45-3.1-8.17-.96-2.53-1.92-5.06-2.88-7.59-.81-2.14-1.62-4.28-2.43-6.41-.58-1.54-1.17-3.08-1.75-4.61-.28-.73-.55-1.46-.83-2.19-.01-.03-.02-.06-.04-.1-.26-.67-.56-1.22-1.14-1.67-.54-.42-1.23-.72-1.93-.69-.57.03-1.11.17-1.61.44-.76.4-1.17,1.15-1.46,1.92l-.57,1.5c-.52,1.37-1.04,2.73-1.55,4.1-.76,2.01-1.53,4.02-2.29,6.04-.93,2.45-1.86,4.91-2.79,7.36-1.02,2.69-2.04,5.38-3.06,8.06-1.03,2.72-2.07,5.45-3.1,8.17-.96,2.53-1.92,5.06-2.88,7.59-.81,2.14-1.62,4.28-2.43,6.41-.58,1.54-1.17,3.08-1.75,4.61-.28.73-.57,1.46-.83,2.19-.01.03-.02.06-.04.1-.28.74-.06,1.82.32,2.48s1.14,1.3,1.9,1.48c.82.19,1.73.15,2.45-.32s1.15-1.1,1.46-1.92c.19-.5.38-1,.57-1.5.52-1.37,1.04-2.73,1.55-4.1.76-2.01,1.53-4.02,2.29-6.04.93-2.45,1.86-4.91,2.79-7.36,1.02-2.69,2.04-5.38,3.06-8.06l3.1-8.17c.96-2.53,1.92-5.06,2.88-7.59.81-2.14,1.62-4.28,2.43-6.41.58-1.54,1.17-3.08,1.75-4.61.28-.73.57-1.46.83-2.19.01-.03.02-.06.04-.1.28-.74.06-1.82-.32-2.48s-1.14-1.3-1.9-1.48c-.82-.19-1.73-.15-2.45.32s-1.15,1.1-1.46,1.92h0Z"/>
      <path class="cls-2" d="M184.84,48.21s-.06,0-.09,0h-.07c-.12,0-.24,0-.36,0,0,0,0,0,0,0s0,0,0,0c-.9,0-1.79,0-2.69,0h0s-6.49,0-6.49,0h-6.49c-.9,0-1.79,0-2.69,0,0,0,0,0,0,0s0,0,0,0c-.12,0-.24,0-.36,0h-.07s-.06,0-.09,0c-1.41.08-2.52,1.26-2.52,2.7s1.2,2.71,2.68,2.71c0,0,.01,0,.02,0,.12.02.23.03.35.03.14,0,.28-.01.42-.04.12,0,.34,0,.73,0,.37,0,.74.02,1.11.05.05,0,.21.04.31.05.1.03.25.08.29.09.15.07.31.14.46.22.07.06.14.11.21.18.08.08.18.19.22.23.11.16.21.32.31.48.07.12.11.17.12.19,0,.03.03.1.08.26.13.34.25.67.36,1.03.14.45.3,1.19.45,2.05.44,2.53.61,5.15.71,7.75.03.86.06,1.72.08,2.59,0,7.25.02,14.51.03,21.76,0,.04,0,.07,0,.11s0,.08,0,.11h0s0,0,0,0c.06,1.81,1.51,3.27,3.3,3.33,1.8-.06,3.24-1.52,3.3-3.33,0,0,0,0,0,0h0s0-.08,0-.12,0-.07,0-.11c0-7.25.02-14.51.03-21.76.02-.86.05-1.73.08-2.59.1-2.61.27-5.23.71-7.75.15-.86.31-1.6.45-2.05.11-.36.23-.69.36-1.03.06-.15.08-.22.08-.26.02-.02.05-.07.12-.19.1-.17.21-.33.31-.48.04-.04.14-.16.22-.23.07-.06.14-.12.21-.18.15-.08.3-.15.46-.22.04-.02.19-.06.29-.09.1-.02.26-.05.31-.05.37-.04.74-.05,1.11-.05.38,0,.61,0,.73,0,.14.02.28.04.42.04.12,0,.24-.01.35-.03,0,0,.01,0,.02,0,1.48,0,2.68-1.21,2.68-2.71s-1.12-2.62-2.52-2.7Z"/>
      <ellipse class="cls-1" cx="112.12" cy="89.54" rx="3.23" ry="3.26"/>
    </g>
  </g>
</svg>