<?xml version="1.0" encoding="UTF-8"?>
<svg id="_打孔" data-name="打孔" xmlns="http://www.w3.org/2000/svg" viewBox="0 0 680.31 127.56">
  <defs>
    <style>
      .cls-1 {
        fill: #686868;
      }

      .cls-2 {
        fill: #003b5c;
      }
    </style>
  </defs>
  <g>
    <path class="cls-2" d="M172.56,55.37c.41-1.28,1.06-1.9,1.96-1.86.56.06,1.02.48,1.37,1.24l6.33,17.34c.41.87.4,1.55-.03,2.04-.49.45-1.02.52-1.58.19-.34-.31-.57-.7-.69-1.18l-.97-2.73c-.2-.52-.5-.77-.89-.77h-7.58c-.41,0-.7.26-.89.77l-1.3,3.56c-.19.35-.4.55-.64.59-.36.04-.7-.13-1.02-.53-.49-.64-.5-1.5-.03-2.57l5.92-16.11ZM174.67,57.48c-.19-.52-.38-.54-.58-.06l-3.25,9.01c-.19.52-.07.77.36.77h6.15c.41,0,.52-.27.33-.81-1.02-2.97-2.02-5.95-3-8.92Z"/>
    <path class="cls-2" d="M183.8,55c.12-.91.58-1.4,1.37-1.49h9.13c.75-.08,1.44.04,2.08.37.32.14.64.48.94.99.54,1.09.84,2.25.89,3.47v1.58c-.02,1.49-.33,2.73-.94,3.72-.49.74-1.32,1.16-2.49,1.24h-8.34c-.42,0-.64.25-.64.74v7.77c-.19.97-.66,1.32-1.42,1.05-.34-.14-.53-.47-.58-.99v-18.46ZM195.34,56.3c-.41-.31-.93-.43-1.58-.37h-7.32c-.42,0-.64.25-.64.74v5.02c0,.52.21.77.64.77h7.86c.8-.04,1.4-.55,1.8-1.52.27-.85.28-2.02.03-3.53-.14-.45-.4-.83-.79-1.11Z"/>
    <path class="cls-2" d="M205.49,55.37c.41-1.28,1.06-1.9,1.96-1.86.56.06,1.02.48,1.37,1.24l6.33,17.34c.41.87.4,1.55-.03,2.04-.49.45-1.02.52-1.58.19-.34-.31-.57-.7-.69-1.18l-.97-2.73c-.2-.52-.5-.77-.89-.77h-7.58c-.41,0-.7.26-.89.77l-1.3,3.56c-.19.35-.4.55-.64.59-.36.04-.7-.13-1.02-.53-.49-.64-.5-1.5-.03-2.57l5.92-16.11ZM207.6,57.48c-.19-.52-.38-.54-.58-.06l-3.25,9.01c-.19.52-.07.77.36.77h6.15c.41,0,.52-.27.33-.81-1.02-2.97-2.02-5.95-3-8.92Z"/>
    <path class="cls-2" d="M220.11,54.66c1.97-1.42,4.08-1.81,6.33-1.15.69.21,1.37.55,2.03,1.02,1.15.87,1.99,2.04,2.52,3.53.19.48.26.89.23,1.24-.19,1.01-.64,1.47-1.35,1.36-.15-.02-.32-.12-.51-.31-.2-.25-.41-.65-.61-1.21-.93-2.11-2.14-3.23-3.64-3.38-.92-.19-1.72-.13-2.42.15-1.1.33-2.07,1.2-2.9,2.6-1.09,2.02-1.53,4.18-1.35,6.47.08.93.2,1.76.36,2.48.32,1.49,1,2.67,2.03,3.56,1.34.91,2.72,1.29,4.14,1.15,1.73-.25,3.28-1.78,4.65-4.58.32-.37.7-.42,1.14-.15.14.02.28.19.43.5.2.41.26.83.18,1.24-.56,1.94-1.7,3.48-3.41,4.62-1.53.81-3.13,1.15-4.81,1.02-1.39-.12-2.75-.84-4.07-2.14-1.29-1.42-2.08-3.13-2.36-5.11-.46-2.73-.32-5.44.41-8.15.59-1.94,1.58-3.53,2.95-4.77Z"/>
    <path class="cls-2" d="M251.63,55.37c.41-1.28,1.06-1.9,1.96-1.86.56.06,1.02.48,1.37,1.24l6.33,17.34c.41.87.4,1.55-.03,2.04-.49.45-1.02.52-1.58.19-.34-.31-.57-.7-.69-1.18l-.97-2.73c-.2-.52-.5-.77-.89-.77h-7.58c-.41,0-.7.26-.89.77l-1.3,3.56c-.19.35-.4.55-.64.59-.36.04-.7-.13-1.02-.53-.49-.64-.5-1.5-.03-2.57l5.92-16.11ZM253.74,57.48c-.19-.52-.38-.54-.58-.06l-3.25,9.01c-.19.52-.07.77.36.77h6.15c.41,0,.52-.27.33-.81-1.02-2.97-2.02-5.95-3-8.92Z"/>
    <path class="cls-2" d="M263.58,59.09c.32-.14.66-.07,1.02.22.2.23.31.51.31.84v7.84c.07.91.23,1.73.48,2.48.51,1.16,1.25,1.79,2.24,1.89,1.05.08,2.04-.27,2.97-1.05,1.22-.91,1.91-2.09,2.06-3.53v-7.62c.02-.27.12-.53.31-.77.39-.41.79-.46,1.19-.15.29.21.45.53.48.96v13.29c-.07.64-.36,1.01-.89,1.11-.61.06-.98-.33-1.09-1.18v-1.15c0-.52-.2-.53-.58-.03-1.41,1.8-3.24,2.57-5.49,2.32-.75-.1-1.42-.33-2.03-.68-.98-.78-1.53-1.89-1.63-3.31v-10.41c.05-.52.27-.87.66-1.05Z"/>
    <path class="cls-2" d="M279.68,54.63c.34-.14.68-.08,1.02.19.19.19.3.44.33.77v2.76c0,.52.21.77.64.77h2.95c.24.02.45.15.64.4.31.43.32.95.05,1.55-.22.27-.46.42-.71.46h-2.92c-.42,0-.64.25-.64.74v7.28c.03.41.08.83.15,1.24.03.48.25.86.66,1.15.97.64,1.97.4,3.03-.71.58-.76,1.08-.75,1.5.03.2.39.23.8.08,1.24-.14.48-.41.83-.81,1.05-1.63,1.09-3.15,1.32-4.58.68-.68-.31-1.19-.77-1.53-1.39-.29-.7-.45-1.53-.48-2.48v-8.08c0-.5-.2-.74-.61-.74h-1.4c-.68-.21-.97-.7-.86-1.49.08-.39.26-.66.53-.81.22-.08.58-.12,1.07-.12h.66c.41,0,.61-.26.61-.77v-2.73c.05-.47.26-.81.64-.99Z"/>
    <path class="cls-2" d="M287.99,54.63c.17-.89.61-1.25,1.32-1.08.39.08.62.45.69,1.11v6.01c0,.54.21.57.64.09,1.25-1.28,2.62-1.87,4.09-1.77.75.08,1.42.27,2.03.56,1.39.68,2.16,1.68,2.31,3,.1.54.12,1.24.05,2.11v8.8c-.15.81-.55,1.16-1.19,1.05-.49-.17-.76-.52-.81-1.05v-9.23c-.02-.33-.13-.74-.33-1.24-.51-.89-1.19-1.41-2.03-1.58-1.02-.27-2.05.04-3.1.93-.86.74-1.36,1.57-1.47,2.48-.07.33-.13.78-.18,1.36v7.22c-.07.68-.36,1.06-.86,1.15-.59.08-.98-.28-1.14-1.08v-18.83Z"/>
    <path class="cls-2" d="M304.16,59.89c1.3-.83,2.66-1.18,4.07-1.05,1.19.17,2.2.61,3.05,1.33.78.64,1.35,1.4,1.7,2.29.54,1.32.8,2.75.76,4.27-.05.52-.25.83-.58.93h-9.25c-.41,0-.6.26-.58.77.03.93.26,1.75.69,2.45.73,1.07,1.71,1.65,2.95,1.73,1.27,0,2.15-.12,2.64-.37.93-.41,1.76-1.33,2.49-2.76.34-.52.67-.65.99-.4.37.27.53.66.46,1.18-.07.56-.34,1.18-.81,1.86-.58.85-1.25,1.45-2.01,1.8-1.86.93-3.8,1.07-5.8.43-2.15-.87-3.39-2.63-3.71-5.3-.24-1.94-.06-3.82.53-5.64.44-1.4,1.25-2.58,2.42-3.53ZM307.85,61.22c-1.19-.16-2.28.23-3.28,1.18-.63.7-1,1.45-1.12,2.23-.03.52.16.77.58.77h6.71c.41,0,.64-.03.69-.09.17-.23.17-.61,0-1.15-.12-.83-.66-1.58-1.63-2.26-.63-.39-1.28-.62-1.96-.68Z"/>
    <path class="cls-2" d="M318.2,61.5c2.2-2.37,4.47-3.04,6.81-1.98.76.31,1.34.97,1.73,1.98.39,1.14.62,2.37.69,3.72v8.15c-.05.64-.35,1.04-.89,1.21-.54.06-.92-.3-1.12-1.08v-8.36c-.03-.93-.26-1.77-.69-2.51-.29-.43-.66-.74-1.12-.93-1.19-.41-2.29-.35-3.3.19-1.71.93-2.63,2.41-2.75,4.43v7.09c-.07.68-.36,1.06-.86,1.15-.59.08-.98-.28-1.14-1.08v-13.07c.03-.39.17-.69.41-.9.49-.35.96-.28,1.4.22.22.39.29.96.2,1.7,0,.54.21.57.64.09Z"/>
    <path class="cls-2" d="M332.36,54.63c.34-.14.68-.08,1.02.19.19.19.3.44.33.77v2.76c0,.52.21.77.64.77h2.95c.24.02.45.15.64.4.31.43.32.95.05,1.55-.22.27-.46.42-.71.46h-2.92c-.42,0-.64.25-.64.74v7.28c.03.41.08.83.15,1.24.03.48.25.86.66,1.15.97.64,1.97.4,3.03-.71.58-.76,1.08-.75,1.5.03.2.39.23.8.08,1.24-.14.48-.41.83-.81,1.05-1.63,1.09-3.15,1.32-4.58.68-.68-.31-1.19-.77-1.53-1.39-.29-.7-.45-1.53-.48-2.48v-8.08c0-.5-.2-.74-.61-.74h-1.4c-.68-.21-.97-.7-.86-1.49.08-.39.26-.66.53-.81.22-.08.58-.12,1.07-.12h.66c.41,0,.61-.26.61-.77v-2.73c.05-.47.26-.81.64-.99Z"/>
    <path class="cls-2" d="M342.3,53.54c.52-.02.92.22,1.19.71.31.83.21,1.58-.28,2.26-.44.33-.97.38-1.58.15-.44-.33-.67-.81-.69-1.42-.02-1.05.43-1.62,1.35-1.7ZM342.1,59.74c.61-.04.99.33,1.14,1.11v12.58c-.05.62-.36,1-.92,1.15-.66.08-1.05-.29-1.17-1.11v-12.64c.12-.66.43-1.02.94-1.08Z"/>
    <path class="cls-2" d="M349.29,59.64c1.85-.95,3.51-1.13,4.98-.53,1.15.41,2.2,1.28,3.15,2.6.66.89.87,1.71.64,2.48-.2.54-.48.88-.84,1.02-.37.21-.75.05-1.14-.46-.15-.35-.32-.7-.51-1.05-.8-1.53-1.75-2.31-2.87-2.35-.86-.06-1.68.15-2.44.65-.41.25-.75.54-1.02.87-.92,1.32-1.32,2.76-1.22,4.31.03.89.2,1.71.51,2.48.41,1.01.98,1.7,1.73,2.08.75.43,1.57.64,2.47.62,1.29-.1,2.4-1.08,3.33-2.94.29-.91.69-1.37,1.19-1.39.51.08.86.43,1.07,1.05.17.6.05,1.23-.36,1.89-1.19,2.04-2.46,3.22-3.81,3.53-1.64.41-3.14.33-4.5-.25-1.12-.37-2.06-1.27-2.82-2.69-1.2-2.66-1.36-5.33-.46-7.99.22-.62.52-1.24.89-1.86.75-1.05,1.42-1.73,2.03-2.04Z"/>
    <path class="cls-2" d="M373.65,54.6c.14-.83.57-1.18,1.3-1.05.46.1.72.48.79,1.11v18.74c-.05.62-.36,1-.92,1.15-.66.08-1.05-.29-1.17-1.11v-18.83Z"/>
    <path class="cls-2" d="M381.15,61.5c2.2-2.37,4.47-3.04,6.81-1.98.76.31,1.34.97,1.73,1.98.39,1.14.62,2.37.69,3.72v8.15c-.05.64-.35,1.04-.89,1.21-.54.06-.92-.3-1.12-1.08v-8.36c-.03-.93-.26-1.77-.69-2.51-.29-.43-.66-.74-1.12-.93-1.19-.41-2.29-.35-3.3.19-1.71.93-2.63,2.41-2.75,4.43v7.09c-.07.68-.36,1.06-.86,1.15-.59.08-.98-.28-1.14-1.08v-13.07c.03-.39.17-.69.41-.9.49-.35.96-.28,1.4.22.22.39.29.96.2,1.7,0,.54.21.57.64.09Z"/>
    <path class="cls-2" d="M395.8,59.64c1.85-.95,3.51-1.13,4.98-.53,1.15.41,2.2,1.28,3.15,2.6.66.89.87,1.71.64,2.48-.2.54-.48.88-.84,1.02-.37.21-.75.05-1.14-.46-.15-.35-.32-.7-.51-1.05-.8-1.53-1.75-2.31-2.87-2.35-.86-.06-1.68.15-2.44.65-.41.25-.75.54-1.02.87-.92,1.32-1.32,2.76-1.22,4.31.03.89.2,1.71.51,2.48.41,1.01.98,1.7,1.73,2.08.75.43,1.57.64,2.47.62,1.29-.1,2.4-1.08,3.33-2.94.29-.91.69-1.37,1.19-1.39.51.08.86.43,1.07,1.05.17.6.05,1.23-.36,1.89-1.19,2.04-2.46,3.22-3.81,3.53-1.64.41-3.14.33-4.5-.25-1.12-.37-2.06-1.27-2.82-2.69-1.2-2.66-1.36-5.33-.46-7.99.22-.62.52-1.24.89-1.86.75-1.05,1.42-1.73,2.03-2.04Z"/>
    <path class="cls-2" d="M407.97,53.54c.69-.19,1.13.19,1.3,1.11v18.74c-.19.99-.65,1.35-1.4,1.08-.41-.19-.64-.56-.71-1.11v-18.65c.03-.62.31-1.01.81-1.18Z"/>
    <path class="cls-2" d="M412.75,59.09c.32-.14.66-.07,1.02.22.2.23.31.51.31.84v7.84c.07.91.23,1.73.48,2.48.51,1.16,1.25,1.79,2.24,1.89,1.05.08,2.04-.27,2.97-1.05,1.22-.91,1.91-2.09,2.06-3.53v-7.62c.02-.27.12-.53.31-.77.39-.41.79-.46,1.19-.15.29.21.45.53.48.96v13.29c-.07.64-.36,1.01-.89,1.11-.61.06-.98-.33-1.09-1.18v-1.15c0-.52-.2-.53-.58-.03-1.41,1.8-3.24,2.57-5.49,2.32-.75-.1-1.42-.33-2.03-.68-.98-.78-1.53-1.89-1.63-3.31v-10.41c.05-.52.27-.87.66-1.05Z"/>
    <path class="cls-2" d="M430.63,58.81c1.68-.17,3.21.33,4.6,1.49.97.87,1.42,1.63,1.37,2.29-.02.56-.18.95-.48,1.18-.61.41-1.19.08-1.75-.99-.64-.89-1.36-1.41-2.16-1.58-1.1-.23-2-.21-2.69.06-.36.1-.7.36-1.02.77-.61.89-.53,1.72.25,2.51.17.17.34.26.51.28,1.83.35,3.53.75,5.08,1.21.76.21,1.42.74,1.96,1.61.51.93.69,1.92.53,2.97-.05.95-.31,1.78-.76,2.48-.68.81-1.52,1.28-2.52,1.42-1.97.39-3.64.27-5.03-.37-1.15-.62-2.04-1.66-2.67-3.13-.19-.45-.26-.84-.23-1.15.25-.97.74-1.34,1.45-1.11.29.12.51.37.66.74.32.97.83,1.8,1.53,2.48,1.51.95,3,1.08,4.47.4.81-.41,1.25-1.01,1.32-1.8.24-.95-.06-1.7-.89-2.26-.95-.45-1.97-.75-3.05-.9-1.17-.1-2.19-.36-3.05-.77-1.68-.85-2.3-2.3-1.86-4.37.44-1.47,1.27-2.44,2.49-2.91.63-.29,1.27-.47,1.93-.56Z"/>
    <path class="cls-2" d="M440.14,53.54c.52-.02.92.22,1.19.71.31.83.21,1.58-.28,2.26-.44.33-.97.38-1.58.15-.44-.33-.67-.81-.69-1.42-.02-1.05.43-1.62,1.35-1.7ZM439.93,59.74c.61-.04.99.33,1.14,1.11v12.58c-.05.62-.36,1-.92,1.15-.66.08-1.05-.29-1.17-1.11v-12.64c.12-.66.43-1.02.94-1.08Z"/>
    <path class="cls-2" d="M448.45,58.9c.83-.21,1.78-.11,2.85.28.34.12.68.29,1.02.5.81.5,1.47,1.25,1.98,2.26.64,1.4.97,3.15.97,5.23-.03.76-.14,1.59-.31,2.48-.78,3.12-2.43,4.81-4.96,5.08-1.7.17-3.18-.34-4.45-1.52-.47-.45-.82-.9-1.04-1.33-.73-1.65-1.11-3.28-1.14-4.89.02-1.94.4-3.7,1.14-5.27.58-.99,1.21-1.68,1.91-2.08.59-.35,1.27-.6,2.03-.74ZM449.85,61.41c-.64-.08-1.31.03-2.01.34-.78.35-1.4.98-1.86,1.89-.8,2.23-.75,4.39.13,6.47.47.91,1.14,1.52,1.98,1.83,1.03.39,2.08.26,3.15-.4.76-.62,1.27-1.39,1.53-2.32.47-1.61.49-3.22.05-4.83-.46-1.67-1.45-2.66-2.97-2.97Z"/>
    <path class="cls-2" d="M459.64,61.5c2.2-2.37,4.47-3.04,6.81-1.98.76.31,1.34.97,1.73,1.98.39,1.14.62,2.37.69,3.72v8.15c-.05.64-.35,1.04-.89,1.21-.54.06-.92-.3-1.12-1.08v-8.36c-.03-.93-.26-1.77-.69-2.51-.29-.43-.66-.74-1.12-.93-1.19-.41-2.29-.35-3.3.19-1.71.93-2.63,2.41-2.75,4.43v7.09c-.07.68-.36,1.06-.86,1.15-.59.08-.98-.28-1.14-1.08v-13.07c.03-.39.17-.69.41-.9.49-.35.96-.28,1.4.22.22.39.29.96.2,1.7,0,.54.21.57.64.09Z"/>
    <path class="cls-2" d="M489.51,55.37c.41-1.28,1.06-1.9,1.96-1.86.56.06,1.02.48,1.37,1.24l6.33,17.34c.41.87.4,1.55-.03,2.04-.49.45-1.02.52-1.58.19-.34-.31-.57-.7-.69-1.18l-.97-2.73c-.2-.52-.5-.77-.89-.77h-7.58c-.41,0-.7.26-.89.77l-1.3,3.56c-.19.35-.4.55-.64.59-.36.04-.7-.13-1.02-.53-.49-.64-.5-1.5-.03-2.57l5.92-16.11ZM491.62,57.48c-.19-.52-.38-.54-.58-.06l-3.25,9.01c-.19.52-.07.77.36.77h6.15c.41,0,.52-.27.33-.81-1.02-2.97-2.02-5.95-3-8.92Z"/>
    <path class="cls-2" d="M505.35,58.81c1.68-.17,3.21.33,4.6,1.49.97.87,1.42,1.63,1.37,2.29-.02.56-.18.95-.48,1.18-.61.41-1.19.08-1.75-.99-.64-.89-1.36-1.41-2.16-1.58-1.1-.23-2-.21-2.69.06-.36.1-.7.36-1.02.77-.61.89-.53,1.72.25,2.51.17.17.34.26.51.28,1.83.35,3.53.75,5.09,1.21.76.21,1.41.74,1.96,1.61.51.93.69,1.92.53,2.97-.05.95-.31,1.78-.76,2.48-.68.81-1.52,1.28-2.52,1.42-1.97.39-3.64.27-5.03-.37-1.15-.62-2.04-1.66-2.67-3.13-.19-.45-.26-.84-.23-1.15.25-.97.74-1.34,1.45-1.11.29.12.51.37.66.74.32.97.83,1.8,1.53,2.48,1.51.95,3,1.08,4.47.4.81-.41,1.25-1.01,1.32-1.8.24-.95-.06-1.7-.89-2.26-.95-.45-1.97-.75-3.05-.9-1.17-.1-2.19-.36-3.05-.77-1.68-.85-2.3-2.3-1.86-4.37.44-1.47,1.27-2.44,2.49-2.91.63-.29,1.27-.47,1.93-.56Z"/>
    <path class="cls-2" d="M517.84,58.81c1.68-.17,3.21.33,4.6,1.49.97.87,1.42,1.63,1.37,2.29-.02.56-.18.95-.48,1.18-.61.41-1.19.08-1.75-.99-.64-.89-1.36-1.41-2.16-1.58-1.1-.23-2-.21-2.69.06-.36.1-.7.36-1.02.77-.61.89-.53,1.72.25,2.51.17.17.34.26.51.28,1.83.35,3.53.75,5.09,1.21.76.21,1.41.74,1.96,1.61.51.93.69,1.92.53,2.97-.05.95-.31,1.78-.76,2.48-.68.81-1.52,1.28-2.52,1.42-1.97.39-3.64.27-5.03-.37-1.15-.62-2.04-1.66-2.67-3.13-.19-.45-.26-.84-.23-1.15.25-.97.74-1.34,1.45-1.11.29.12.51.37.66.74.32.97.83,1.8,1.53,2.48,1.51.95,3,1.08,4.47.4.81-.41,1.25-1.01,1.32-1.8.24-.95-.06-1.7-.89-2.26-.95-.45-1.97-.75-3.05-.9-1.17-.1-2.19-.36-3.05-.77-1.68-.85-2.3-2.3-1.86-4.37.44-1.47,1.27-2.44,2.49-2.91.63-.29,1.27-.47,1.93-.56Z"/>
    <path class="cls-2" d="M530.35,58.9c.83-.21,1.78-.11,2.85.28.34.12.68.29,1.02.5.81.5,1.47,1.25,1.98,2.26.64,1.4.97,3.15.97,5.23-.03.76-.14,1.59-.31,2.48-.78,3.12-2.43,4.81-4.96,5.08-1.7.17-3.18-.34-4.45-1.52-.47-.45-.82-.9-1.04-1.33-.73-1.65-1.11-3.28-1.14-4.89.02-1.94.4-3.7,1.14-5.27.58-.99,1.21-1.68,1.91-2.08.59-.35,1.27-.6,2.03-.74ZM531.74,61.41c-.64-.08-1.31.03-2.01.34-.78.35-1.4.98-1.86,1.89-.8,2.23-.75,4.39.13,6.47.47.91,1.14,1.52,1.98,1.83,1.03.39,2.08.26,3.15-.4.76-.62,1.27-1.39,1.53-2.32.47-1.61.49-3.22.05-4.83-.46-1.67-1.45-2.66-2.97-2.97Z"/>
    <path class="cls-2" d="M542.19,59.64c1.85-.95,3.51-1.13,4.98-.53,1.15.41,2.2,1.28,3.15,2.6.66.89.87,1.71.64,2.48-.2.54-.48.88-.84,1.02-.37.21-.75.05-1.14-.46-.15-.35-.32-.7-.51-1.05-.8-1.53-1.75-2.31-2.87-2.35-.86-.06-1.68.15-2.44.65-.41.25-.75.54-1.02.87-.92,1.32-1.32,2.76-1.22,4.31.03.89.2,1.71.51,2.48.41,1.01.98,1.7,1.73,2.08.75.43,1.57.64,2.47.62,1.29-.1,2.4-1.08,3.33-2.94.29-.91.69-1.37,1.19-1.39.51.08.86.43,1.07,1.05.17.6.05,1.23-.36,1.89-1.19,2.04-2.46,3.22-3.81,3.53-1.65.41-3.15.33-4.5-.25-1.12-.37-2.06-1.27-2.82-2.69-1.2-2.66-1.36-5.33-.46-7.99.22-.62.52-1.24.89-1.86.75-1.05,1.42-1.73,2.03-2.04Z"/>
    <path class="cls-2" d="M554.68,53.54c.53-.02.92.22,1.19.71.31.83.21,1.58-.28,2.26-.44.33-.97.38-1.58.15-.44-.33-.67-.81-.69-1.42-.02-1.05.43-1.62,1.35-1.7ZM554.47,59.74c.61-.04.99.33,1.14,1.11v12.58c-.05.62-.36,1-.92,1.15-.66.08-1.05-.29-1.17-1.11v-12.64c.12-.66.43-1.02.94-1.08Z"/>
    <path class="cls-2" d="M560.4,60.23c1.03-.78,2.21-1.25,3.53-1.39h1.37c1.1.06,2.12.39,3.05.99.41.23.72.56.94.99.34.72.53,1.63.58,2.73v6.1c.13,1.63.32,2.82.56,3.56.1.78-.24,1.22-1.02,1.3-.66-.02-1.03-.43-1.09-1.24l-.05-.68c-.03-.52-.25-.53-.66-.03-.63.79-1.3,1.34-2.01,1.67-.69.29-1.38.45-2.06.5-.92.06-1.82-.07-2.72-.4-1.92-.72-2.81-2.36-2.69-4.92.1-1.26.6-2.22,1.5-2.88,1.81-.72,3.85-1.17,6.1-1.33.34-.02.68-.11,1.02-.28.86-.41,1.19-1.14.97-2.17-.1-.41-.37-.78-.79-1.12-.78-.5-1.6-.69-2.47-.59-1.22.14-2.24.76-3.05,1.86-.32.5-.65.81-.99.93-.41.17-.79.11-1.14-.15-.39-.33-.53-.72-.41-1.18.25-.85.76-1.6,1.53-2.26ZM567.87,66.92c0-.52-.2-.6-.61-.25-.27.21-.57.31-.89.31-1.7.29-3.39.59-5.09.9-.36.04-.67.3-.94.77-.39.74-.42,1.55-.08,2.42.42.76,1.08,1.25,1.96,1.46,1.03.19,1.97.12,2.82-.19.76-.25,1.41-.66,1.93-1.24.32-.37.57-.71.74-1.02.1-.21.15-.56.15-1.05v-2.11Z"/>
    <path class="cls-2" d="M574.94,54.63c.34-.14.68-.08,1.02.19.19.19.3.44.33.77v2.76c0,.52.21.77.64.77h2.95c.24.02.45.15.64.4.31.43.32.95.05,1.55-.22.27-.46.42-.71.46h-2.92c-.42,0-.64.25-.64.74v7.28c.03.41.08.83.15,1.24.03.48.25.86.66,1.15.97.64,1.97.4,3.03-.71.58-.76,1.08-.75,1.5.03.2.39.23.8.08,1.24-.14.48-.41.83-.81,1.05-1.63,1.09-3.15,1.32-4.58.68-.68-.31-1.19-.77-1.53-1.39-.29-.7-.45-1.53-.48-2.48v-8.08c0-.5-.2-.74-.61-.74h-1.4c-.68-.21-.97-.7-.86-1.49.08-.39.26-.66.53-.81.22-.08.58-.12,1.07-.12h.66c.41,0,.61-.26.61-.77v-2.73c.05-.47.26-.81.64-.99Z"/>
    <path class="cls-2" d="M584.88,53.54c.53-.02.92.22,1.19.71.31.83.21,1.58-.28,2.26-.44.33-.97.38-1.58.15-.44-.33-.67-.81-.69-1.42-.02-1.05.43-1.62,1.35-1.7ZM584.68,59.74c.61-.04.99.33,1.14,1.11v12.58c-.05.62-.36,1-.92,1.15-.66.08-1.05-.29-1.17-1.11v-12.64c.12-.66.43-1.02.94-1.08Z"/>
    <path class="cls-2" d="M593.2,58.9c.83-.21,1.78-.11,2.85.28.34.12.68.29,1.02.5.81.5,1.47,1.25,1.98,2.26.64,1.4.97,3.15.97,5.23-.03.76-.14,1.59-.31,2.48-.78,3.12-2.43,4.81-4.96,5.08-1.7.17-3.18-.34-4.45-1.52-.47-.45-.82-.9-1.04-1.33-.73-1.65-1.11-3.28-1.14-4.89.02-1.94.4-3.7,1.14-5.27.58-.99,1.21-1.68,1.91-2.08.59-.35,1.27-.6,2.03-.74ZM594.6,61.41c-.64-.08-1.31.03-2.01.34-.78.35-1.4.98-1.86,1.89-.8,2.23-.75,4.39.13,6.47.47.91,1.14,1.52,1.98,1.83,1.03.39,2.08.26,3.15-.4.76-.62,1.27-1.39,1.53-2.32.47-1.61.49-3.22.05-4.83-.46-1.67-1.45-2.66-2.97-2.97Z"/>
    <path class="cls-2" d="M604.38,61.5c2.2-2.37,4.47-3.04,6.81-1.98.76.31,1.34.97,1.73,1.98.39,1.14.62,2.37.69,3.72v8.15c-.05.64-.35,1.04-.89,1.21-.54.06-.92-.3-1.12-1.08v-8.36c-.03-.93-.26-1.77-.69-2.51-.29-.43-.66-.74-1.12-.93-1.19-.41-2.29-.35-3.3.19-1.71.93-2.63,2.41-2.75,4.43v7.09c-.07.68-.36,1.06-.86,1.15-.59.08-.97-.28-1.14-1.08v-13.07c.03-.39.17-.69.41-.9.49-.35.96-.28,1.4.22.22.39.29.96.2,1.7,0,.54.21.57.64.09Z"/>
  </g>
  <g>
    <ellipse class="cls-2" cx="138.43" cy="69.39" rx="4.05" ry="4.09"/>
    <ellipse class="cls-1" cx="82.71" cy="69.39" rx="4.05" ry="4.09"/>
    <ellipse class="cls-2" cx="109.76" cy="48.14" rx="4.05" ry="4.09"/>
    <path class="cls-2" d="M80.7,44.45l-.37.98c-.34.89-.68,1.78-1.01,2.68l-1.49,3.94c-.61,1.6-1.21,3.2-1.82,4.81-.67,1.75-1.33,3.51-2,5.26-.67,1.78-1.35,3.56-2.02,5.34-.63,1.65-1.25,3.3-1.88,4.95-.53,1.4-1.06,2.79-1.59,4.19l-1.14,3.01c-.18.48-.37.95-.54,1.43,0,.02-.02.04-.02.06,1.34.37,2.67.74,4.01,1.12l.37-.98,1.01-2.68c.5-1.31,1-2.63,1.49-3.94.61-1.6,1.21-3.2,1.82-4.81l2-5.26c.67-1.78,1.35-3.56,2.02-5.34.63-1.65,1.25-3.3,1.88-4.95.53-1.4,1.06-2.79,1.59-4.19.38-1,.76-2.01,1.14-3.01.18-.48.37-.95.54-1.43,0-.02.02-.04.02-.06h-4.01l.37.98c.34.89.68,1.78,1.01,2.68.5,1.31,1,2.63,1.49,3.94.61,1.6,1.21,3.2,1.82,4.81l2,5.26,2.02,5.34c.63,1.65,1.25,3.3,1.88,4.95.53,1.4,1.06,2.79,1.59,4.19.38,1,.76,2.01,1.14,3.01.18.48.36.95.54,1.43,0,.02.02.04.02.06.2.52.46.96.96,1.25.45.26,1.1.37,1.6.21s.99-.48,1.24-.96.41-1.1.21-1.62l-.37-.98-1.01-2.68-1.49-3.94c-.61-1.6-1.21-3.2-1.82-4.81-.67-1.75-1.33-3.51-2-5.26-.67-1.78-1.35-3.56-2.02-5.34-.63-1.65-1.25-3.3-1.88-4.95-.53-1.4-1.06-2.79-1.59-4.19l-1.14-3.01c-.18-.48-.36-.95-.54-1.43,0-.02-.02-.04-.02-.06-.17-.44-.37-.8-.75-1.09-.35-.27-.8-.47-1.26-.45-.37.02-.72.11-1.05.29-.49.26-.77.75-.96,1.25l-.37.98c-.34.89-.68,1.78-1.01,2.68l-1.49,3.94c-.61,1.6-1.21,3.2-1.82,4.81l-2,5.26-2.02,5.34c-.63,1.65-1.25,3.3-1.88,4.95-.53,1.4-1.06,2.79-1.59,4.19-.38,1-.76,2.01-1.14,3.01-.18.48-.37.95-.54,1.43,0,.02-.02.04-.02.06-.18.48-.04,1.19.21,1.62s.75.85,1.24.96c.53.12,1.13.1,1.6-.21s.75-.72.96-1.25l.37-.98c.34-.89.68-1.78,1.01-2.68.5-1.31,1-2.63,1.49-3.94l1.82-4.81c.67-1.75,1.33-3.51,2-5.26l2.02-5.34,1.88-4.95c.53-1.4,1.06-2.79,1.59-4.19.38-1,.76-2.01,1.14-3.01.18-.48.37-.95.54-1.43,0-.02.02-.04.02-.06.18-.48.04-1.19-.21-1.62s-.75-.85-1.24-.96c-.53-.12-1.13-.1-1.6.21s-.75.72-.96,1.25h0Z"/>
    <path class="cls-1" d="M136.42,44.45l-.37.98c-.34.89-.68,1.78-1.01,2.68l-1.49,3.94c-.61,1.6-1.21,3.2-1.82,4.81-.67,1.75-1.33,3.51-2,5.26s-1.35,3.56-2.02,5.34c-.63,1.65-1.25,3.3-1.88,4.95-.53,1.4-1.06,2.79-1.59,4.19l-1.14,3.01c-.18.48-.37.95-.54,1.43,0,.02-.02.04-.02.06,1.34.37,2.67.74,4.01,1.12l.37-.98,1.01-2.68c.5-1.31,1-2.63,1.49-3.94.61-1.6,1.21-3.2,1.82-4.81.67-1.75,1.33-3.51,2-5.26s1.35-3.56,2.02-5.34c.63-1.65,1.25-3.3,1.88-4.95l1.59-4.19,1.14-3.01c.18-.48.37-.95.54-1.43,0-.02.02-.04.02-.06h-4.01l.37.98c.34.89.68,1.78,1.01,2.68.5,1.31,1,2.63,1.49,3.94.61,1.6,1.21,3.2,1.82,4.81l2,5.26c.67,1.78,1.35,3.56,2.02,5.34.63,1.65,1.25,3.3,1.88,4.95.53,1.4,1.06,2.79,1.59,4.19.38,1,.76,2.01,1.14,3.01.18.48.36.95.54,1.43,0,.02.02.04.02.06.2.52.46.96.96,1.25.45.26,1.1.37,1.6.21s.99-.48,1.24-.96.41-1.1.21-1.62l-.37-.98c-.34-.89-.68-1.78-1.01-2.68l-1.49-3.94c-.61-1.6-1.21-3.2-1.82-4.81-.67-1.75-1.33-3.51-2-5.26-.67-1.78-1.35-3.56-2.02-5.34-.63-1.65-1.25-3.3-1.88-4.95-.53-1.4-1.06-2.79-1.59-4.19-.38-1-.76-2.01-1.14-3.01-.18-.48-.36-.95-.54-1.43,0-.02-.02-.04-.02-.06-.17-.44-.37-.8-.75-1.09-.35-.27-.8-.47-1.26-.45-.37.02-.72.11-1.05.29-.49.26-.77.75-.96,1.25l-.37.98-1.01,2.68c-.5,1.31-1,2.63-1.49,3.94-.61,1.6-1.21,3.2-1.82,4.81-.67,1.75-1.33,3.51-2,5.26-.67,1.78-1.35,3.56-2.02,5.34-.63,1.65-1.25,3.3-1.88,4.95-.53,1.4-1.06,2.79-1.59,4.19-.38,1-.76,2.01-1.14,3.01-.18.48-.37.95-.54,1.43,0,.02-.02.04-.02.06-.18.48-.04,1.19.21,1.62s.75.85,1.24.96c.53.12,1.13.1,1.6-.21s.75-.72.96-1.25c.12-.33.25-.65.37-.98.34-.89.68-1.78,1.01-2.68.5-1.31,1-2.63,1.49-3.94l1.82-4.81c.67-1.75,1.33-3.51,2-5.26.67-1.78,1.35-3.56,2.02-5.34.63-1.65,1.25-3.3,1.88-4.95.53-1.4,1.06-2.79,1.59-4.19.38-1,.76-2.01,1.14-3.01.18-.48.37-.95.54-1.43,0-.02.02-.04.02-.06.18-.48.04-1.19-.21-1.62s-.75-.85-1.24-.96c-.53-.12-1.13-.1-1.6.21s-.75.72-.96,1.25h0Z"/>
    <path class="cls-1" d="M116.29,54.67s-.04,0-.06,0h-.05c-.08,0-.16,0-.24,0,0,0,0,0,0,0s0,0,0,0c-.59,0-1.17,0-1.76,0h0s-4.24,0-4.24,0h-4.24c-.59,0-1.17,0-1.76,0,0,0,0,0,0,0s0,0,0,0c-.08,0-.16,0-.24,0h-.05s-.04,0-.06,0c-.92.05-1.65.82-1.65,1.76s.78,1.77,1.75,1.77c0,0,0,0,.01,0,.08.01.15.02.23.02.09,0,.18,0,.27-.02.08,0,.22,0,.47,0,.24,0,.48.01.72.03.03,0,.14.02.2.03.07.02.16.05.19.06.1.04.2.09.3.14.05.04.09.07.14.12.05.05.12.12.14.15.07.1.14.21.2.32.05.08.07.11.08.12,0,.02.02.07.05.17.08.22.16.44.23.67.09.3.19.78.29,1.34.29,1.65.4,3.36.46,5.06.02.56.04,1.13.05,1.69,0,4.74.01,9.47.02,14.21,0,.02,0,.05,0,.07s0,.05,0,.07h0s0,0,0,0c.04,1.18.98,2.14,2.16,2.18,1.17-.04,2.12-.99,2.16-2.18,0,0,0,0,0,0h0s0-.05,0-.08,0-.05,0-.07c0-4.74.01-9.47.02-14.21.01-.56.03-1.13.05-1.69.07-1.7.18-3.41.46-5.06.1-.56.2-1.04.29-1.34.07-.23.15-.45.23-.67.04-.1.05-.15.05-.17.01-.01.03-.05.08-.12.07-.11.13-.21.2-.32.03-.03.09-.1.14-.15.04-.04.09-.08.14-.12.1-.05.2-.1.3-.14.03-.01.12-.04.19-.06.07-.01.17-.03.2-.03.24-.02.48-.03.72-.03.25,0,.4,0,.47,0,.09.01.18.02.27.02.08,0,.15,0,.23-.02,0,0,0,0,.01,0,.97,0,1.75-.79,1.75-1.77s-.73-1.71-1.65-1.76Z"/>
    <ellipse class="cls-2" cx="68.81" cy="81.66" rx="2.11" ry="2.13"/>
  </g>
</svg>