<?xml version="1.0" encoding="UTF-8"?>
<svg id="_打孔" data-name="打孔" xmlns="http://www.w3.org/2000/svg" viewBox="0 0 450.49 454.24">
  <defs>
    <style>
      .cls-1 {
        fill: #686868;
      }

      .cls-2 {
        fill: #fff;
      }

      .cls-3 {
        fill: #003b5c;
      }
    </style>
  </defs>
  <rect class="cls-2" x="-3.55" width="455.74" height="454.24"/>
  <g>
    <g>
      <g>
        <path class="cls-1" d="M52.25,337.78c.33-1.02.84-1.52,1.56-1.48.45.05.81.38,1.1.99l5.05,13.84c.32.69.32,1.24-.02,1.63-.39.36-.81.41-1.26.15-.27-.25-.45-.56-.55-.94l-.77-2.17c-.16-.41-.4-.62-.71-.62h-6.05c-.33,0-.56.21-.71.62l-1.03,2.84c-.15.28-.32.43-.51.47-.28.03-.55-.11-.81-.42-.4-.51-.4-1.19-.02-2.05l4.73-12.86ZM53.94,339.46c-.15-.41-.31-.43-.47-.05l-2.6,7.19c-.15.41-.05.62.28.62h4.91c.33,0,.41-.21.27-.64-.81-2.37-1.61-4.75-2.4-7.12Z"/>
        <path class="cls-1" d="M61.22,337.48c.09-.72.46-1.12,1.1-1.19h7.28c.6-.07,1.15.03,1.67.29.26.12.51.38.75.79.43.88.67,1.8.71,2.77v1.26c-.02,1.19-.26,2.17-.75,2.97-.39.59-1.05.93-1.99.99h-6.66c-.34,0-.51.2-.51.59v6.2c-.15.78-.53,1.06-1.14.84-.27-.11-.42-.38-.47-.79v-14.73ZM70.44,338.52c-.33-.25-.74-.34-1.26-.3h-5.84c-.34,0-.51.2-.51.59v4.01c0,.41.17.62.51.62h6.27c.64-.03,1.12-.44,1.44-1.21.22-.68.22-1.62.02-2.82-.11-.36-.32-.66-.63-.89Z"/>
        <path class="cls-1" d="M78.53,337.78c.33-1.02.84-1.52,1.56-1.48.45.05.81.38,1.1.99l5.05,13.84c.32.69.32,1.24-.02,1.63-.39.36-.81.41-1.26.15-.27-.25-.45-.56-.55-.94l-.77-2.17c-.16-.41-.4-.62-.71-.62h-6.05c-.33,0-.56.21-.71.62l-1.03,2.84c-.15.28-.32.43-.51.47-.28.03-.55-.11-.81-.42-.4-.51-.4-1.19-.02-2.05l4.73-12.86ZM80.22,339.46c-.15-.41-.31-.43-.47-.05l-2.6,7.19c-.15.41-.05.62.28.62h4.91c.33,0,.41-.21.27-.64-.81-2.37-1.61-4.75-2.4-7.12Z"/>
        <path class="cls-1" d="M90.2,337.21c1.57-1.14,3.26-1.44,5.05-.91.55.16,1.1.44,1.62.81.92.69,1.59,1.63,2.01,2.82.15.38.21.71.18.99-.15.81-.51,1.17-1.07,1.09-.12-.02-.26-.1-.41-.25-.16-.2-.33-.52-.48-.96-.74-1.68-1.71-2.58-2.9-2.7-.73-.15-1.37-.1-1.93.12-.88.26-1.65.96-2.31,2.08-.87,1.62-1.22,3.34-1.08,5.17.07.74.16,1.4.28,1.98.26,1.19.8,2.14,1.62,2.84,1.07.72,2.17,1.03,3.31.91,1.38-.2,2.62-1.42,3.71-3.66.26-.3.56-.34.91-.12.11.02.22.15.34.4.16.33.21.66.14.99-.45,1.55-1.35,2.78-2.72,3.68-1.22.64-2.5.91-3.83.82-1.11-.1-2.19-.67-3.25-1.71-1.03-1.14-1.66-2.5-1.89-4.08-.36-2.17-.26-4.34.33-6.5.47-1.55,1.26-2.82,2.35-3.81Z"/>
        <path class="cls-1" d="M115.37,337.78c.33-1.02.84-1.52,1.56-1.48.45.05.81.38,1.1.99l5.05,13.84c.32.69.32,1.24-.02,1.63-.39.36-.81.41-1.26.15-.27-.25-.45-.56-.55-.94l-.77-2.17c-.16-.41-.4-.62-.71-.62h-6.05c-.33,0-.56.21-.71.62l-1.03,2.84c-.15.28-.32.43-.51.47-.28.03-.55-.11-.81-.42-.4-.51-.4-1.19-.02-2.05l4.73-12.86ZM117.05,339.46c-.15-.41-.31-.43-.47-.05l-2.6,7.19c-.15.41-.05.62.28.62h4.91c.33,0,.41-.21.27-.64-.81-2.37-1.61-4.75-2.4-7.12Z"/>
        <path class="cls-1" d="M124.91,340.75c.26-.12.53-.06.81.17.16.18.24.41.24.67v6.25c.05.72.18,1.38.38,1.98.41.92,1,1.42,1.79,1.51.84.07,1.63-.22,2.38-.84.97-.72,1.52-1.67,1.64-2.82v-6.08c.01-.22.09-.42.24-.62.31-.33.63-.37.95-.12.23.17.36.42.38.77v10.6c-.05.51-.29.81-.71.89-.49.05-.78-.26-.87-.94v-.91c0-.41-.16-.42-.47-.02-1.12,1.43-2.58,2.05-4.38,1.85-.59-.08-1.14-.26-1.62-.54-.79-.62-1.22-1.51-1.3-2.64v-8.31c.04-.41.21-.69.53-.84Z"/>
        <path class="cls-1" d="M137.75,337.19c.27-.11.54-.07.81.15.15.15.24.35.26.62v2.2c0,.41.17.62.51.62h2.35c.19.02.36.12.51.32.24.34.26.76.04,1.24-.17.21-.36.34-.57.37h-2.33c-.34,0-.51.2-.51.59v5.81c.03.33.07.66.12.99.03.38.2.68.53.91.77.51,1.58.32,2.41-.57.46-.61.86-.6,1.2.02.16.31.18.64.06.99-.11.38-.33.66-.65.84-1.3.88-2.52,1.06-3.65.55-.54-.25-.95-.62-1.22-1.11-.23-.56-.36-1.22-.39-1.98v-6.45c0-.4-.16-.59-.48-.59h-1.12c-.54-.17-.77-.56-.69-1.19.07-.31.21-.53.43-.64.17-.07.46-.1.85-.1h.53c.32,0,.48-.21.48-.62v-2.18c.04-.38.21-.64.51-.79Z"/>
        <path class="cls-1" d="M144.39,337.19c.14-.71.49-1,1.05-.86.31.07.5.36.55.89v4.79c0,.43.17.45.51.07,1-1.02,2.09-1.49,3.27-1.41.59.07,1.14.21,1.62.45,1.11.54,1.72,1.34,1.85,2.4.08.43.09.99.04,1.68v7.02c-.12.64-.44.92-.95.84-.39-.13-.61-.41-.65-.84v-7.36c-.02-.26-.1-.59-.26-.99-.41-.71-.95-1.13-1.62-1.26-.81-.21-1.64.03-2.48.74-.69.59-1.08,1.25-1.18,1.98-.05.26-.1.62-.14,1.09v5.76c-.05.55-.29.85-.69.91-.48.07-.78-.22-.91-.86v-15.03Z"/>
        <path class="cls-1" d="M157.29,341.39c1.04-.66,2.12-.94,3.25-.84.95.13,1.76.48,2.43,1.06.62.51,1.08,1.12,1.36,1.83.43,1.05.64,2.19.61,3.41-.04.41-.19.66-.47.74h-7.39c-.33,0-.48.21-.47.62.03.74.21,1.39.55,1.95.58.86,1.37,1.32,2.35,1.38,1.02,0,1.72-.1,2.11-.3.74-.33,1.41-1.06,1.99-2.2.27-.41.53-.52.79-.32.3.21.42.53.36.94-.05.45-.27.94-.65,1.48-.46.67-1,1.16-1.6,1.43-1.49.74-3.03.86-4.62.34-1.72-.69-2.71-2.1-2.97-4.22-.19-1.55-.05-3.05.43-4.5.35-1.12,1-2.06,1.93-2.82ZM160.23,342.45c-.95-.13-1.82.18-2.62.94-.5.56-.8,1.16-.89,1.78-.03.41.13.62.47.62h5.36c.33,0,.51-.02.55-.07.14-.18.14-.49,0-.91-.1-.66-.53-1.26-1.3-1.81-.5-.31-1.02-.49-1.56-.54Z"/>
        <path class="cls-1" d="M168.49,342.67c1.76-1.9,3.57-2.42,5.44-1.58.61.25,1.07.78,1.38,1.58.31.91.49,1.9.55,2.97v6.5c-.04.51-.28.83-.71.97-.43.05-.73-.24-.9-.86v-6.67c-.03-.74-.21-1.41-.55-2-.23-.34-.53-.59-.89-.74-.95-.33-1.83-.28-2.64.15-1.36.74-2.1,1.92-2.19,3.53v5.66c-.05.55-.29.85-.69.91-.48.07-.78-.22-.91-.86v-10.43c.03-.31.14-.55.33-.72.39-.28.76-.22,1.12.17.17.31.23.77.16,1.36,0,.43.17.45.51.07Z"/>
        <path class="cls-1" d="M179.8,337.19c.27-.11.54-.07.81.15.15.15.24.35.26.62v2.2c0,.41.17.62.51.62h2.35c.19.02.36.12.51.32.24.34.26.76.04,1.24-.17.21-.36.34-.57.37h-2.33c-.34,0-.51.2-.51.59v5.81c.03.33.07.66.12.99.03.38.2.68.53.91.77.51,1.58.32,2.41-.57.46-.61.86-.6,1.2.02.16.31.18.64.06.99-.11.38-.33.66-.65.84-1.3.88-2.52,1.06-3.65.55-.54-.25-.95-.62-1.22-1.11-.23-.56-.36-1.22-.39-1.98v-6.45c0-.4-.16-.59-.48-.59h-1.12c-.54-.17-.77-.56-.69-1.19.07-.31.21-.53.43-.64.17-.07.46-.1.85-.1h.53c.32,0,.48-.21.48-.62v-2.18c.04-.38.21-.64.51-.79Z"/>
        <path class="cls-1" d="M187.73,336.32c.42-.02.74.17.95.57.24.66.17,1.26-.22,1.8-.35.27-.77.31-1.26.12-.35-.26-.53-.64-.55-1.14-.02-.84.34-1.29,1.07-1.36ZM187.57,341.27c.49-.03.79.26.91.89v10.04c-.04.49-.28.8-.73.91-.53.07-.84-.23-.93-.89v-10.09c.09-.53.34-.81.75-.86Z"/>
        <path class="cls-1" d="M193.31,341.19c1.47-.76,2.8-.9,3.98-.42.92.33,1.76,1.02,2.52,2.08.53.71.7,1.37.51,1.98-.16.43-.39.7-.67.82-.3.16-.6.04-.91-.37-.12-.28-.26-.56-.41-.84-.64-1.22-1.4-1.84-2.29-1.88-.69-.05-1.34.12-1.95.52-.33.2-.6.43-.81.69-.73,1.05-1.05,2.2-.97,3.43.03.71.16,1.37.41,1.98.32.81.78,1.36,1.38,1.66.59.34,1.25.51,1.97.5,1.03-.09,1.91-.87,2.66-2.35.23-.72.55-1.1.95-1.11.41.07.69.34.85.84.14.48.04.98-.28,1.51-.95,1.63-1.96,2.57-3.04,2.82-1.31.33-2.51.26-3.59-.2-.89-.3-1.64-1.02-2.25-2.15-.96-2.13-1.08-4.25-.36-6.38.17-.49.41-.99.71-1.48.59-.84,1.14-1.39,1.62-1.63Z"/>
        <path class="cls-1" d="M212.75,337.16c.1-.66.45-.94,1.03-.84.36.08.57.38.63.89v14.95c-.04.5-.28.8-.73.91-.53.07-.84-.23-.93-.89v-15.03Z"/>
        <path class="cls-1" d="M218.74,342.67c1.76-1.9,3.57-2.42,5.44-1.58.61.25,1.07.78,1.38,1.58.31.91.49,1.9.55,2.97v6.5c-.04.51-.28.83-.71.97-.43.05-.73-.24-.9-.86v-6.67c-.03-.74-.21-1.41-.55-2-.23-.34-.53-.59-.89-.74-.95-.33-1.83-.28-2.64.15-1.36.74-2.1,1.92-2.19,3.53v5.66c-.05.55-.29.85-.69.91-.48.07-.78-.22-.91-.86v-10.43c.03-.31.14-.55.33-.72.39-.28.76-.22,1.12.17.17.31.23.77.16,1.36,0,.43.17.45.51.07Z"/>
        <path class="cls-1" d="M230.43,341.19c1.47-.76,2.8-.9,3.98-.42.92.33,1.76,1.02,2.52,2.08.53.71.7,1.37.51,1.98-.16.43-.39.7-.67.82-.3.16-.6.04-.91-.37-.12-.28-.26-.56-.41-.84-.64-1.22-1.4-1.84-2.29-1.88-.69-.05-1.34.12-1.95.52-.33.2-.6.43-.81.69-.73,1.05-1.05,2.2-.97,3.43.03.71.16,1.37.41,1.98.32.81.78,1.36,1.38,1.66.59.34,1.25.51,1.97.5,1.03-.09,1.91-.87,2.66-2.35.23-.72.55-1.1.95-1.11.41.07.69.34.85.84.14.48.04.98-.28,1.51-.95,1.63-1.96,2.57-3.04,2.82-1.31.33-2.51.26-3.59-.2-.89-.3-1.64-1.02-2.25-2.15-.96-2.13-1.08-4.25-.36-6.38.17-.49.41-.99.71-1.48.59-.84,1.14-1.39,1.62-1.63Z"/>
        <path class="cls-1" d="M240.15,336.32c.55-.15.9.15,1.03.89v14.95c-.15.79-.52,1.08-1.12.87-.32-.15-.51-.45-.57-.89v-14.88c.03-.5.24-.81.65-.94Z"/>
        <path class="cls-1" d="M243.96,340.75c.26-.12.53-.06.81.17.16.18.24.41.24.67v6.25c.05.72.18,1.38.38,1.98.41.92,1,1.42,1.79,1.51.84.07,1.63-.22,2.38-.84.97-.72,1.52-1.67,1.64-2.82v-6.08c.01-.22.09-.42.24-.62.31-.33.63-.37.95-.12.23.17.36.42.38.77v10.6c-.05.51-.29.81-.71.89-.49.05-.78-.26-.87-.94v-.91c0-.41-.16-.42-.47-.02-1.12,1.43-2.58,2.05-4.38,1.85-.59-.08-1.14-.26-1.62-.54-.79-.62-1.22-1.51-1.3-2.64v-8.31c.04-.41.21-.69.53-.84Z"/>
        <path class="cls-1" d="M258.23,340.52c1.34-.13,2.56.27,3.67,1.19.77.69,1.14,1.3,1.1,1.83-.01.44-.14.76-.38.94-.49.33-.95.07-1.4-.79-.51-.71-1.09-1.13-1.72-1.26-.88-.18-1.6-.17-2.15.05-.28.09-.55.29-.81.62-.49.71-.42,1.38.2,2,.14.13.27.21.41.22,1.46.28,2.81.6,4.06.97.61.16,1.13.59,1.56,1.28.41.74.55,1.53.43,2.37-.04.76-.24,1.42-.61,1.98-.54.64-1.21,1.02-2.01,1.14-1.57.31-2.91.21-4.02-.29-.92-.5-1.63-1.33-2.13-2.5-.15-.36-.21-.67-.18-.91.21-.77.59-1.07,1.16-.89.23.1.4.29.53.59.26.78.66,1.43,1.22,1.98,1.21.76,2.4.86,3.57.32.65-.33,1-.81,1.06-1.43.19-.76-.05-1.36-.71-1.81-.76-.36-1.57-.6-2.43-.71-.93-.09-1.74-.29-2.43-.62-1.34-.67-1.83-1.84-1.48-3.48.35-1.17,1.02-1.95,1.99-2.33.5-.23,1.02-.38,1.54-.45Z"/>
        <path class="cls-1" d="M265.82,336.32c.42-.02.74.17.95.57.24.66.17,1.26-.22,1.8-.35.27-.77.31-1.26.12-.35-.26-.53-.64-.55-1.14-.02-.84.34-1.29,1.07-1.36ZM265.65,341.27c.49-.03.79.26.91.89v10.04c-.04.49-.28.8-.73.91-.53.07-.84-.23-.93-.89v-10.09c.09-.53.34-.81.75-.86Z"/>
        <path class="cls-1" d="M272.46,340.6c.66-.17,1.42-.09,2.27.22.27.1.54.23.81.4.65.4,1.17,1,1.58,1.81.52,1.12.77,2.51.77,4.17-.03.61-.11,1.27-.24,1.98-.62,2.49-1.94,3.84-3.96,4.05-1.35.13-2.53-.27-3.55-1.21-.38-.36-.66-.72-.83-1.06-.58-1.32-.88-2.62-.91-3.91.01-1.55.32-2.95.91-4.2.46-.79.97-1.34,1.52-1.66.47-.28,1.02-.48,1.62-.59ZM273.57,342.6c-.52-.07-1.05.03-1.6.27-.62.28-1.12.78-1.48,1.51-.64,1.78-.6,3.5.1,5.17.38.73.91,1.21,1.59,1.46.83.31,1.66.21,2.52-.32.61-.5,1.02-1.11,1.22-1.86.38-1.28.39-2.57.04-3.86-.36-1.33-1.16-2.12-2.37-2.37Z"/>
        <path class="cls-1" d="M281.39,342.67c1.76-1.9,3.57-2.42,5.44-1.58.61.25,1.07.78,1.38,1.58.31.91.49,1.9.55,2.97v6.5c-.04.51-.28.83-.71.97-.43.05-.73-.24-.9-.86v-6.67c-.03-.74-.21-1.41-.55-2-.23-.34-.53-.59-.89-.74-.95-.33-1.83-.28-2.64.15-1.36.74-2.1,1.92-2.19,3.53v5.66c-.05.55-.29.85-.69.91-.48.07-.78-.22-.91-.86v-10.43c.03-.31.14-.55.33-.72.39-.28.76-.22,1.12.17.17.31.23.77.16,1.36,0,.43.17.45.51.07Z"/>
        <path class="cls-1" d="M305.23,337.78c.33-1.02.84-1.52,1.56-1.48.45.05.81.38,1.1.99l5.05,13.84c.32.69.32,1.24-.02,1.63-.39.36-.81.41-1.26.15-.27-.25-.45-.56-.55-.94l-.77-2.17c-.16-.41-.4-.62-.71-.62h-6.05c-.33,0-.56.21-.71.62l-1.03,2.84c-.15.28-.32.43-.51.47-.28.03-.55-.11-.81-.42-.4-.51-.4-1.19-.02-2.05l4.73-12.86ZM306.91,339.46c-.15-.41-.31-.43-.47-.05l-2.6,7.19c-.15.41-.05.62.28.62h4.91c.33,0,.41-.21.27-.64-.81-2.37-1.61-4.75-2.4-7.12Z"/>
        <path class="cls-1" d="M317.87,340.52c1.34-.13,2.56.27,3.67,1.19.77.69,1.14,1.3,1.1,1.83-.01.44-.14.76-.38.94-.49.33-.95.07-1.4-.79-.51-.71-1.09-1.13-1.72-1.26-.88-.18-1.6-.17-2.15.05-.28.09-.55.29-.81.62-.49.71-.42,1.38.2,2,.14.13.27.21.41.22,1.46.28,2.81.6,4.06.97.61.16,1.13.59,1.56,1.28.41.74.55,1.53.43,2.37-.04.76-.24,1.42-.61,1.98-.54.64-1.21,1.02-2.01,1.14-1.57.31-2.91.21-4.02-.29-.92-.5-1.63-1.33-2.13-2.5-.15-.36-.21-.67-.18-.91.21-.77.59-1.07,1.16-.89.23.1.4.29.53.59.26.78.66,1.43,1.22,1.98,1.21.76,2.4.86,3.57.32.65-.33,1-.81,1.06-1.43.19-.76-.05-1.36-.71-1.81-.76-.36-1.57-.6-2.43-.71-.93-.09-1.74-.29-2.43-.62-1.34-.67-1.83-1.84-1.48-3.48.35-1.17,1.02-1.95,1.99-2.33.5-.23,1.02-.38,1.54-.45Z"/>
        <path class="cls-1" d="M327.84,340.52c1.34-.13,2.56.27,3.67,1.19.77.69,1.14,1.3,1.1,1.83-.01.44-.14.76-.38.94-.49.33-.95.07-1.4-.79-.51-.71-1.09-1.13-1.72-1.26-.88-.18-1.6-.17-2.15.05-.28.09-.55.29-.81.62-.49.71-.42,1.38.2,2,.14.13.27.21.41.22,1.46.28,2.81.6,4.06.97.61.16,1.13.59,1.56,1.28.41.74.55,1.53.43,2.37-.04.76-.24,1.42-.61,1.98-.54.64-1.21,1.02-2.01,1.14-1.57.31-2.91.21-4.02-.29-.92-.5-1.63-1.33-2.13-2.5-.15-.36-.21-.67-.18-.91.21-.77.59-1.07,1.16-.89.23.1.4.29.53.59.26.78.66,1.43,1.22,1.98,1.21.76,2.4.86,3.57.32.65-.33,1-.81,1.06-1.43.19-.76-.05-1.36-.71-1.81-.76-.36-1.57-.6-2.43-.71-.93-.09-1.74-.29-2.43-.62-1.34-.67-1.83-1.84-1.48-3.48.35-1.17,1.02-1.95,1.99-2.33.5-.23,1.02-.38,1.54-.45Z"/>
        <path class="cls-1" d="M337.82,340.6c.66-.17,1.42-.09,2.27.22.27.1.54.23.81.4.65.4,1.17,1,1.58,1.81.52,1.12.77,2.51.77,4.17-.03.61-.11,1.27-.24,1.98-.62,2.49-1.94,3.84-3.96,4.05-1.35.13-2.53-.27-3.55-1.21-.38-.36-.66-.72-.83-1.06-.58-1.32-.88-2.62-.91-3.91.01-1.55.32-2.95.91-4.2.46-.79.97-1.34,1.52-1.66.47-.28,1.02-.48,1.62-.59ZM338.93,342.6c-.52-.07-1.05.03-1.6.27-.62.28-1.12.78-1.48,1.51-.64,1.78-.6,3.5.1,5.17.38.73.91,1.21,1.59,1.46.83.31,1.66.21,2.52-.32.61-.5,1.02-1.11,1.22-1.86.38-1.28.39-2.57.04-3.86-.36-1.33-1.16-2.12-2.37-2.37Z"/>
        <path class="cls-1" d="M347.27,341.19c1.47-.76,2.8-.9,3.98-.42.92.33,1.76,1.02,2.52,2.08.53.71.7,1.37.51,1.98-.16.43-.39.7-.67.82-.3.16-.6.04-.91-.37-.12-.28-.26-.56-.41-.84-.64-1.22-1.4-1.84-2.29-1.88-.69-.05-1.34.12-1.95.52-.33.2-.6.43-.81.69-.73,1.05-1.05,2.2-.97,3.43.03.71.16,1.37.41,1.98.32.81.78,1.36,1.38,1.66.59.34,1.25.51,1.97.5,1.03-.09,1.91-.87,2.66-2.35.23-.72.55-1.1.95-1.11.41.07.69.34.85.84.14.48.04.98-.28,1.51-.95,1.63-1.96,2.57-3.04,2.82-1.31.33-2.51.26-3.59-.2-.89-.3-1.64-1.02-2.25-2.15-.96-2.13-1.08-4.25-.36-6.38.17-.49.41-.99.71-1.48.59-.84,1.14-1.39,1.62-1.63Z"/>
        <path class="cls-1" d="M357.24,336.32c.42-.02.74.17.95.57.24.66.17,1.26-.22,1.8-.35.27-.77.31-1.26.12-.35-.26-.53-.64-.55-1.14-.02-.84.34-1.29,1.07-1.36ZM357.08,341.27c.49-.03.79.26.91.89v10.04c-.04.49-.28.8-.73.91-.53.07-.84-.23-.93-.89v-10.09c.09-.53.34-.81.75-.86Z"/>
        <path class="cls-1" d="M361.81,341.66c.83-.63,1.76-1,2.82-1.11h1.09c.88.05,1.69.31,2.44.79.32.18.57.45.75.79.27.58.43,1.3.47,2.17v4.87c.11,1.3.26,2.25.45,2.84.08.63-.19.97-.81,1.04-.53-.02-.82-.34-.88-.99l-.04-.54c-.03-.41-.2-.42-.53-.03-.5.63-1.03,1.07-1.6,1.34-.55.23-1.1.36-1.64.4-.73.05-1.45-.06-2.17-.32-1.53-.58-2.25-1.89-2.15-3.93.08-1.01.48-1.77,1.2-2.3,1.45-.58,3.07-.93,4.87-1.07.27-.02.54-.09.81-.22.69-.33.95-.91.77-1.73-.08-.33-.29-.62-.63-.89-.62-.4-1.28-.55-1.97-.47-.98.11-1.79.61-2.44,1.48-.26.4-.52.64-.79.74-.33.13-.63.09-.91-.12-.31-.26-.42-.58-.33-.94.2-.67.61-1.28,1.22-1.8ZM367.77,347c0-.41-.16-.48-.48-.2-.22.17-.45.25-.71.25-1.35.23-2.71.47-4.06.72-.28.03-.53.24-.75.62-.31.59-.33,1.24-.06,1.93.34.61.86,1,1.56,1.16.83.15,1.57.1,2.25-.15.61-.2,1.12-.53,1.54-.99.26-.3.45-.57.59-.82.08-.16.12-.45.12-.84v-1.68Z"/>
        <path class="cls-1" d="M373.41,337.19c.27-.11.54-.07.81.15.15.15.24.35.26.62v2.2c0,.41.17.62.51.62h2.35c.19.02.36.12.51.32.24.34.26.76.04,1.24-.17.21-.36.34-.57.37h-2.33c-.34,0-.51.2-.51.59v5.81c.03.33.07.66.12.99.03.38.2.68.53.91.77.51,1.58.32,2.41-.57.46-.61.86-.6,1.2.02.16.31.18.64.06.99-.11.38-.33.66-.65.84-1.3.88-2.52,1.06-3.65.55-.54-.25-.95-.62-1.22-1.11-.23-.56-.36-1.22-.39-1.98v-6.45c0-.4-.16-.59-.48-.59h-1.12c-.54-.17-.77-.56-.69-1.19.07-.31.21-.53.43-.64.17-.07.46-.1.85-.1h.53c.32,0,.48-.21.48-.62v-2.18c.04-.38.21-.64.51-.79Z"/>
        <path class="cls-1" d="M381.34,336.32c.42-.02.74.17.95.57.24.66.17,1.26-.22,1.8-.35.27-.77.31-1.26.12-.35-.26-.53-.64-.55-1.14-.02-.84.34-1.29,1.07-1.36ZM381.18,341.27c.49-.03.79.26.91.89v10.04c-.04.49-.28.8-.73.91-.53.07-.84-.23-.93-.89v-10.09c.09-.53.34-.81.75-.86Z"/>
        <path class="cls-1" d="M387.98,340.6c.66-.17,1.42-.09,2.27.22.27.1.54.23.81.4.65.4,1.17,1,1.58,1.81.52,1.12.77,2.51.77,4.17-.03.61-.11,1.27-.24,1.98-.62,2.49-1.94,3.84-3.96,4.05-1.35.13-2.53-.27-3.55-1.21-.38-.36-.66-.72-.83-1.06-.58-1.32-.88-2.62-.91-3.91.01-1.55.32-2.95.91-4.2.46-.79.97-1.34,1.52-1.66.47-.28,1.02-.48,1.62-.59ZM389.1,342.6c-.52-.07-1.05.03-1.6.27-.62.28-1.12.78-1.48,1.51-.64,1.78-.6,3.5.1,5.17.38.73.91,1.21,1.59,1.46.83.31,1.66.21,2.52-.32.61-.5,1.02-1.11,1.22-1.86.38-1.28.39-2.57.04-3.86-.36-1.33-1.16-2.12-2.37-2.37Z"/>
        <path class="cls-1" d="M396.91,342.67c1.76-1.9,3.57-2.42,5.44-1.58.61.25,1.07.78,1.38,1.58.31.91.49,1.9.55,2.97v6.5c-.04.51-.28.83-.71.97-.43.05-.73-.24-.9-.86v-6.67c-.03-.74-.21-1.41-.55-2-.23-.34-.53-.59-.89-.74-.95-.33-1.83-.28-2.64.15-1.36.74-2.1,1.92-2.19,3.53v5.66c-.05.55-.29.85-.69.91-.48.07-.78-.22-.91-.86v-10.43c.03-.31.14-.55.33-.72.39-.28.76-.22,1.12.17.17.31.23.77.16,1.36,0,.43.17.45.51.07Z"/>
      </g>
      <g>
        <path class="cls-3" d="M81.47,321.45l-9.66-.02c-.11,0-.16,0-.17-.01,0-.02-.02-.07-.02-.18v-4.49c0-.7.07-.93.07-.93,0,0,0,0,0,0,.12-.23.25-.3.41-.32h6.16l.2-.03c1.87-.5,2.41-1.72,2.53-2.65v-10.26s0-.11,0-.11c-.1-.7-.44-1.38-1.04-2.05-.53-.53-1.2-.87-1.99-1h-5.98c-.16-.05-.23-.11-.27-.16-.03-.11-.08-.39-.08-.98v-3.4c0-.08,0-.12,0-.13.03,0,.08-.02.19-.02h8.31c.63-.13,1.13-.47,1.44-.96.39-.56.43-1.26.13-2.08l-.08-.16c-.55-.84-1.23-1.02-1.71-1.02h-32.03l-.18.02c-.71.17-1.21.5-1.5,1-.29.5-.33,1.11-.13,1.82l.03.09c.32.75.89,1.21,1.61,1.29h8.88c.08,0,.12.02.14.01,0,.02.01.07.01.15v4.23c-.17.55-.44.57-.55.58h-5.98l-.23.03c-1.55.47-2.51,1.5-2.77,2.95v9.71s0,.1,0,.1c.2,1.57,1.16,2.56,2.78,2.86h6.11c.63.23.63.47.63.56v5.35c0,.11-.01.17-.01.18-.02,0-.07.02-.14.02h-9.53c-.81.04-1.43.53-1.75,1.36l-.03.09c-.33,1.34.23,2.36,1.52,2.74l34.69.03h.05c.48-.07,1.15-.33,1.58-1.32.24-.72.22-1.35-.07-1.86-.29-.51-.81-.85-1.55-1.02ZM60.97,300.46l.02-5.59c0-.08,0-.12,0-.13.03,0,.08-.02.19-.02h6.02c.08,0,.12,0,.13,0,0,.03.02.08.02.19v5.63l.03.21c.6,2.21,1.96,2.79,3.06,2.88h5.13c.55-.07.82,0,.94.06.14.13.22.25.22.33v6.72c-.09.4-.25.48-.44.5h-6.22c-.97.13-2.23.66-2.7,2.51l-.02,7.49c0,.11-.01.17-.01.18-.02,0-.07.02-.14.02h-6.02c-.1,0-.15-.01-.17-.01,0,0,0,0,0,0,0-.02-.02-.07-.02-.18v-6.89c-.33-1.91-1.47-3.04-3.3-3.26h-4.86c-.58,0-.88-.07-1.02-.12-.24-.15-.31-.3-.35-.43v-6.01c.19-.57.41-.58.47-.59h5.48c1.32-.16,3.02-.89,3.57-3.47Z"/>
        <path class="cls-3" d="M114.31,322.14c-1.08-1.87-2.5-3.99-4.23-6.32l-.09-.1c-.92-.87-1.72-.8-2.22-.58l-.08.04c-.71.41-1.14.92-1.27,1.52-.13.57.02,1.16.48,1.81,1.7,2,3.18,4.31,4.42,6.87l.05.09c.59.89,1.25,1.13,1.82,1.13.31,0,.59-.07.81-.16,1.1-.52,1.27-1.33,1.27-1.76v-.14c-.16-.83-.49-1.64-.96-2.4Z"/>
        <path class="cls-3" d="M128.24,321.95c-3.81-2.47-7.14-5.51-9.87-9.03-2.51-3.39-4.41-7.45-5.65-12.02,0,0,0,0,0-.01h13.46c1.22,0,1.48-.06,1.68-.14,1.4-.61,1.9-1.75,1.32-3.1-.23-.45-.7-1.02-1.68-1.17h-15.04c-.08,0-.13-.01-.15-.01,0-.03-.01-.08,0-.16v-.04s0-.04,0-.04c-.02-.35,0-.7.07-1.06v-4.36s0-.18,0-.18c-.28-1.23-1.05-1.66-1.64-1.8-.62-.14-2.11-.26-2.73,1.79l-.03.11v5s-.04.47-.04.47c0,.17-.04.24-.04.24-.01,0-.06.02-.16.02h-13.63c-.91,0-1.53.08-1.93.27l-.18.11c-.89.75-.98,1.6-.9,2.19l.02.08c.35,1.42,1.32,1.72,1.93,1.76h14.39s0,.05,0,.07c-.35,2.28-1.01,4.64-1.94,7-.93,2.17-2.12,4.22-3.52,6.06-2.96,3.61-6.27,6.3-9.82,7.98-1.11.48-1.62,1.42-1.39,2.61.3,1.32,1.21,1.97,2.49,1.71.62-.17,1.19-.38,1.68-.63,1.3-.6,2.4-1.25,3.28-1.93,3.33-2.62,6.05-5.49,8.11-8.55,1.83-2.85,3.19-5.66,4.05-8.34,1.34,3.33,3.22,6.61,5.63,9.78,3.07,3.76,6.02,6.7,8.73,8.73.88.76,1.69,1.13,2.46,1.13h.14c.63-.12,1.18-.46,1.64-1.04.87-1.27.62-2.54-.73-3.52Z"/>
        <path class="cls-3" d="M174.79,317.25c-.15-1.34-.99-2.1-2.3-2.1-1.15,0-1.96.73-2.21,2l-.02.08v2.1c-.02.44-.07.87-.14,1.28v.07c-.05.06-.2.25-.63.56-.44.25-.85.39-1.27.41-1.37.18-3.21.29-5.45.35h-4.55c-3.69-.08-7.22-.26-10.5-.54-.36-.03-.65-.2-.92-.54-.16-.35-.26-.75-.28-1.15v-6.68c0-.08,0-.12,0-.13.03,0,.08-.02.19-.02h12.26c.87-.03,1.66-.32,2.36-.87l.1-.09c.63-.69,1.01-1.55,1.14-2.54v-6.82s0-.1,0-.1c-.14-1.06-.75-2.44-2.88-3l-.1-.03h-14.49c.69-1,1.22-1.85,1.6-2.52.25-.46.52-.53.76-.53h19.18c.37,0,.71.07.83.86.07.49.12.99.15,1.45v3.39c-.05,3.02-.26,5.67-.62,7.9-.12,1.07-.39,2.03-.78,2.79-.45.71-.79.91-1.01.98-1.21.5-2.61.52-4.2.04-1-.25-1.8-.16-2.38.27-.54.4-.83,1.06-.86,1.94v.11s.02.1.02.1c.22.93.91,2.08,2.88,2.2,2.47.33,4.62.14,6.42-.56,1.31-.54,2.32-1.44,3.01-2.69l.04-.09c.43-1.11.79-2.48,1.06-4.05.47-2.68.74-6.47.79-11.27v-4.41l-.02-.16c-.39-1.83-1.55-2.87-3.42-3h-19.76c.45-1.1.17-1.87-.15-2.33l-.09-.1c-.96-.96-1.92-.91-2.56-.7l-.16.08c-.47.29-.81.66-1.01,1.09l-.03.08c-.53,1.64-1.18,3.17-1.95,4.58-1.17,2.31-2.82,4.36-4.88,6.05-.7.5-1.08,1.08-1.12,1.72-.04.64.27,1.28.98,1.92.57.43,1.74.94,3.18-.51.35-.32.71-.64,1.08-.99v18.47c.15,2.12,1.32,3.63,3.37,4.35l.08.02c2.18.51,5.34.77,9.4.8h5.46c.22,0,.43,0,.65,0,3.37,0,6.32-.19,8.74-.55.56-.06,1.17-.26,1.84-.59,1.49-.78,2.45-1.89,2.86-3.3.23-.86.33-2.49.3-4.98v-.08ZM146.5,305.32c-.1-.82.17-1.24.97-1.46h10.06c.2.02.41.08.58.46.03.12.07.41.07,1.06v2.22c-.16.45-.4.94-.74.94h-10.74c-.1,0-.15-.01-.17-.01h0s-.02-.08-.02-.18v-3.03Z"/>
        <path class="cls-3" d="M185.77,301.84l.09.02c1.3.15,2.19-.5,2.39-1.75v-2.97c0-.67.06-.85.04-.82.04-.07.11-.19.27-.34.23-.11.54-.15.92-.1h7.06c-.5.07-1.07.34-1.68.97-1.99,1.86-4.01,3.33-6.02,4.35-.92.48-1.94.91-3.03,1.29l-.19.1c-.8.57-1.01,1.23-1.03,1.68v.07s0,.07,0,.07c.14,1.24.89,1.96,2.02,1.95.08,0,.17,0,.26-.01.47-.03,1.03-.21,1.69-.52,3.25-1.33,6.5-3.53,9.66-6.52l.07-.08c.66-.82.7-1.76.11-2.59l-.09-.11c-.24-.23-.68-.57-1.27-.65h18.36c.16-.03.28-.03.38-.03.22,0,.3.04.3.03l.09.08.13.05s.02.01.05.05c.17.34.17.95.01,1.66l-.47,1.58c-.11.39-.1.76.02,1.1-2.15-1.45-4.42-2.77-6.75-3.95-.69-.41-1.33-.53-1.91-.37-.56.16-1.02.57-1.37,1.22l-.03.07c-.47,1.14-.04,2.16,1.21,2.8,2.47,1.17,5.32,2.92,8.42,5.16.71.61,1.44.88,2.15.81l.11-.02c.93-.23,1.5-.89,1.63-1.86.11-.45.06-1.13-.69-1.87l-.08-.07c-.24-.18-.49-.37-.74-.55.3,0,.6-.05.91-.17l.12-.06c.49-.3.88-.83,1.23-1.66.34-.98.53-2.1.58-3.29.18-1.57-.19-2.92-1.11-4.03l-.12-.11c-.48-.38-1.06-.6-1.73-.67h-13.24s-.08,0-.09,0c-.01-.03-.03-.1-.03-.23,0-.5-.06-1.01-.17-1.54l-.03-.13-.07-.11c-.21-.35-.46-.63-.75-.85l-.14-.08c-.58-.27-1.2-.29-1.87-.07h-.03c-.89.35-1.1.92-1.13,1.3-.11.47-.17.96-.2,1.51,0,.11-.01.17-.01.18-.02,0-.07.02-.14.02h-12.58l-.2.03c-1.97.52-2.63,1.8-2.83,2.78l-.02,5.32v.12c.16.96.72,1.61,1.58,1.81Z"/>
        <path class="cls-3" d="M220.18,310.23l-.19-.11c-.79-.31-1.58-.62-2.35-.9-4.75-1.89-8.88-4.25-12.27-7.01-.72-.63-1.26-1.07-1.66-1.32l-.14-.07c-1.27-.49-2.53-.27-3.63.63h0c-1.86,1.58-3.92,3.04-6.14,4.35-2.84,1.69-5.95,3.17-9.27,4.4-.36.14-.64.32-.85.52-.38.38-.92,1.24-.16,2.71.62,1.04,1.64,1.36,2.77.88.79-.28,1.58-.6,2.36-.95-.05.14-.1.28-.14.43l-.03,9.82v.15c.35,1.78,1.48,2.38,2.38,2.57l22.33.02.09-.02c1.46-.36,2.39-1.3,2.69-2.71l.02-9.65v-.13c-.04-.18-.09-.35-.14-.51,1.88.88,3.2,1.15,4.13.84l.13-.04.11-.08c.35-.27.6-.63.73-1.05.45-1.04.18-2.04-.77-2.77ZM211.77,321.56c-.05.27-.13.45-.23.53-.11.08-.25.15-.42.2h-16.97c-.46,0-.83-.06-1.04-.14-.35-.18-.36-.34-.36-.36v-5.64c.12-.41.33-.53.63-.57h17.73c.45.14.67.32.66.55v5.44ZM192.46,311.51c2.6-1.42,4.96-2.92,7.06-4.46.74-.57,1.3-1.06,1.7-1.45.23-.21.5-.4.88-.4.29,0,.63.11,1.06.4.49.48,1.02.94,1.6,1.35,2.27,1.68,4.75,3.21,7.39,4.57h-19.67Z"/>
        <path class="cls-3" d="M249.02,314.87h-10.43c-1.09,0-1.45.05-1.64.1l-.17.07c-.8.42-1.32,1.09-1.5,1.94l-.02,6.21v.09c.1.88.56,2.03,2.21,2.5l11.48.03.09-.02c1.31-.3,2.17-1.21,2.5-2.62l.02-6-.02-.17c-.28-1.23-1.18-1.99-2.52-2.13ZM239.17,319.99c-.14-.9.16-1.1.53-1.21h6.58c.57,0,.87.06,1.01.12.3.2.31.36.31.39v1.25c0,.58-.05.88-.09,1.02-.17.22-.32.28-.44.31h-7.37c-.1,0-.3-.01-.48-.42-.02-.07-.1-.36-.07-1.31v-.07s0-.07,0-.07Z"/>
        <path class="cls-3" d="M264.08,288.99l-.11-.03c-.68-.16-1.26-.1-1.75.2-.49.3-.83.83-1,1.56l-.02.09v30.69c-.03.4-.21.65-.61.84-.01,0-.25.08-1.09-.06-.69-.13-1.72-.37-3.07-.73l-.08-.02c-1.24-.19-2.14.41-2.48,1.66l-.02.12c-.07.62,0,2.12,2.08,2.56,1.3.38,2.94.63,4.83.73.15.01.29.02.44.02,1.44,0,2.67-.73,3.68-2.21.38-.66.57-1.32.57-1.95v-31.54c-.15-1.19-.84-1.7-1.39-1.92Z"/>
        <path class="cls-3" d="M254.17,295.02c-.09-.76-.54-1.33-1.27-1.62l-.09-.03c-3.26-.83-6.34-2.18-9.13-3.99-.88-.6-1.83-.69-2.73-.25l-.12.07c-3.41,2.48-7,4.29-10.66,5.38-.4.08-.94.33-1.33,1.06l-.06.15c-.19.64-.1,1.31.25,1.99l.1.15c.77.88,1.58.79,1.95.67,1.21-.29,2.46-.73,3.76-1.3h0c-.08,1.17.56,1.97,1.7,2.17h9.66c1.22.01,1.47-.05,1.7-.14.68-.32.95-.78,1.04-1.08.22-.63.19-1.2-.06-1.65.91.32,1.83.59,2.76.79.39.08.78.06,1.16-.06l.1-.04c.94-.43,1.39-1.24,1.27-2.28ZM238,295.69c1.15-.66,2.33-1.42,3.54-2.28.15-.12.3-.21.45-.27h0c.13,0,.38.05.77.3,1.27.87,2.57,1.62,3.9,2.25h-8.65Z"/>
        <path class="cls-3" d="M235.55,313.49s.08-.02.19-.02h12.66l.21-.03c2.07-.57,2.64-1.88,2.76-2.89v-7.24s-.02-.2-.02-.2c-.54-1.98-1.79-2.51-2.75-2.61h-14.49s-.17.02-.17.02c-.8.18-1.47.76-2,1.71l-.04.09c-.15.37-.21.94-.21,1.85v8.54c-.07,3.68-1.01,7.07-2.81,10.14-.31.63-.35,1.22-.13,1.74.24.57.78,1,1.61,1.26l.11.03c.1.02.21.03.32.03.48,0,1.09-.19,1.7-.93.47-.65.79-1.23.95-1.73,1.33-3.3,2.05-6.53,2.13-9.63,0-.08,0-.12,0-.13ZM235.58,308.86c0-.08,0-.12,0-.13.03,0,.08-.02.19-.02h11.56c.07,0,.1,0,.11,0,.01.03.04.11.05.26v.08c.07.43-.03.62-.17.75-.12.03-.4.08-.96.08h-10.59c-.1,0-.15-.01-.17-.01h0s-.02-.07-.02-.18v-.82ZM235.78,305.26c-.09,0-.15,0-.18,0,0,0,0,0,0,0,0-.02,0-.05,0-.11v-.13c-.09-.52.04-.75.23-.9.11-.01.34-.03.82-.03h9.81c.59,0,.84.05.93.08.03.02.05.04.06.05,0,.12.02.38.02.89,0,.08,0,.13,0,.14-.02,0-.07.01-.15.01h-11.52Z"/>
        <path class="cls-3" d="M255.57,317.79c.24.11.49.17.77.17.32,0,.66-.08,1.03-.23.7-.33,1.11-.91,1.19-1.68v-22.56s-.04-.13-.04-.13c-.48-1.36-1.46-1.94-2.7-1.59-.9.25-1.43.92-1.47,1.89v22.34l.04.24c.25.78.65,1.3,1.2,1.55Z"/>
        <path class="cls-3" d="M311.48,300.36l-11.03-.02c-.11,0-.17-.02-.17-.01,0-.02-.02-.07-.02-.18v-4.36c.09-.59.29-.74.4-.79,1.31-.31,2.81-.5,4.53-.55,2.2-.27,3.71-.53,4.69-.83,1.04-.42,1.63-.97,1.79-1.64.25-.83.02-1.58-.69-2.15-.69-.49-1.31-.49-1.71-.4h0c-3.38.74-6.48,1.17-9.28,1.28-1.12.11-1.51.2-1.71.26-1.34.41-2.08,1.34-2.08,2.62v16.98c-.17,2.7-.91,5.29-2.19,7.7-.15-.37-.37-.74-.67-1.11-1.3-1.4-2.65-2.79-4.03-4.15h3.26c1.26,0,1.48-.06,1.63-.14.69-.28,1.14-.86,1.26-1.62v-.08c.05-.76-.16-1.33-.6-1.67l-.08-.05c-.54-.33-1.27-.44-2.16-.35h-4.61c-.11,0-.16-.01-.17-.01,0-.02-.02-.07-.02-.18v-2.15c0-.08,0-.12,0-.13.03,0,.08-.02.19-.02h5.84c.42-.06,1.17-.31,1.55-1.47.33-1.15-.19-2.05-1.39-2.41l-2.72-.03c.63-1.54,1.06-3.02,1.27-4.41v-.09c.06-1.6-.99-1.96-1.42-2.04-1.21-.28-2.12.33-2.42,1.64-.35,1.51-.85,3-1.46,4.4-.22.44-.47.51-.71.51h-3.06c.24-.27.4-.63.47-1.08v-.08s0-.09,0-.09c-.06-1.12-.52-2.37-1.4-3.82-.3-.77-.72-1.27-1.26-1.5-.06-.03-.13-.05-.2-.07h12.51l.21-.03c.44-.12.78-.32.99-.57.78-.82.81-1.87.06-2.88l-.08-.1-.11-.07c-.57-.39-1.34-.53-2.29-.41h-4.13s-.08,0-.09,0c-.01-.03-.03-.1-.03-.23,0-.73-.06-1.3-.19-1.74-.17-.58-.47-.97-.9-1.18-.73-.41-1.54-.38-2.26.07-.3.19-.66.57-.71,1.28-.08.53-.13,1.07-.13,1.57,0,.14-.03.2-.03.2-.01,0-.06.02-.17.02h-6.36c-1.03.21-1.65.91-1.69,1.95,0,1.05.52,1.79,1.45,2.08l2.97.03c-.13.03-.27.08-.41.15l-.17.11c-.88.72-1.04,1.67-.44,2.54.41.76.83,1.76,1.25,2.94.11.36.29.66.52.9h-2.65c-1.13-.16-1.97.07-2.48.66l-.11.17c-.36.74-.41,1.39-.17,1.94.24.53.74.91,1.48,1.11l6.57.03c.08,0,.12.01.14,0,0,.02.01.07.01.15v2.15c0,.11-.01.17-.01.18-.02,0-.07.02-.14.02h-5.43c-1.15,0-1.55.08-1.77.16l-.16.08c-.84.52-1.17,1.34-.93,2.3l.05.15c.35.75.95,1.19,1.72,1.23h5.19c-1.79,2.47-3.95,4.79-6.46,6.96-.87.9-.97,1.93-.29,2.82l.07.08c.43.43.94.67,1.54.66,1.02-.07,2.23-.95,3.82-2.77,1.01-1.15,1.95-2.34,2.81-3.53v8.34c.12.98.71,1.64,1.68,1.82,1.18.11,2.05-.51,2.39-1.7l.03-8.87c.91,1.03,1.81,2.08,2.69,3.11.52.79,1.13,1.05,1.65,1.1-.41.54-.81,1.1-1.19,1.65-.75.79-.81,1.74-.16,2.55l.09.1c.62.55,1.25.79,1.88.74.6-.06,1.14-.4,1.57-.96,2.3-2.6,3.92-5.32,4.81-8.1.64-2.06,1.02-4.23,1.13-6.48v-5.78c0-.08,0-.12,0-.13.03,0,.08-.02.19-.02h3.95c.08,0,.12.01.14,0,0,.02.01.07.01.15v20.85c.05.56.34,1.55,1.76,1.9l.08.02c.09.01.19.02.31.02.63,0,1.64-.27,2.04-1.86l.02-20.93c0-.08,0-.12,0-.13.03,0,.08-.02.19-.02h2.55c.73-.13,1.29-.57,1.63-1.35.24-.7.22-1.31-.07-1.82-.29-.52-.83-.87-1.6-1.04Z"/>
        <path class="cls-3" d="M357.9,309.82l-.04-.1c-.17-.35-.43-.67-.76-.97l-.12-.09c-.72-.44-1.35-.66-1.97-.7h-2.54c-.1,0-.17-.01-.17-.01,0-.02-.02-.08-.02-.18v-1.09l-.03-.22c-.2-.7-.58-1.19-1.09-1.44,1.41.11,2.71-.27,3.86-1.16l.12-.11c.41-.47.73-1.09.98-1.86.78-2.73,1.1-5.16.96-7.24-.17-1.69-1.2-2.73-2.92-2.93h-8.61c-.11,0-.17-.02-.17-.02,0-.02-.02-.06-.02-.13.15-1.07-.21-1.95-1.01-2.46-.37-.24-.99-.46-1.89-.12l-.14.07c-.84.54-1.21,1.43-1.06,2.5,0,.08-.01.12,0,.13-.02,0-.07.02-.14.02h-7.51c-.36.04-.67.15-.93.32l-.12.1c-.34.34-.71.79-.7,1.31-.12,1.15.51,1.97,1.69,2.2h7.36c-.52,1.97-1.69,3.4-3.55,4.38-1.39.62-2.91,1.08-4.54,1.36-.14.03-.28.07-.41.12.51-.44.74-1.09.65-1.9-.16-.99-.82-1.63-1.81-1.75h-2.01c-.11,0-.16-.01-.17-.02,0-.02-.02-.07-.02-.18v-5.7c0-.86-.06-1.45-.2-1.85l-.05-.15-.1-.12c-.82-.96-1.69-1.03-2.26-.92h-.02c-.93.21-1.51.86-1.63,1.85v6.89c0,.11-.02.17-.02.18-.02,0-.07.02-.14.02h-1.9c-.95.08-1.59.69-1.83,1.7l-.02.13c-.08,1.24.54,2.1,1.7,2.37l2.05.02c.08,0,.12,0,.14,0,0,.02.01.07.01.15v22.81l.02.16c.25,1.17,1.04,1.84,2.19,1.84.06,0,.12,0,.19,0l.18-.03c.96-.3,1.56-.96,1.68-1.86v-22.91c0-.08.02-.12.01-.13.03,0,.08-.02.19-.02h.74c.77,0,1.31-.05,1.73-.18-.47.38-.72.93-.72,1.61.05,1.3.8,1.78,1.26,1.96.39.14.87.19,1.48.16h.1c.39-.08.77-.16,1.14-.25-.13.17-.24.38-.33.63-.15.37-.2.91-.17,1.66,0,.11-.01.17-.01.18-.02,0-.07.02-.14.02h-2.11c-.82.09-1.42.53-1.7,1.33-.31,1.25.26,2.2,1.53,2.55l2.12.03c.05,0,.09,0,.12,0,0,.02,0,.04,0,.07-.13,1.19-.55,2.91-1.25,5.09-.8,2.23-1.87,4.27-3.13,5.99-.28.31-.5.63-.66.96l-.03.08c-.44,1.18.05,2.18,1.31,2.68l.08.03c1.26.34,2.3-.95,2.97-1.97.34-.52.65-1.01.92-1.48-.08.18-.16.38-.22.62l-.02.09c-.08.55,0,1.03.26,1.45l.12.15c.81.81,1.85,1.21,3.09,1.17,1.88,0,3.38-.57,4.5-1.72.27-.32.49-.66.66-1.04-.31.89.14,1.58.42,1.9.55.64,1.27.84,2.01.58.72-.24,1.34-.77,1.84-1.54.38-.54.73-1.08,1.05-1.61,1.95-3.25,3.2-6.97,3.73-11.02.05-.32.13-.32.32-.32h.1c1.29-.17,1.63.35,1.8.91.1.36.12.78.06,1.25v2.22c.02,1.97-.17,3.67-.56,5.04-.35,1.14-.83,1.07-1.12,1.02-.44-.07-1.15-.24-2.12-.49l-.15-.02c-.77-.05-1.41.31-1.84,1.06-.34.71-.41,1.35-.2,1.92.21.57.69,1.02,1.46,1.34,1.87.66,3.6.68,5.12.08.81-.27,1.44-.78,1.86-1.5.6-.98.99-2.13,1.16-3.4.24-1.33.44-3.46.6-6.39v-2.19c-.06-1.11-.23-2.1-.51-2.94ZM334.7,322.8c.27-.48.51-.94.71-1.35,1.22-2.69,2.1-5.85,2.6-9.38.05-.32.12-.32.32-.32h.1c.51-.08.92.03,1.25.31.13.29.2.58.21.9.18,3.31-.05,6.01-.67,8.06-.43,1.48-.95,1.4-1.16,1.36-.46-.07-.92-.17-1.38-.3-.34-.08-1.31-.22-1.98.72ZM342.98,323.66c.13-.33.21-.67.26-1.02.63-3.08.95-6.82.95-11.06.1-2.15-1.02-3.48-3.15-3.74h-2.48c-.1,0-.15-.02-.17-.02h0s-.02-.06-.02-.14c.11-.9,0-1.65-.34-2.24l-.07-.12-.11-.09c-.28-.23-.55-.38-.8-.47,1.62-.55,3.01-1.25,4.17-2.12,2.12-1.76,3.41-4.01,3.83-6.69.05-.32.12-.32.32-.32h6.81l.27.07c.56.26.57.52.58.62.05,1.2-.17,2.35-.64,3.4l-.06.22c-.03.21-.28.4-.43.49-.21.11-.77.26-2.11.08-1.02-.15-2.06-.28-3.1-.39-.39-.09-1.31-.15-1.87,1.21-.32,1.03,0,1.9.87,2.39l.11.05c1.37.52,2.74.87,4.05,1.05-.51.1-.94.49-1.3,1.21-.15.37-.2.92-.17,1.7,0,.11-.01.17-.01.18-.02,0-.07.02-.14.02h-2.23l-.15.02c-.8.16-1.36.63-1.57,1.31l-.02.09c-.23,1.26.35,2.19,1.55,2.5l2.23.02c.05,0,.09,0,.12,0,0,.02,0,.04,0,.07-.4,3.9-1.92,7.55-4.53,10.84-.3.29-.5.57-.63.84Z"/>
        <path class="cls-3" d="M397.38,312.03h-23.13s-.18.01-.18.01c-1.04.25-1.73.94-2.02,2l-.03,9.97v.1c.18,1.29.95,2.14,2.24,2.45l23.07.02.11-.03c1.76-.5,2.28-1.69,2.4-2.6v-9.6s0-.16,0-.16c-.25-1.2-1.12-1.97-2.45-2.18ZM376.25,317.14c0-.79.06-1.1.09-1.2.14-.23.28-.28.4-.29h17.6c.53-.09.91.01,1.22.33.06.14.14.51.07,1.35,0,.11-.01.17-.01.18-.02,0-.07.02-.14.02h-19.02c-.08,0-.12-.01-.13-.01h0s-.06-.09-.06-.38ZM376.25,321.28c0-.08,0-.12,0-.13.03,0,.08-.02.19-.02h19.02c.07,0,.1,0,.11,0,.01.03.04.11.05.26v.03c.06.84-.03,1.14-.07,1.25-.06.18-.34.28-.59.34h-18.13c-.13,0-.34-.01-.52-.52,0-.02-.09-.26-.06-1.19Z"/>
        <path class="cls-3" d="M399.34,299.22l-.08-.02h-26.96c-.57.06-1.36.34-1.91,1.4l-.03.07c-.15.37-.21.94-.21,1.85v5.66l.02.17c.35,1.61,1.36,2.13,2.14,2.28h27.03s.12-.03.12-.03c1.63-.54,2.14-1.65,2.28-2.49v-6.62s0-.13,0-.13c-.13-.77-.65-1.77-2.4-2.16ZM376.57,304.63l.03.16.1.14c.36.51.69,1.02.96,1.46.1.2.23.41.39.63h-3.44c-.49-.16-.5-.34-.5-.39v-3.4c0-.07.01-.24.47-.39h2.5c-.46.43-.64,1.05-.49,1.79ZM379.89,302.84h4.17c.08,0,.12.01.14,0,0,.02.01.07.01.15v3.83c0,.11-.01.17-.01.18-.02,0-.07.02-.14.02h-2.78c.05-.06.1-.12.13-.18l.08-.19c.29-1.04-.24-2.28-1.6-3.8ZM388.12,306.82v-3.83c0-.08,0-.12,0-.13.03,0,.08-.02.19-.02h3.86c-.19.18-.37.42-.55.73-.4.86-.96,1.82-1.66,2.81-.35.44-.78.64-1.38.64-.35,0-.45-.07-.45-.07,0,0-.02-.05-.02-.12ZM395.17,303.24l-.04-.07c-.09-.12-.18-.23-.29-.33h1.64c.64,0,.9.05.98.07.14.06.24.13.29.2.02.09.06.34.06.94v1.72c.15.9-.15,1.13-.5,1.25h-3.12l.86-1.44c.61-1.03.4-1.84.13-2.34Z"/>
        <path class="cls-3" d="M405,296.07l-.07-.1c-.41-.48-.95-.78-1.56-.88-4.84-1.09-9.49-2.84-13.83-5.18-1.96-1.35-3.83-1.56-5.56-.6l-.07.04c-.49.34-.98.64-1.49.89-3.88,2.1-8.56,3.85-13.89,5.2l-.12.04c-.79.35-1.1.88-1.21,1.27l-.03.13c-.2,1.48.61,2.16,1.1,2.43l.2.08c.16.04.34.06.54.06.38,0,.83-.07,1.36-.21,2.01-.42,4.58-1.24,7.62-2.45.11.79.69,1.37,1.62,1.58l11.7.02c1.14,0,1.49-.09,1.71-.18l.16-.09c.59-.44.92-1,.94-1.61,1.96.75,4,1.43,6.04,2.03,1.07.36,2.18.59,3.3.7h.12s.11-.01.11-.01c.39-.08.69-.21.92-.39l.16-.17c.78-1.15.55-2.05.22-2.6ZM389.73,294.64h-6.91s1.49-.79,1.49-.79l.12-.08c.63-.5,1.19-.75,1.7-.75.15,0,.3.02.44.06h.04c.36.1.81.3,1.37.64.58.32,1.17.63,1.75.91Z"/>
      </g>
    </g>
    <ellipse class="cls-1" cx="339.22" cy="208.65" rx="16.49" ry="16.65"/>
    <ellipse class="cls-3" cx="112.52" cy="208.65" rx="16.49" ry="16.65"/>
    <ellipse class="cls-1" cx="222.59" cy="122.18" rx="16.49" ry="16.65"/>
    <path class="cls-1" d="M104.36,107.19c-.5,1.33-1.01,2.65-1.51,3.98-1.38,3.63-2.75,7.26-4.13,10.89-2.03,5.34-4.05,10.69-6.08,16.03-2.47,6.52-4.94,13.04-7.41,19.56-2.71,7.14-5.41,14.28-8.12,21.42-2.74,7.24-5.49,14.48-8.23,21.72-2.55,6.72-5.1,13.44-7.64,20.16-2.15,5.68-4.31,11.36-6.46,17.04-1.55,4.09-3.1,8.17-4.65,12.26-.74,1.94-1.5,3.87-2.21,5.82-.03.09-.06.17-.1.25,5.44,1.51,10.88,3.03,16.32,4.54.5-1.33,1.01-2.65,1.51-3.98,1.38-3.63,2.75-7.26,4.13-10.89,2.03-5.34,4.05-10.69,6.08-16.03,2.47-6.52,4.94-13.04,7.41-19.56,2.71-7.14,5.41-14.28,8.12-21.42,2.74-7.24,5.49-14.48,8.23-21.72,2.55-6.72,5.1-13.44,7.64-20.16,2.15-5.68,4.31-11.36,6.46-17.04,1.55-4.09,3.1-8.17,4.65-12.26.74-1.94,1.5-3.87,2.21-5.82.03-.09.06-.17.1-.25h-16.32c.5,1.33,1.01,2.65,1.51,3.98,1.38,3.63,2.75,7.26,4.13,10.89,2.03,5.34,4.05,10.69,6.08,16.03,2.47,6.52,4.94,13.04,7.41,19.56,2.71,7.14,5.41,14.28,8.12,21.42,2.74,7.24,5.49,14.48,8.23,21.72,2.55,6.72,5.1,13.44,7.64,20.16,2.15,5.68,4.31,11.36,6.46,17.04,1.55,4.09,3.1,8.17,4.65,12.26.74,1.94,1.47,3.88,2.21,5.82.03.08.06.17.1.25.81,2.13,1.87,3.91,3.89,5.1,1.81,1.07,4.49,1.53,6.52.86,2.05-.67,4.02-1.95,5.06-3.93s1.65-4.47.85-6.58c-.5-1.33-1.01-2.65-1.51-3.98-1.38-3.63-2.75-7.26-4.13-10.89-2.03-5.34-4.05-10.69-6.08-16.03-2.47-6.52-4.94-13.04-7.41-19.56-2.71-7.14-5.41-14.28-8.12-21.42-2.74-7.24-5.49-14.48-8.23-21.72-2.55-6.72-5.1-13.44-7.64-20.16-2.15-5.68-4.31-11.36-6.46-17.04-1.55-4.09-3.1-8.17-4.65-12.26-.74-1.94-1.46-3.88-2.21-5.82-.03-.08-.06-.17-.1-.25-.68-1.79-1.49-3.24-3.03-4.44-1.43-1.11-3.27-1.92-5.13-1.83-1.5.07-2.94.46-4.27,1.17-2.01,1.07-3.11,3.06-3.89,5.1-.5,1.33-1.01,2.65-1.51,3.98-1.38,3.63-2.75,7.26-4.13,10.89-2.03,5.34-4.05,10.69-6.08,16.03-2.47,6.52-4.94,13.04-7.41,19.56-2.71,7.14-5.41,14.28-8.12,21.42-2.74,7.24-5.49,14.48-8.23,21.72-2.55,6.72-5.1,13.44-7.64,20.16-2.15,5.68-4.31,11.36-6.46,17.04-1.55,4.09-3.1,8.17-4.65,12.26-.74,1.94-1.51,3.87-2.21,5.82-.03.09-.06.17-.1.25-.74,1.95-.15,4.85.85,6.58s3.04,3.46,5.06,3.93c2.17.5,4.6.39,6.52-.86s3.06-2.92,3.89-5.1c.5-1.33,1.01-2.65,1.51-3.98,1.38-3.63,2.75-7.26,4.13-10.89,2.03-5.34,4.05-10.69,6.08-16.03,2.47-6.52,4.94-13.04,7.41-19.56,2.71-7.14,5.41-14.28,8.12-21.42,2.74-7.24,5.49-14.48,8.23-21.72,2.55-6.72,5.1-13.44,7.64-20.16,2.15-5.68,4.31-11.36,6.46-17.04,1.55-4.09,3.1-8.17,4.65-12.26.74-1.94,1.51-3.87,2.21-5.82.03-.09.06-.17.1-.25.74-1.95.15-4.85-.85-6.58-1.03-1.77-3.04-3.46-5.06-3.93-2.17-.5-4.6-.39-6.52.86-1.95,1.27-3.06,2.92-3.89,5.1h0Z"/>
    <path class="cls-3" d="M331.06,107.19c-.5,1.33-1.01,2.65-1.51,3.98-1.38,3.63-2.75,7.26-4.13,10.89-2.03,5.34-4.05,10.69-6.08,16.03-2.47,6.52-4.94,13.04-7.41,19.56-2.71,7.14-5.41,14.28-8.12,21.42-2.74,7.24-5.49,14.48-8.23,21.72-2.55,6.72-5.1,13.44-7.64,20.16-2.15,5.68-4.31,11.36-6.46,17.04-1.55,4.09-3.1,8.17-4.65,12.26-.74,1.94-1.5,3.87-2.21,5.82-.03.09-.06.17-.1.25,5.44,1.51,10.88,3.03,16.32,4.54.5-1.33,1.01-2.65,1.51-3.98,1.38-3.63,2.75-7.26,4.13-10.89,2.03-5.34,4.05-10.69,6.08-16.03,2.47-6.52,4.94-13.04,7.41-19.56,2.71-7.14,5.41-14.28,8.12-21.42,2.74-7.24,5.49-14.48,8.23-21.72,2.55-6.72,5.1-13.44,7.64-20.16,2.15-5.68,4.31-11.36,6.46-17.04,1.55-4.09,3.1-8.17,4.65-12.26.74-1.94,1.5-3.87,2.21-5.82.03-.09.06-.17.1-.25h-16.32c.5,1.33,1.01,2.65,1.51,3.98,1.38,3.63,2.75,7.26,4.13,10.89,2.03,5.34,4.05,10.69,6.08,16.03,2.47,6.52,4.94,13.04,7.41,19.56,2.71,7.14,5.41,14.28,8.12,21.42,2.74,7.24,5.49,14.48,8.23,21.72,2.55,6.72,5.1,13.44,7.64,20.16,2.15,5.68,4.31,11.36,6.46,17.04,1.55,4.09,3.1,8.17,4.65,12.26.74,1.94,1.47,3.88,2.21,5.82.03.08.06.17.1.25.81,2.13,1.87,3.91,3.89,5.1,1.81,1.07,4.49,1.53,6.52.86,2.05-.67,4.02-1.95,5.06-3.93s1.65-4.47.85-6.58c-.5-1.33-1.01-2.65-1.51-3.98-1.38-3.63-2.75-7.26-4.13-10.89-2.03-5.34-4.05-10.69-6.08-16.03-2.47-6.52-4.94-13.04-7.41-19.56-2.71-7.14-5.41-14.28-8.12-21.42-2.74-7.24-5.49-14.48-8.23-21.72-2.55-6.72-5.1-13.44-7.64-20.16-2.15-5.68-4.31-11.36-6.46-17.04-1.55-4.09-3.1-8.17-4.65-12.26-.74-1.94-1.46-3.88-2.21-5.82-.03-.08-.06-.17-.1-.25-.68-1.79-1.49-3.24-3.03-4.44-1.43-1.11-3.27-1.92-5.13-1.83-1.5.07-2.94.46-4.27,1.17-2.01,1.07-3.11,3.06-3.89,5.1-.5,1.33-1.01,2.65-1.51,3.98-1.38,3.63-2.75,7.26-4.13,10.89-2.03,5.34-4.05,10.69-6.08,16.03-2.47,6.52-4.94,13.04-7.41,19.56-2.71,7.14-5.41,14.28-8.12,21.42-2.74,7.24-5.49,14.48-8.23,21.72-2.55,6.72-5.1,13.44-7.64,20.16-2.15,5.68-4.31,11.36-6.46,17.04-1.55,4.09-3.1,8.17-4.65,12.26-.74,1.94-1.51,3.87-2.21,5.82-.03.09-.06.17-.1.25-.74,1.95-.15,4.85.85,6.58,1.03,1.77,3.04,3.46,5.06,3.93,2.17.5,4.6.39,6.52-.86s3.06-2.92,3.89-5.1c.5-1.33,1.01-2.65,1.51-3.98,1.38-3.63,2.75-7.26,4.13-10.89,2.03-5.34,4.05-10.69,6.08-16.03,2.47-6.52,4.94-13.04,7.41-19.56,2.71-7.14,5.41-14.28,8.12-21.42,2.74-7.24,5.49-14.48,8.23-21.72,2.55-6.72,5.1-13.44,7.64-20.16,2.15-5.68,4.31-11.36,6.46-17.04,1.55-4.09,3.1-8.17,4.65-12.26.74-1.94,1.51-3.87,2.21-5.82.03-.09.06-.17.1-.25.74-1.95.15-4.85-.85-6.58-1.03-1.77-3.04-3.46-5.06-3.93-2.17-.5-4.6-.39-6.52.86-1.95,1.27-3.06,2.92-3.89,5.1h0Z"/>
    <path class="cls-3" d="M249.18,148.77c-.08,0-.15-.02-.23-.02h-.2c-.32,0-.64,0-.96,0,0,0-.01,0-.02,0s-.01,0-.02,0c-2.38,0-4.76,0-7.14,0h0s-17.25,0-17.25,0h-17.25c-2.38,0-4.76,0-7.14,0,0,0-.02,0-.02,0s-.01,0-.02,0c-.32,0-.64,0-.96,0h-.2c-.08,0-.15.02-.23.02-3.74.22-6.7,3.34-6.7,7.17s3.19,7.2,7.13,7.2c.02,0,.03,0,.05,0,.31.04.61.08.93.08.38,0,.75-.04,1.11-.1.32,0,.91,0,1.93.02.98,0,1.97.04,2.95.14.13.01.56.09.83.14.27.08.66.2.77.25.41.18.81.37,1.22.59.18.16.37.3.55.47.21.2.47.5.58.62.29.41.56.84.83,1.29.19.31.28.44.33.5.02.08.07.27.22.68.33.91.66,1.79.96,2.74.37,1.21.79,3.15,1.19,5.45,1.17,6.71,1.62,13.67,1.89,20.6.09,2.29.16,4.58.22,6.87.02,19.27.04,38.54.07,57.81,0,.1-.01.19-.01.29s.01.2.02.3h0s0,0,0,.01c.16,4.82,4,8.69,8.77,8.85,4.78-.16,8.61-4.03,8.77-8.85,0,0,0,0,0,0h0c0-.1.02-.2.02-.31s-.01-.19-.01-.29c.02-19.27.04-38.54.07-57.81.06-2.29.13-4.58.22-6.87.27-6.93.72-13.89,1.89-20.6.4-2.3.82-4.24,1.19-5.45.29-.94.62-1.83.96-2.74.15-.41.21-.6.22-.68.05-.05.14-.19.33-.5.27-.45.55-.87.83-1.29.11-.12.37-.41.58-.62.18-.17.37-.31.55-.47.4-.21.81-.41,1.22-.59.11-.05.5-.17.77-.25.27-.05.7-.13.83-.14.98-.09,1.96-.13,2.95-.14,1.02,0,1.61-.02,1.93-.02.36.06.73.1,1.11.1.32,0,.63-.04.93-.08.02,0,.03,0,.05,0,3.94,0,7.13-3.22,7.13-7.2s-2.96-6.95-6.7-7.17Z"/>
    <ellipse class="cls-1" cx="55.98" cy="258.58" rx="8.58" ry="8.66"/>
  </g>
</svg>